<svg width="63" height="63" viewBox="0 0 63 63" fill="none" xmlns="http://www.w3.org/2000/svg">
<path fill-rule="evenodd" clip-rule="evenodd" d="M45.6465 28.0503C46.2253 28.0515 46.6975 28.5222 46.6975 29.1013V33.2491L48.7149 32.0878C49.2165 31.7992 49.8578 31.9717 50.1479 32.4723C50.4364 32.9738 50.2665 33.6178 49.766 33.9079L47.7101 35.0922L51.9987 37.5685V35.1947C51.9992 34.6155 52.4705 34.1466 53.0498 34.1463C53.6284 34.1474 54.0977 34.6159 54.0982 35.1947V37.5941L57.7538 35.487C58.2557 35.1985 58.8971 35.3699 59.1867 35.8715C59.4747 36.373 59.3028 37.0146 58.8022 37.3045L55.1698 39.3988L57.2052 40.5755C57.7054 40.8657 57.8782 41.5097 57.5897 42.011C57.3001 42.5116 56.6582 42.683 56.1567 42.3955L54.0982 41.2061V46.1536L56.1516 44.9693L56.3438 44.8821C56.8067 44.7279 57.3306 44.9153 57.5846 45.3538C57.8731 45.8555 57.7011 46.4994 57.2 46.7893L55.1544 47.966L58.8022 50.0757L58.9765 50.1988C59.3403 50.5229 59.4398 51.0701 59.1867 51.5087C58.9335 51.9467 58.4109 52.1328 57.9486 51.9804L57.7538 51.8932L54.0982 49.7835V52.1726C54.0965 52.7504 53.6277 53.22 53.0498 53.2211C52.4712 53.2207 52.0004 52.7509 51.9987 52.1726V49.7912L47.7101 52.2675L49.7711 53.4569L49.9428 53.5825C50.3063 53.9065 50.4054 54.4541 50.153 54.8925C49.8997 55.33 49.377 55.5164 48.9149 55.3642L48.7201 55.277L46.6975 54.1081V58.2788C46.6962 58.8569 46.2245 59.3261 45.6465 59.3273C45.0674 59.3273 44.5967 58.8576 44.5954 58.2788V54.0645L42.5011 55.277C41.9994 55.5665 41.3559 55.3934 41.0655 54.8925C40.776 54.3904 40.9481 53.7468 41.45 53.4569L43.5085 52.2675L39.2249 49.7937V52.1701C39.2239 52.7486 38.7526 53.2203 38.1739 53.2211C37.5949 53.2207 37.1239 52.7489 37.1229 52.1701V49.8219L33.5366 51.8932C33.035 52.1827 32.3915 52.0095 32.101 51.5087C31.8117 51.0069 31.9843 50.3658 32.4856 50.0757L36.0975 47.989L34.0185 46.7893L33.8468 46.6637C33.4816 46.3398 33.3806 45.7931 33.634 45.3538C33.8879 44.9155 34.412 44.7281 34.8747 44.8821L35.0695 44.9693L37.1229 46.1536V41.2061L35.0644 42.3955C34.5627 42.6851 33.9192 42.512 33.6289 42.011C33.3395 41.5089 33.5115 40.8653 34.0134 40.5755L36.0796 39.3783L32.4881 37.3045C31.9861 37.0146 31.814 36.3736 32.1036 35.8715C32.3576 35.4319 32.8808 35.2446 33.3443 35.3998L33.5366 35.487L37.1229 37.5531V35.1947C37.1229 34.615 37.5943 34.1441 38.1739 34.1437C38.7532 34.1445 39.2249 34.6153 39.2249 35.1947V37.5659L43.5085 35.0922L41.4552 33.9079L41.2834 33.7823C40.9179 33.4583 40.8171 32.9118 41.0706 32.4723C41.3247 32.034 41.8486 31.8463 42.3114 32.0006L42.5062 32.0878L44.5954 33.2926V29.1013C44.5954 28.5215 45.0666 28.0503 45.6465 28.0503ZM39.2249 39.991V47.3661L45.6106 51.0524L51.9987 47.3661V39.9936L45.6106 36.3047L39.2249 39.991Z" fill="white"/>
<path d="M52.6653 8.46536C53.1778 7.9528 54.0086 7.95281 54.5212 8.46536C55.0335 8.97795 55.0337 9.80885 54.5212 10.3213L10.3064 54.5362C9.79386 55.0482 8.96285 55.0483 8.45041 54.5362C7.938 54.0237 7.93829 53.1928 8.45041 52.6802L52.6653 8.46536Z" fill="white"/>
<path d="M24.103 30.4728C24.5813 30.5709 24.9412 30.9935 24.9413 31.5008C24.941 32.0078 24.5812 32.4308 24.103 32.5287L23.8928 32.5518H5.36398C4.7843 32.5518 4.3133 32.0804 4.31296 31.5008C4.31296 30.9209 4.7841 30.4498 5.36398 30.4497H23.8928L24.103 30.4728Z" fill="white"/>
<path fill-rule="evenodd" clip-rule="evenodd" d="M20.1988 4.28433C20.3016 4.03136 20.6594 4.03169 20.7628 4.28433L23.2186 10.2931C23.3003 10.4933 23.1527 10.713 22.9366 10.7135H21.4729C21.4401 11.0843 21.4139 11.5315 21.419 12.0414C21.435 13.6223 21.7172 15.7863 22.7828 18.1117C24.0546 20.8871 23.811 23.4209 23.2545 25.2382C22.9776 26.142 22.6224 26.8745 22.3342 27.3838C22.1901 27.6384 22.0604 27.84 21.9651 27.9811C21.918 28.0506 21.8787 28.1078 21.8497 28.1477C21.8314 28.1729 21.813 28.1979 21.7933 28.2221C21.438 28.6794 20.7798 28.7612 20.3219 28.4066C19.8638 28.0514 19.7797 27.3934 20.1347 26.9352C20.166 26.8935 20.1952 26.8502 20.2245 26.807C20.2919 26.7072 20.3923 26.5524 20.5064 26.3507C20.736 25.945 21.0238 25.3525 21.2473 24.623C21.6921 23.1702 21.8802 21.187 20.873 18.9884C19.6588 16.339 19.3378 13.8693 19.3195 12.0619C19.3145 11.559 19.3362 11.1064 19.3657 10.7135H18.0404C17.8243 10.7134 17.6771 10.4934 17.7584 10.2931L20.1988 4.28433Z" fill="white"/>
<path d="M6.43039 4.28946C6.53291 4.03594 6.89364 4.03386 6.99692 4.2869L9.43735 10.2931C9.51878 10.4935 9.37162 10.7135 9.15536 10.7135H7.70444C7.67169 11.0843 7.64546 11.5315 7.6506 12.0414C7.66656 13.6222 7.94877 15.7863 9.01437 18.1117C10.2861 20.8871 10.0425 23.4209 9.48605 25.2382C9.20912 26.142 8.85394 26.8745 8.56577 27.3838C8.42165 27.6385 8.29198 27.84 8.19662 27.9811C8.14144 28.0627 8.08674 28.1453 8.02487 28.2221C7.66952 28.6793 7.01136 28.7611 6.55344 28.4066C6.09558 28.0514 6.01144 27.3934 6.3663 26.9352C6.36648 26.935 6.37478 26.9242 6.38168 26.9147C6.39739 26.8931 6.42296 26.8559 6.45602 26.807C6.52348 26.7072 6.62392 26.5523 6.73801 26.3507C6.96757 25.945 7.25535 25.3525 7.47885 24.623C7.92369 23.1702 8.11179 21.1871 7.10458 18.9884C5.89039 16.339 5.56936 13.8693 5.55112 12.0619C5.54607 11.559 5.56778 11.1064 5.59726 10.7135H4.28476C4.06907 10.7134 3.9224 10.4957 4.00278 10.2957L6.43039 4.28946Z" fill="white"/>
<path d="M13.3159 4.28433C13.4187 4.03159 13.7764 4.03167 13.8799 4.28433L16.3408 10.2931C16.4227 10.4933 16.275 10.7131 16.0588 10.7135H14.5874C14.5546 11.0843 14.5284 11.5316 14.5335 12.0414C14.5495 13.6221 14.8319 15.7865 15.8973 18.1117C17.1691 20.8871 16.928 23.4209 16.3716 25.2382C16.0945 26.1424 15.737 26.8744 15.4487 27.3838C15.3048 27.638 15.1774 27.84 15.0821 27.9811C15.0272 28.0623 14.9692 28.1411 14.9104 28.2195C14.5551 28.6773 13.8945 28.7613 13.4364 28.4066C12.9793 28.0514 12.8951 27.3931 13.2492 26.9352C13.2494 26.935 13.2577 26.9243 13.2646 26.9147C13.2804 26.893 13.3082 26.8563 13.3415 26.807C13.4089 26.7073 13.507 26.552 13.6209 26.3507C13.8505 25.9451 14.1383 25.3523 14.3618 24.623C14.8066 23.1703 14.997 21.1869 13.9901 18.9884C12.7759 16.339 12.4523 13.8693 12.4341 12.0619C12.429 11.559 12.4507 11.1064 12.4802 10.7135H11.1626C10.9469 10.7133 10.8003 10.4956 10.8806 10.2957L13.3159 4.28433Z" fill="white"/>
</svg>
