<svg width="63" height="63" viewBox="0 0 63 63" fill="none" xmlns="http://www.w3.org/2000/svg">
<path fill-rule="evenodd" clip-rule="evenodd" d="M31.5001 16.7277C35.971 16.7281 39.5951 20.3523 39.5956 24.8232V48.2072H44.0278L44.356 48.2405C45.1041 48.393 45.6683 49.0547 45.6685 49.8478C45.6683 50.6409 45.104 51.3026 44.356 51.4551L44.0278 51.4885H18.9724C18.0667 51.4881 17.332 50.7536 17.3318 49.8478C17.332 48.9421 18.0667 48.2076 18.9724 48.2072H23.4021V24.8232C23.4026 20.3523 27.0292 16.7281 31.5001 16.7277Z" fill="white"/>
<path d="M10.5129 35.6308C11.1964 35.2915 12.0478 35.4672 12.5355 36.0922C13.0922 36.8063 12.9645 37.8369 12.251 38.3942L11.2666 39.1633L10.9846 39.3402C10.3015 39.6786 9.45218 39.503 8.9646 38.8787C8.40753 38.1649 8.53361 37.1345 9.24658 36.5767L10.231 35.8077L10.5129 35.6308Z" fill="white"/>
<path d="M50.4647 36.0922C51.022 35.3782 52.0524 35.2509 52.7667 35.8077L53.7511 36.5767L53.9921 36.8049C54.4877 37.3854 54.5235 38.2536 54.0356 38.8787C53.548 39.5029 52.6987 39.6787 52.0156 39.3402L51.7336 39.1633L50.7493 38.3942C50.0353 37.837 49.9081 36.8065 50.4647 36.0922Z" fill="white"/>
<path d="M42.2847 29.7092C42.8421 28.9949 43.8749 28.8672 44.5892 29.4246L48.3832 32.3854L48.6216 32.6162C49.117 33.1967 49.1556 34.0649 48.6677 34.69C48.1798 35.3146 47.3284 35.4883 46.6451 35.1489L46.3632 34.972L42.5692 32.0112L42.3308 31.783C41.8351 31.2028 41.7975 30.3344 42.2847 29.7092Z" fill="white"/>
<path d="M18.6904 29.2477C19.374 28.9079 20.225 29.0841 20.713 29.7092C21.2704 30.4235 21.1427 31.4537 20.4285 32.0112L16.6345 34.972C15.9205 35.5286 14.8899 35.4034 14.3325 34.69C13.7752 33.9759 13.9034 32.943 14.6171 32.3854L18.411 29.4246L18.6904 29.2477Z" fill="white"/>
<path d="M8.92871 23.2466C9.67612 23.3995 10.2381 24.0615 10.2386 24.8539C10.2383 25.6464 9.67605 26.3083 8.92871 26.4612L8.59802 26.4946H7.34961C6.44403 26.4942 5.70934 25.7595 5.70898 24.8539C5.70957 23.9486 6.44417 23.2137 7.34961 23.2133H8.59802L8.92871 23.2466Z" fill="white"/>
<path d="M19.3031 23.2466C20.0503 23.3996 20.6125 24.0616 20.613 24.8539C20.6127 25.6463 20.0503 26.3081 19.3031 26.4612L18.9724 26.4946H14.1608C13.2552 26.4942 12.5205 25.7595 12.5201 24.8539C12.5207 23.9486 13.2553 23.2137 14.1608 23.2133H18.9724L19.3031 23.2466Z" fill="white"/>
<path d="M49.1702 23.2466C49.9178 23.3993 50.4796 24.0613 50.4801 24.8539C50.4798 25.6466 49.9177 26.3084 49.1702 26.4612L48.8395 26.4946H44.0278C43.1222 26.4944 42.3876 25.7596 42.3872 24.8539C42.3878 23.9485 43.1223 23.2135 44.0278 23.2133H48.8395L49.1702 23.2466Z" fill="white"/>
<path d="M55.9813 23.2466C56.7283 23.3998 57.2908 24.0618 57.2913 24.8539C57.2909 25.6461 56.7282 26.3079 55.9813 26.4612L55.6506 26.4946H54.4022C53.4965 26.4944 52.762 25.7596 52.7616 24.8539C52.7622 23.9485 53.4967 23.2135 54.4022 23.2133H55.6506L55.9813 23.2466Z" fill="white"/>
<path d="M14.3325 15.0205C14.8899 14.3063 15.9202 14.1789 16.6345 14.7359L20.4285 17.6967L20.6694 17.9274C21.164 18.5079 21.2003 19.374 20.713 19.9987C20.2249 20.6235 19.3738 20.8001 18.6904 20.4601L18.411 20.2833L14.6171 17.3225C13.9032 16.7653 13.7761 15.7347 14.3325 15.0205Z" fill="white"/>
<path d="M46.6451 14.559C47.3286 14.2197 48.1799 14.3954 48.6677 15.0205C49.224 15.7346 49.0967 16.7652 48.3832 17.3225L44.5892 20.2833L44.3073 20.4601C43.6239 20.7991 42.7723 20.6234 42.2847 19.9987C41.7283 19.2848 41.8561 18.2541 42.5692 17.6967L46.3632 14.7359L46.6451 14.559Z" fill="white"/>
<path d="M8.9646 10.8292C9.45227 10.2052 10.3016 10.0292 10.9846 10.3677L11.2666 10.5446L12.251 11.3137L12.4894 11.5444C12.9844 12.1246 13.0224 12.9907 12.5355 13.6157C12.0476 14.2402 11.1962 14.4165 10.5129 14.0771L10.231 13.9002L9.24658 13.1337L9.00818 12.903C8.51268 12.3227 8.47725 11.4543 8.9646 10.8292Z" fill="white"/>
<path d="M52.0156 10.3677C52.6987 10.0294 53.5481 10.205 54.0356 10.8292C54.5929 11.5435 54.4653 12.5763 53.7511 13.1337L52.7667 13.9002C52.0525 14.4568 51.022 14.3295 50.4647 13.6157C49.9081 12.9016 50.0357 11.871 50.7493 11.3137L51.7336 10.5446L52.0156 10.3677Z" fill="white"/>
</svg>
