<svg width="63" height="63" viewBox="0 0 63 63" fill="none" xmlns="http://www.w3.org/2000/svg">
<path fill-rule="evenodd" clip-rule="evenodd" d="M28.171 18.7424C28.6026 19.1715 29.1131 19.5118 29.6763 19.7437C30.254 19.9848 30.8732 20.1083 31.4993 20.1054C32.7458 20.1083 33.9427 19.6179 34.8274 18.7424C35.2578 18.3108 35.5996 17.8003 35.8303 17.2371C36.0715 16.6594 36.1947 16.0391 36.1906 15.4141C36.1973 14.1676 35.7068 12.9693 34.8273 12.0858C34.3972 11.6556 33.8864 11.3138 33.3235 11.0834C32.7457 10.8419 32.1251 10.7187 31.4993 10.7228C30.8732 10.7187 30.2525 10.8419 29.6748 11.0834C28.5394 11.5495 27.6373 12.4519 27.1697 13.5885C26.9271 14.1662 26.8051 14.7868 26.8077 15.4141C26.805 16.0402 26.9285 16.6594 27.1697 17.2371C27.4002 17.7989 27.7408 18.3108 28.1709 18.7413" fill="white"/>
<path fill-rule="evenodd" clip-rule="evenodd" d="M37.0833 44.9877C36.8711 44.7465 36.7372 44.4462 36.6971 44.1285C36.6676 43.8363 36.6542 43.4942 36.6542 43.1029V22.7861H25.5097V26.5139H27.4385C27.9278 26.4899 28.4015 26.6907 28.7244 27.0595C28.9076 27.2525 29.0392 27.4885 29.1088 27.7456C29.1708 28.0138 29.1998 28.2885 29.1957 28.5648V43.6458C29.1986 43.9285 29.1627 44.2102 29.0873 44.4836C29.0149 44.7384 28.8757 44.9688 28.685 45.1538C28.3679 45.5303 27.889 45.7329 27.3974 45.6979H25.4668V49.5947H40.2116V45.6979H38.6248C38.0265 45.7248 37.452 45.4596 37.0833 44.9862" fill="white"/>
<path fill-rule="evenodd" clip-rule="evenodd" d="M31.4999 4.02115C27.7883 4.02115 24.1904 4.74642 20.8058 6.17812C17.534 7.56285 14.5944 9.54386 12.0704 12.0692C9.545 14.5946 7.56226 17.5328 6.17897 20.8049C4.74758 24.1895 4.02115 27.7883 4.02115 31.5002C4.02115 35.2103 4.74758 38.8093 6.17897 42.194C7.56226 45.4658 9.545 48.4057 12.0704 50.9293C14.5944 53.4547 17.534 55.4375 20.8058 56.8208C24.1904 58.2522 27.7883 58.9786 31.4999 58.9786C35.2114 58.9786 38.8091 58.2522 42.1951 56.8208C45.4669 55.4375 48.4054 53.4547 50.9305 50.9293C53.4559 48.4057 55.4372 45.4658 56.8216 42.194C58.2533 38.8094 58.9786 35.2103 58.9786 31.5002C58.9786 27.7883 58.2533 24.1895 56.8216 20.8049C55.4372 17.5328 53.4559 14.5946 50.9305 12.0692C48.4054 9.54384 45.4669 7.56283 42.1951 6.17812C38.8091 4.74642 35.2114 4.02115 31.4999 4.02115ZM31.5002 0C48.8973 0 63 14.1024 63 31.5002C63 48.8961 48.8973 63 31.5002 63C14.1039 63 0 48.8961 0 31.5002C0 14.1024 14.1039 0 31.5002 0Z" fill="white"/>
</svg>
