<svg width="58" height="56" viewBox="0 0 58 56" fill="none" xmlns="http://www.w3.org/2000/svg">
<mask id="mask0_4486_83222" style="mask-type:luminance" maskUnits="userSpaceOnUse" x="8" y="33" width="23" height="23">
<path fill-rule="evenodd" clip-rule="evenodd" d="M19.8454 33.9111L10.3199 43.4637C9.63756 44.1445 9.09596 44.953 8.72605 45.8431C8.35615 46.7332 8.16519 47.6874 8.16407 48.6513C8.16294 49.6152 8.35165 50.5699 8.71948 51.4608C9.08731 52.3518 9.62701 53.1616 10.3078 53.8439C10.9886 54.5263 11.7971 55.0679 12.6872 55.4378C13.5773 55.8077 14.5315 55.9987 15.4954 55.9998C16.4593 56.0009 17.414 55.8122 18.3049 55.4443C19.1959 55.0765 20.0057 54.5368 20.6881 53.856L30.2221 44.3035L19.8454 33.9111Z" fill="white"/>
</mask>
<g mask="url(#mask0_4486_83222)">
<path d="M37.0216 27.1104H1.36621V62.8085H37.0216V27.1104Z" fill="white"/>
</g>
<path d="M40.2077 29.7312L34.5703 23.9127L43.4371 15.0915L43.7222 12.3527L49.5165 6.42578L57.8658 14.3787L52.0201 20.2442L49.0973 20.5736L40.2077 29.7312ZM37.4375 23.9398L40.2106 26.8013L48.1463 18.6303L51.082 18.2981L54.9515 14.4157L49.5735 9.29296L45.6826 13.2737L45.3904 16.0282L37.4375 23.9398Z" fill="white"/>
<path fill-rule="evenodd" clip-rule="evenodd" d="M46.2776 46.2141C45.9751 46.52 45.5886 46.7292 45.1671 46.8153C44.7457 46.9014 44.3082 46.8606 43.91 46.6979C43.5117 46.5353 43.1706 46.2582 42.9299 45.9017C42.6892 45.5452 42.5596 45.1253 42.5576 44.6951C42.5556 44.2649 42.6813 43.8439 42.9187 43.4851C43.1561 43.1264 43.4945 42.8461 43.8912 42.6798C44.288 42.5135 44.7251 42.4686 45.1474 42.5508C45.5696 42.633 45.958 42.8386 46.2634 43.1416C46.6726 43.5472 46.904 44.0987 46.9067 44.6749C46.9094 45.2511 46.6831 45.8048 46.2776 46.2141Z" fill="white"/>
<mask id="mask1_4486_83222" style="mask-type:luminance" maskUnits="userSpaceOnUse" x="42" y="42" width="5" height="5">
<path fill-rule="evenodd" clip-rule="evenodd" d="M46.2776 46.2141C45.9751 46.52 45.5886 46.7292 45.1671 46.8153C44.7457 46.9014 44.3082 46.8606 43.91 46.6979C43.5117 46.5353 43.1706 46.2582 42.9299 45.9017C42.6892 45.5452 42.5596 45.1253 42.5576 44.6951C42.5556 44.2649 42.6813 43.8439 42.9187 43.4851C43.1561 43.1264 43.4945 42.8461 43.8912 42.6798C44.288 42.5135 44.7251 42.4686 45.1474 42.5508C45.5696 42.633 45.958 42.8386 46.2634 43.1416C46.6726 43.5472 46.904 44.0987 46.9067 44.6749C46.9094 45.2511 46.6831 45.8048 46.2776 46.2141Z" fill="white"/>
</mask>
<g mask="url(#mask1_4486_83222)">
<path d="M44.6846 31.9908L32.043 44.7285L44.7857 57.3751L57.4273 44.6374L44.6846 31.9908Z" fill="white"/>
</g>
<path d="M45.1583 51.374C44.8194 51.375 44.4836 51.3089 44.1704 51.1795C43.8571 51.05 43.5726 50.8598 43.3333 50.6198L18.1559 25.632C16.9144 26.1267 15.6048 26.4296 14.2721 26.5302C10.7589 26.7806 7.28946 25.6303 4.6217 23.3307C1.95394 21.031 0.30475 17.769 0.0344987 14.2573C0.00313208 13.8096 -0.00684266 13.3685 0.0045634 12.9342L0.0159632 12.5293L3.93536 8.58136L11.308 15.8983C11.9259 16.4839 12.7485 16.8044 13.5997 16.7914C14.4509 16.7784 15.2632 16.4328 15.863 15.8286C16.4627 15.2244 16.8022 14.4095 16.809 13.5582C16.8157 12.7069 16.4891 11.8868 15.8989 11.2732L8.52491 3.95618L12.4272 0.0239413L12.8307 0.00966983C16.264 -0.121545 19.6139 1.08682 22.1729 3.37953C24.732 5.67223 26.2997 8.86979 26.545 12.2969C26.6876 14.2593 26.3955 16.2289 25.6896 18.0655L50.8542 43.0405C51.3424 43.5252 51.6181 44.1839 51.6208 44.8718C51.6235 45.5597 51.3529 46.2205 50.8685 46.7089L46.999 50.6098C46.7594 50.8524 46.4741 51.045 46.1597 51.1767C45.8452 51.3083 45.5078 51.3764 45.1669 51.3769L45.1583 51.374ZM18.6036 23.2025L44.7677 49.1727C44.8732 49.2753 45.0357 49.3765 45.1597 49.3338C45.3069 49.333 45.4479 49.2741 45.5518 49.1698L49.4227 45.2704C49.4744 45.219 49.5154 45.1579 49.5433 45.0906C49.5713 45.0233 49.5857 44.9511 49.5857 44.8783C49.5857 44.8054 49.5713 44.7333 49.5433 44.666C49.5154 44.5987 49.4744 44.5376 49.4227 44.4862L23.2658 18.5331L23.551 17.8887C24.3189 16.1774 24.6463 14.3011 24.5036 12.4308C24.3608 10.5605 23.7524 8.75568 22.7337 7.18071C21.715 5.60573 20.3184 4.3107 18.6711 3.41355C17.0239 2.51641 15.1783 2.04565 13.3026 2.04423H13.2926L11.4035 3.94904L17.3275 9.8289C17.8336 10.3163 18.2378 10.8994 18.5164 11.5445C18.7951 12.1895 18.9427 12.8835 18.9506 13.5861C18.9586 14.2887 18.8268 14.9859 18.5628 15.6371C18.2988 16.2883 17.908 16.8804 17.413 17.3792C16.9181 17.8779 16.3289 18.2732 15.6797 18.5422C15.0306 18.8111 14.3344 18.9483 13.6318 18.9456C12.9291 18.943 12.234 18.8007 11.5869 18.527C10.9397 18.2533 10.3535 17.8536 9.86225 17.3512L3.93967 11.4713L2.03486 13.389C2.03486 13.6299 2.04768 13.8723 2.06479 14.1133C2.1946 15.9233 2.76134 17.6749 3.7165 19.2179C4.67166 20.7609 5.98676 22.0493 7.54901 22.9726C9.11126 23.896 10.8741 24.4267 12.6864 24.5194C14.4988 24.6121 16.3066 24.2639 17.9548 23.5047L18.6036 23.2025Z" fill="white"/>
</svg>
