<svg width="63" height="63" viewBox="0 0 63 63" fill="none" xmlns="http://www.w3.org/2000/svg">
<path d="M31.5008 12.7052C33.559 12.7052 35.2275 11.0368 35.2275 8.9786C35.2275 6.92043 33.559 5.25195 31.5008 5.25195C29.4427 5.25195 27.7742 6.92043 27.7742 8.9786C27.7742 11.0368 29.4427 12.7052 31.5008 12.7052Z" fill="white"/>
<path fill-rule="evenodd" clip-rule="evenodd" d="M16.115 41.6647L21.2574 35.9538H18.0657C15.7927 35.9538 14.594 33.2614 16.115 31.5723L29.5139 16.6922C30.5548 15.5363 32.3669 15.5339 33.4107 16.6872L46.8796 31.5673C48.4071 33.2548 47.2096 35.9538 44.9334 35.9538H41.7149L46.8796 41.6597C48.4071 43.3472 47.2096 46.0462 44.9334 46.0462H41.2454V55.1226C41.2454 56.5723 40.0701 57.7476 38.6204 57.7476H24.3682C22.9184 57.7476 21.7432 56.5723 21.7432 55.1226V46.0462H18.0657C15.7927 46.0462 14.594 43.3538 16.115 41.6647ZM29.5139 26.7846L24.212 32.6726H19.5397L31.4659 19.428L43.4543 32.6726H38.7448L33.4107 26.7796C32.3669 25.6263 30.5548 25.6287 29.5139 26.7846Z" fill="white"/>
</svg>
