<svg width="63" height="63" viewBox="0 0 63 63" fill="none" xmlns="http://www.w3.org/2000/svg">
<g clip-path="url(#clip0_4486_83279)">
<path d="M14.9161 11.4352C16.803 9.17426 20.3359 9.34767 21.9836 11.7941L27.3798 19.805L27.3823 19.8075C29.0959 22.3582 28.4325 25.8345 25.8699 27.5569L25.552 27.7671C26.2962 28.9042 27.1383 30.0526 28.0847 31.1612L28.0924 31.1689C28.9349 32.1645 29.8795 33.1478 30.8507 34.0425L31.8274 34.9064L31.8479 34.9218C32.6014 35.5751 33.8219 36.4442 34.9138 37.1853C35.0261 37.2615 35.1375 37.334 35.2445 37.4058L35.4342 37.1264C37.1509 34.5746 40.622 33.8883 43.181 35.6165L51.2201 41.0229L51.2252 41.028C53.667 42.6832 53.8138 46.1912 51.579 48.0699L51.5559 48.0878C50.0813 49.2897 48.5602 50.4495 46.916 51.5152C44.3568 53.1757 41.2228 53.583 38.3309 52.7046H38.3284C35.8436 51.9467 33.3235 50.8658 30.843 49.4593V49.4567C27.4193 47.5396 24.0855 45.0268 21.0275 41.9688C17.9658 38.907 15.4433 35.5535 13.5267 32.1379V32.1404C12.1328 29.6653 11.0426 27.1388 10.2839 24.6422C9.40325 21.7438 9.82774 18.6199 11.4734 16.0674L12.2476 14.9139C13.0527 13.7568 13.9475 12.5909 14.9161 11.4327V11.4352ZM18.7178 13.9936C18.5391 13.7284 18.1489 13.7055 17.9385 13.9577H17.9359C16.7331 15.3958 15.67 16.8207 14.7803 18.1977L14.7828 18.2002C13.7705 19.7703 13.5045 21.6937 14.0522 23.4964C14.7218 25.7001 15.6933 27.9642 16.9567 30.2076L16.9592 30.2127C18.6949 33.3057 20.9998 36.3707 23.814 39.1848C26.277 41.6478 28.9165 43.7132 31.6146 45.3526L32.7759 46.0293L32.7861 46.0345C35.0247 47.3037 37.2787 48.2659 39.4768 48.9363C41.2846 49.485 43.2133 49.2249 44.7755 48.2109C46.2495 47.2555 47.6396 46.1966 49.0411 45.0552C49.2992 44.8383 49.2696 44.4644 49.0232 44.2913L40.9867 38.8849L40.979 38.8798C40.2305 38.3734 39.206 38.5731 38.7001 39.3258V39.3284L37.4235 41.2177C37.0576 41.7596 36.4469 42.0838 35.7931 42.0841H35.7828C35.5035 42.0841 35.2282 42.0261 34.9753 41.9124L34.7292 41.7791L34.7267 41.7765C34.7246 41.7752 34.7202 41.7738 34.7164 41.7714C34.709 41.7667 34.699 41.7594 34.6857 41.7509C34.6579 41.7332 34.6167 41.707 34.5652 41.674C34.4622 41.6079 34.3141 41.5131 34.132 41.3946C33.767 41.1571 33.2615 40.8236 32.7015 40.4435C31.6063 39.7002 30.2149 38.7179 29.269 37.898V37.8954C27.8001 36.6533 26.3473 35.2016 25.0906 33.717C23.5427 31.9039 22.2364 30.0093 21.1787 28.1824C20.6606 27.2869 20.9234 26.1438 21.7811 25.5651L23.6704 24.2911L23.673 24.2885C24.4189 23.7871 24.6235 22.76 24.1139 22.0019V22.0044L18.7178 13.9936Z" fill="white"/>
</g>
<defs>
<clipPath id="clip0_4486_83279">
<rect width="63" height="63" fill="white"/>
</clipPath>
</defs>
</svg>
