<svg width="63" height="63" viewBox="0 0 63 63" fill="none" xmlns="http://www.w3.org/2000/svg">
<path fill-rule="evenodd" clip-rule="evenodd" d="M46.6881 12.5554C48.3644 12.0774 50.0327 13.335 50.0334 15.0779V38.7618H50.0232C49.8832 42.2883 46.7788 45.1301 43.1838 45.8345C39.0947 46.6354 34.5495 44.6381 33.7272 40.4435C32.9054 36.2481 36.3617 32.6824 40.4512 31.8815C42.3772 31.5044 44.4043 31.7491 46.0959 32.5505V16.8185L29.3744 21.5865V42.5712C29.6701 46.4318 26.3861 49.6221 22.5453 50.3744C18.4561 51.1751 13.9107 49.1781 13.0886 44.9834C12.2669 40.7881 15.7232 37.2225 19.8126 36.4214C21.7302 36.0458 23.7497 36.2874 25.4369 37.0802V20.597C25.4369 19.4245 26.214 18.3936 27.3415 18.072L46.6881 12.5554ZM25.4061 42.5686C25.1358 41.1938 23.283 39.7565 20.5714 40.2871C17.8588 40.8184 16.6855 42.8492 16.9543 44.2246C17.2239 45.5998 19.0764 47.0397 21.7891 46.5087C24.5013 45.9771 25.6752 43.9438 25.4061 42.5686ZM46.0447 38.0287C45.7746 36.6537 43.9194 35.2164 41.2074 35.7472C38.4956 36.2788 37.3216 38.3095 37.5903 39.6847C37.8599 41.06 39.7147 42.5001 42.4276 41.9687C45.1395 41.437 46.3138 39.4038 46.0447 38.0287Z" fill="white"/>
</svg>
