<svg width="63" height="63" viewBox="0 0 63 63" fill="none" xmlns="http://www.w3.org/2000/svg">
<path d="M24.5768 41.3458C20.9962 44.9265 15.1909 44.9265 11.6103 41.3458C8.02965 37.7652 8.02965 31.9599 11.6103 28.3793L23.2589 16.7306C23.4369 16.5527 23.6886 16.471 23.9359 16.5092L25.3902 16.7974C25.6873 16.8694 25.9171 17.1077 25.9769 17.4096L26.2543 18.8094C26.3054 19.0672 26.2245 19.3335 26.0387 19.5193L14.3945 31.1635C12.3516 33.2064 12.3516 36.5187 14.3945 38.5616C16.4374 40.6045 19.7497 40.6045 21.7926 38.5616L37.0661 23.2881C40.6467 19.7075 46.4521 19.7075 50.0327 23.2881C53.6133 26.8687 53.6133 32.6741 50.0327 36.2547L36.2583 50.029C36.5307 50.6638 36.6815 51.363 36.6815 52.0975C36.6815 54.997 34.331 57.3475 31.4315 57.3475C28.532 57.3475 26.1815 54.997 26.1815 52.0975C26.1815 49.198 28.532 46.8475 31.4315 46.8475C32.152 46.8475 32.8386 46.9927 33.4636 47.2553L47.2484 33.4704C49.2914 31.4275 49.2914 28.1153 47.2484 26.0723C45.2055 24.0294 41.8933 24.0294 39.8503 26.0723L24.5768 41.3458Z" fill="white"/>
<path d="M20.7983 11.309L35.8944 5.56689L35.8969 5.56942C36.7122 5.25896 37.5123 6.05908 37.2019 6.87433L31.4597 21.9704C31.1013 22.9194 29.7232 22.8033 29.5238 21.8063L28.1079 14.6609L20.9624 13.2449C19.9654 13.0506 19.8468 11.6699 20.7983 11.309Z" fill="white"/>
</svg>
