<svg width="221" height="63" viewBox="0 0 221 63" fill="none" xmlns="http://www.w3.org/2000/svg">
<rect x="0.5" y="0.5" width="62" height="62" rx="9.5" fill="#D20303"/>
<rect x="0.5" y="0.5" width="62" height="62" rx="9.5" stroke="#A14A4A"/>
<path d="M57 4L5 59M5 4L57 59" stroke="#A14A4A"/>
<rect width="57" height="16" transform="translate(2.5 24)" fill="#D20303"/>
<path d="M17.6018 25.8V39H16.0018V25.8H17.6018ZM32.5598 35.62C32.2798 36.3667 31.8798 37.0133 31.3598 37.56C30.8398 38.0933 30.2264 38.5 29.5198 38.78C28.8264 39.06 28.0664 39.2 27.2398 39.2C25.9864 39.2 24.8998 38.9267 23.9798 38.38C23.0731 37.82 22.3664 37.0333 21.8598 36.02C21.3664 35.0067 21.1198 33.8 21.1198 32.4C21.1198 31 21.3664 29.7933 21.8598 28.78C22.3664 27.7667 23.0731 26.9867 23.9798 26.44C24.8998 25.88 25.9731 25.6 27.1998 25.6C28.0531 25.6 28.8131 25.72 29.4798 25.96C30.1464 26.1867 30.7131 26.5333 31.1798 27C31.6598 27.4533 32.0398 28.0133 32.3198 28.68L30.7398 29.42C30.4464 28.66 30.0198 28.0867 29.4598 27.7C28.9131 27.3 28.1998 27.1 27.3198 27.1C26.4264 27.1 25.6398 27.3133 24.9598 27.74C24.2798 28.1533 23.7464 28.7533 23.3598 29.54C22.9864 30.3267 22.7998 31.28 22.7998 32.4C22.7998 33.5067 22.9798 34.46 23.3398 35.26C23.6998 36.0467 24.2131 36.6533 24.8798 37.08C25.5464 37.4933 26.3331 37.7 27.2398 37.7C28.1198 37.7 28.8864 37.48 29.5398 37.04C30.1931 36.5867 30.6664 35.9133 30.9598 35.02L32.5598 35.62ZM45.9907 25.8V39H44.0107L38.4907 30.16L37.0907 27.68H37.0707L37.1507 29.68V39H35.6307V25.8H37.6107L43.1107 34.6L44.5307 37.14H44.5507L44.4707 35.12V25.8H45.9907Z" fill="#C3C6D4"/>
<rect x="79.5" y="0.5" width="62" height="62" rx="9.5" fill="#D20303"/>
<rect x="79.5" y="0.5" width="62" height="62" rx="9.5" stroke="#A14A4A"/>
<path d="M136 4L84 59M84 4L136 59" stroke="#A14A4A"/>
<rect width="57" height="16" transform="translate(81.5 24)" fill="#D20303"/>
<path d="M96.6018 25.8V39H95.0018V25.8H96.6018ZM111.56 35.62C111.28 36.3667 110.88 37.0133 110.36 37.56C109.84 38.0933 109.226 38.5 108.52 38.78C107.826 39.06 107.066 39.2 106.24 39.2C104.986 39.2 103.9 38.9267 102.98 38.38C102.073 37.82 101.366 37.0333 100.86 36.02C100.366 35.0067 100.12 33.8 100.12 32.4C100.12 31 100.366 29.7933 100.86 28.78C101.366 27.7667 102.073 26.9867 102.98 26.44C103.9 25.88 104.973 25.6 106.2 25.6C107.053 25.6 107.813 25.72 108.48 25.96C109.146 26.1867 109.713 26.5333 110.18 27C110.66 27.4533 111.04 28.0133 111.32 28.68L109.74 29.42C109.446 28.66 109.02 28.0867 108.46 27.7C107.913 27.3 107.2 27.1 106.32 27.1C105.426 27.1 104.64 27.3133 103.96 27.74C103.28 28.1533 102.746 28.7533 102.36 29.54C101.986 30.3267 101.8 31.28 101.8 32.4C101.8 33.5067 101.98 34.46 102.34 35.26C102.7 36.0467 103.213 36.6533 103.88 37.08C104.546 37.4933 105.333 37.7 106.24 37.7C107.12 37.7 107.886 37.48 108.54 37.04C109.193 36.5867 109.666 35.9133 109.96 35.02L111.56 35.62ZM124.991 25.8V39H123.011L117.491 30.16L116.091 27.68H116.071L116.151 29.68V39H114.631V25.8H116.611L122.111 34.6L123.531 37.14H123.551L123.471 35.12V25.8H124.991Z" fill="#C3C6D4"/>
<rect x="158.5" y="0.5" width="62" height="62" rx="9.5" fill="#D20303"/>
<rect x="158.5" y="0.5" width="62" height="62" rx="9.5" stroke="#A14A4A"/>
<path d="M215 4L163 59M163 4L215 59" stroke="#A14A4A"/>
<rect width="57" height="16" transform="translate(160.5 24)" fill="#D20303"/>
<path d="M175.602 25.8V39H174.002V25.8H175.602ZM190.56 35.62C190.28 36.3667 189.88 37.0133 189.36 37.56C188.84 38.0933 188.226 38.5 187.52 38.78C186.826 39.06 186.066 39.2 185.24 39.2C183.986 39.2 182.9 38.9267 181.98 38.38C181.073 37.82 180.366 37.0333 179.86 36.02C179.366 35.0067 179.12 33.8 179.12 32.4C179.12 31 179.366 29.7933 179.86 28.78C180.366 27.7667 181.073 26.9867 181.98 26.44C182.9 25.88 183.973 25.6 185.2 25.6C186.053 25.6 186.813 25.72 187.48 25.96C188.146 26.1867 188.713 26.5333 189.18 27C189.66 27.4533 190.04 28.0133 190.32 28.68L188.74 29.42C188.446 28.66 188.02 28.0867 187.46 27.7C186.913 27.3 186.2 27.1 185.32 27.1C184.426 27.1 183.64 27.3133 182.96 27.74C182.28 28.1533 181.746 28.7533 181.36 29.54C180.986 30.3267 180.8 31.28 180.8 32.4C180.8 33.5067 180.98 34.46 181.34 35.26C181.7 36.0467 182.213 36.6533 182.88 37.08C183.546 37.4933 184.333 37.7 185.24 37.7C186.12 37.7 186.886 37.48 187.54 37.04C188.193 36.5867 188.666 35.9133 188.96 35.02L190.56 35.62ZM203.991 25.8V39H202.011L196.491 30.16L195.091 27.68H195.071L195.151 29.68V39H193.631V25.8H195.611L201.111 34.6L202.531 37.14H202.551L202.471 35.12V25.8H203.991Z" fill="#C3C6D4"/>
</svg>
