<svg width="605" height="197" viewBox="0 0 605 197" fill="none" xmlns="http://www.w3.org/2000/svg">
<g clip-path="url(#clip0_81_2756)">
<path d="M45.9195 134.458H571.507L555.524 197.01H0L45.9195 134.458Z" fill="#FF9200"/>
<path d="M143.043 149.826C138.11 147.747 134.333 146.839 130.626 146.839C119.113 146.839 110.775 154.942 110.775 166.031C110.775 173.65 116.712 184.154 130.304 184.154C135.98 184.154 139.858 182.822 143.414 180.955V175.254C139.326 177.918 134.865 179.361 130.787 179.361C122.077 179.361 116.14 173.72 116.14 165.557C116.14 157.394 122.298 151.642 130.576 151.642C134.765 151.642 138.582 152.813 143.043 155.426V149.826Z" fill="black"/>
<path fill-rule="evenodd" clip-rule="evenodd" d="M149.764 165.496C149.764 175.355 157.248 184.154 169.082 184.154C180.916 184.154 188.661 175.305 188.661 165.496C188.661 155.688 181.127 146.839 169.182 146.839C157.238 146.839 149.764 155.416 149.764 165.496ZM155.128 165.496C155.128 157.505 161.126 151.642 169.192 151.642C177.259 151.642 183.307 157.505 183.307 165.496C183.307 173.488 177.309 179.361 169.192 179.361C161.075 179.361 155.128 173.448 155.128 165.496Z" fill="black"/>
<path d="M231.176 147.323H226.293V175.466L201.781 147.323H197.643V183.67H202.525V155.678L226.725 183.67H231.176V147.323Z" fill="black"/>
<path d="M258.971 149.402C256.409 147.697 253.657 146.839 250.904 146.839C244.274 146.839 239.914 150.623 239.914 156.536C239.914 166.495 255.565 167.353 255.565 174.871C255.565 176.899 253.707 179.452 249.669 179.452C246.112 179.452 242.777 177.585 240.125 174.174V180.784C243.139 183.074 246.323 184.144 250.261 184.144C256.098 184.144 260.397 179.987 260.397 174.285C260.397 162.711 244.746 162.822 244.746 155.85C244.746 153.287 247.137 151.521 250.472 151.521C252.913 151.521 255.887 152.379 258.971 155.315V149.392V149.402Z" fill="black"/>
<path d="M294.836 147.323H264.588V152.015H277.125V183.68H282.319V152.015H294.846V147.323H294.836Z" fill="black"/>
<path fill-rule="evenodd" clip-rule="evenodd" d="M301.395 147.323V183.67H306.598V167.888H308.768C311.43 167.888 313.6 168.746 318.382 176.203L323.154 183.67H329.362C326.871 180.209 325.967 178.978 324.43 176.475C321.667 171.944 319.648 168.584 316.363 166.405C320.241 164.851 322.42 161.713 322.42 157.505C322.42 151.218 317.85 147.323 310.526 147.323H301.395ZM306.598 151.793H309.933C314.987 151.793 316.996 153.872 317.046 157.283C317.096 160.32 315.509 163.206 309.933 163.206H306.598V151.793Z" fill="black"/>
<path d="M364.795 147.323H359.601V168.483C359.601 171.894 359.169 174.558 357.321 176.425C355.673 178.08 352.81 179.361 348.822 179.361C345.688 179.361 343.096 178.342 341.026 176.273C339.379 174.629 338.846 172.913 338.846 168.806V147.333H333.643V169.926C333.643 179.845 341.076 184.164 348.721 184.164C359.49 184.164 364.795 178.302 364.795 169.402V147.333V147.323Z" fill="black"/>
<path d="M405.439 149.826C400.507 147.747 396.729 146.839 393.022 146.839C381.51 146.839 373.172 154.942 373.172 166.031C373.172 173.65 379.109 184.154 392.701 184.154C398.377 184.154 402.255 182.822 405.811 180.955V175.254C401.722 177.918 397.272 179.361 393.183 179.361C384.483 179.361 378.536 173.72 378.536 165.557C378.536 157.394 384.684 151.642 392.962 151.642C397.161 151.642 400.989 152.813 405.439 155.426V149.826Z" fill="black"/>
<path d="M440.922 147.323H410.674V152.015H423.201V183.68H428.395V152.015H440.922V147.323Z" fill="black"/>
<path d="M452.645 147.323H447.441V183.67H452.645V147.323Z" fill="black"/>
<path fill-rule="evenodd" clip-rule="evenodd" d="M461.717 165.496C461.717 175.355 469.201 184.154 481.035 184.154C492.869 184.154 500.614 175.305 500.614 165.496C500.614 155.688 493.07 146.839 481.135 146.839C469.201 146.839 461.717 155.416 461.717 165.496ZM467.071 165.496C467.071 157.505 473.069 151.642 481.135 151.642C489.202 151.642 495.25 157.505 495.25 165.496C495.25 173.488 489.252 179.361 481.135 179.361C473.018 179.361 467.071 173.448 467.071 165.496Z" fill="black"/>
<path d="M543.117 147.323H538.235V175.466L513.723 147.323H509.584V183.67H514.466V155.678L538.667 183.67H543.117V147.323Z" fill="black"/>
<path fill-rule="evenodd" clip-rule="evenodd" d="M489.904 3.87493H604.999L597.606 32.7847H524.783L520.855 47.2446H590.614L584.606 70.6953H514.868L511.061 85.135H584.214L576.831 114.085H461.655L489.904 3.87493ZM330.135 75.3471H373.383C373.383 75.6397 372.931 91.3812 396.016 91.3812C411.818 91.3812 414.139 86.4065 414.691 84.0755C415.585 79.9585 412.662 77.8899 406.735 76.4672C387.929 71.9566 362.151 63.5511 355.34 59.424C350.589 56.5482 343.526 50.2012 343.486 37.5172C343.426 20.5952 363.407 -0.292518 406.172 0.0001109C427.57 0.151471 440.7 4.41982 448.716 8.03228C465.875 15.7415 467.17 32.1086 466.759 39.0207L424.546 38.9501C424.546 38.9501 424.415 26.5688 406.805 25.8827C397.894 25.5295 388.09 27.0633 388.15 34.0359C388.21 40.0399 394.117 41.392 408.412 44.6412C411.738 45.398 434.662 50.0801 441.996 52.7844C455.236 57.6783 461.595 64.6207 459.586 79.1109C455.115 111.431 413.355 116.668 392.048 116.789C365.396 116.941 337.218 111.956 331.291 85.3167C330.567 82.0776 330.145 75.3774 330.145 75.3774L330.135 75.3471ZM278.47 78.4752L275.054 36.609L247.729 78.4752H278.47ZM307.683 3.81438L326.951 114.126H280.639L279.555 101.048H234.549L225.93 114.075H176.977L257.815 3.81438H307.683ZM189.012 80.2512C187.093 84.2874 183.908 89.6758 178.905 95.0642C168.92 105.811 151.561 116.689 121.976 116.689C85.9815 116.689 71.8169 103.813 64.7346 91.1087C59.6313 81.9666 58.466 72.5217 59.2495 64.0859C60.6861 48.8086 75.353 0.252378 139.234 0.252378C175.088 0.252378 189.192 12.008 194.587 25.0754C198.877 35.4486 197.299 51.5331 197.048 52.9256H155.077C156.423 44.8329 153.962 31.2711 139.576 31.1904C123.623 31.0894 108.494 42.9662 104.295 58.5159C99.6338 75.7406 109.248 86.3055 124.467 86.6184C140.842 86.9514 148.748 73.5913 148.979 73.2785H191.844C191.443 74.4288 189.946 78.3037 189.022 80.2512H189.012Z" fill="white"/>
</g>
<defs>
<clipPath id="clip0_81_2756">
<rect width="605" height="197" fill="white"/>
</clipPath>
</defs>
</svg>
