<svg width="63" height="63" viewBox="0 0 63 63" fill="none" xmlns="http://www.w3.org/2000/svg">
<rect x="0.5" y="0.5" width="62" height="62" rx="9.5" fill="#FF9200"/>
<rect x="0.5" y="0.5" width="62" height="62" rx="9.5" stroke="#3E425A"/>
<path d="M57 4L5 59M5 4L57 59" stroke="#3E425A"/>
<rect width="57" height="16" transform="translate(2.5 24)" fill="#FF9200"/>
<path d="M17.6018 25.8V39H16.0018V25.8H17.6018ZM32.5598 35.62C32.2798 36.3667 31.8798 37.0133 31.3598 37.56C30.8398 38.0933 30.2264 38.5 29.5198 38.78C28.8264 39.06 28.0664 39.2 27.2398 39.2C25.9864 39.2 24.8998 38.9267 23.9798 38.38C23.0731 37.82 22.3664 37.0333 21.8598 36.02C21.3664 35.0067 21.1198 33.8 21.1198 32.4C21.1198 31 21.3664 29.7933 21.8598 28.78C22.3664 27.7667 23.0731 26.9867 23.9798 26.44C24.8998 25.88 25.9731 25.6 27.1998 25.6C28.0531 25.6 28.8131 25.72 29.4798 25.96C30.1464 26.1867 30.7131 26.5333 31.1798 27C31.6598 27.4533 32.0398 28.0133 32.3198 28.68L30.7398 29.42C30.4464 28.66 30.0198 28.0867 29.4598 27.7C28.9131 27.3 28.1998 27.1 27.3198 27.1C26.4264 27.1 25.6398 27.3133 24.9598 27.74C24.2798 28.1533 23.7464 28.7533 23.3598 29.54C22.9864 30.3267 22.7998 31.28 22.7998 32.4C22.7998 33.5067 22.9798 34.46 23.3398 35.26C23.6998 36.0467 24.2131 36.6533 24.8798 37.08C25.5464 37.4933 26.3331 37.7 27.2398 37.7C28.1198 37.7 28.8864 37.48 29.5398 37.04C30.1931 36.5867 30.6664 35.9133 30.9598 35.02L32.5598 35.62ZM45.9907 25.8V39H44.0107L38.4907 30.16L37.0907 27.68H37.0707L37.1507 29.68V39H35.6307V25.8H37.6107L43.1107 34.6L44.5307 37.14H44.5507L44.4707 35.12V25.8H45.9907Z" fill="#262B3F"/>
</svg>
