<svg width="64" height="64" viewBox="0 0 64 64" fill="none" xmlns="http://www.w3.org/2000/svg">
<g clip-path="url(#clip0_40002322_8443)">
<path d="M38.4468 32.2115C38.4468 32.7131 38.4023 33.1584 38.3132 33.5475C38.2288 33.9318 38.1023 34.2576 37.9335 34.5248C37.7695 34.792 37.5656 34.9936 37.3218 35.1295C37.0781 35.2654 36.7992 35.3334 36.4851 35.3334C36.157 35.3334 35.8687 35.2654 35.6203 35.1295C35.3765 34.9936 35.1702 34.792 35.0015 34.5248C34.8374 34.2576 34.7132 33.9318 34.6288 33.5475C34.5492 33.1584 34.5093 32.7131 34.5093 32.2115V31.7826C34.5093 31.2764 34.5492 30.8311 34.6288 30.4467C34.7132 30.0576 34.8374 29.7318 35.0015 29.4693C35.1656 29.2068 35.3695 29.01 35.6132 28.8787C35.857 28.7428 36.1429 28.6748 36.471 28.6748C36.7851 28.6748 37.064 28.7428 37.3078 28.8787C37.5562 29.01 37.7648 29.2068 37.9335 29.4693C38.1023 29.7318 38.2288 30.0576 38.3132 30.4467C38.4023 30.8311 38.4468 31.2764 38.4468 31.7826V32.2115Z" fill="#C50000"/>
<path d="M47.5905 31.5646C47.3749 31.6818 47.0937 31.7404 46.7468 31.7404H45.1296V28.7873H46.7468C47.0937 28.7873 47.3749 28.8623 47.5905 29.0123C47.8062 29.1576 47.9632 29.3498 48.0616 29.5889C48.1647 29.8279 48.2163 30.0881 48.2163 30.3693C48.2163 30.6318 48.1647 30.8686 48.0616 31.0795C47.9632 31.2857 47.8062 31.4475 47.5905 31.5646Z" fill="#C50000"/>
<path fill-rule="evenodd" clip-rule="evenodd" d="M23.4288 11.305L11.306 23.4278V40.572L23.4288 52.6948H40.573L52.6958 40.572V23.4278L40.573 11.305H23.4288ZM18.725 33.9693C18.7719 34.0959 18.7953 34.2389 18.7953 34.3982C18.7953 34.5811 18.7508 34.7498 18.6617 34.9045C18.5727 35.0545 18.432 35.1764 18.2398 35.2701C18.0477 35.3592 17.7945 35.4037 17.4805 35.4037C17.1898 35.4037 16.932 35.3779 16.707 35.3264C16.482 35.2701 16.2922 35.1811 16.1375 35.0592C15.9828 34.9326 15.8656 34.7662 15.7859 34.56C15.7063 34.3537 15.6664 34.1006 15.6664 33.8006H13.1914C13.1914 34.4053 13.3133 34.9279 13.557 35.3686C13.8055 35.8045 14.1359 36.1631 14.5484 36.4443C14.9609 36.7209 15.4203 36.9272 15.9266 37.0631C16.4375 37.1943 16.9555 37.26 17.4805 37.26C18.0523 37.26 18.5703 37.1967 19.0344 37.0701C19.4984 36.9436 19.8969 36.7584 20.2297 36.5146C20.5625 36.2662 20.818 35.9639 20.9961 35.6076C21.1742 35.2514 21.2633 34.8436 21.2633 34.3842C21.2633 33.9529 21.1859 33.5662 21.0312 33.224C20.8813 32.8818 20.6586 32.5771 20.3633 32.31C20.0727 32.0381 19.7141 31.7967 19.2875 31.5857C18.8656 31.3701 18.3828 31.1756 17.8391 31.0021C17.5484 30.9084 17.2859 30.8123 17.0516 30.7139C16.8219 30.6154 16.625 30.5123 16.4609 30.4045C16.3016 30.2967 16.1773 30.1818 16.0883 30.06C16.0039 29.9334 15.9617 29.7928 15.9617 29.6381C15.9617 29.4506 16.0156 29.2795 16.1234 29.1248C16.2313 28.9654 16.3906 28.8389 16.6016 28.7451C16.8125 28.6514 17.0727 28.6045 17.382 28.6045C17.7008 28.6045 17.9656 28.6607 18.1766 28.7732C18.3875 28.8857 18.5445 29.0404 18.6477 29.2373C18.7555 29.4342 18.8094 29.6615 18.8094 29.9193H21.2633C21.2633 29.2725 21.0992 28.7123 20.7711 28.2389C20.4477 27.7607 19.9977 27.3928 19.4211 27.135C18.8492 26.8725 18.1883 26.7412 17.4383 26.7412C16.8711 26.7412 16.3484 26.8092 15.8703 26.9451C15.3922 27.0764 14.975 27.2686 14.6188 27.5217C14.2672 27.7701 13.993 28.0725 13.7961 28.4287C13.5992 28.7803 13.5008 29.1764 13.5008 29.617C13.5008 30.0764 13.5969 30.4795 13.7891 30.8264C13.9813 31.1686 14.2414 31.4686 14.5695 31.7264C14.8977 31.9795 15.2703 32.2021 15.6875 32.3943C16.1047 32.5818 16.5383 32.7506 16.9883 32.9006C17.3727 33.0271 17.682 33.149 17.9164 33.2662C18.1555 33.3787 18.3383 33.4912 18.4648 33.6037C18.5914 33.7162 18.6781 33.8381 18.725 33.9693ZM40.6195 29.6873C40.8398 30.3107 40.9499 31.0139 40.9499 31.7967V32.2115C40.9499 32.9943 40.8398 33.6975 40.6195 34.3209C40.4038 34.9396 40.0968 35.4693 39.6984 35.91C39.2999 36.3459 38.8288 36.6811 38.2851 36.9154C37.7413 37.1451 37.1413 37.26 36.4851 37.26C35.8242 37.26 35.2195 37.1451 34.671 36.9154C34.1273 36.6811 33.6538 36.3459 33.2507 35.91C32.8523 35.4693 32.5429 34.9396 32.3226 34.3209C32.107 33.6975 31.9992 32.9943 31.9992 32.2115V31.7967C31.9992 31.0139 32.107 30.3107 32.3226 29.6873C32.5429 29.0639 32.8499 28.5342 33.2437 28.0982C33.6421 27.6576 34.1132 27.3225 34.657 27.0928C35.2054 26.8584 35.8101 26.7412 36.471 26.7412C37.1273 26.7412 37.7273 26.8584 38.271 27.0928C38.8195 27.3225 39.2929 27.6576 39.6913 28.0982C40.0898 28.5342 40.3992 29.0639 40.6195 29.6873ZM46.7468 26.8818C47.5671 26.8818 48.2726 27.0318 48.8632 27.3318C49.4585 27.6318 49.9155 28.0443 50.2343 28.5693C50.553 29.0896 50.7124 29.685 50.7124 30.3553C50.7124 31.0162 50.553 31.5928 50.2343 32.085C49.9155 32.5771 49.4585 32.9615 48.8632 33.2381C48.2726 33.51 47.5671 33.6459 46.7468 33.6459H45.1296V37.1193H42.6616V26.8818H46.7468ZM27.925 37.1193V28.7873H31.0047V26.8818H22.4476V28.7873H25.457V37.1193H27.925Z" fill="#C50000"/>
<path fill-rule="evenodd" clip-rule="evenodd" d="M20.4386 6.75273C20.9387 6.25263 21.617 5.97168 22.3242 5.97168H41.6776C42.3848 5.97168 43.0631 6.25263 43.5632 6.75273L57.2481 20.4376C57.7482 20.9377 58.0291 21.616 58.0291 22.3232V41.6766C58.0291 42.3838 57.7482 43.0621 57.2481 43.5622L43.5632 57.2471C43.0631 57.7472 42.3848 58.0281 41.6776 58.0281H22.3242C21.617 58.0281 20.9387 57.7472 20.4386 57.2471L6.7537 43.5622C6.25361 43.0621 5.97266 42.3838 5.97266 41.6766V22.3232C5.97266 21.616 6.25361 20.9377 6.75371 20.4376L20.4386 6.75273ZM21.7775 9.18508C22.1275 8.83501 22.6023 8.63835 23.0974 8.63835L40.9044 8.63835C41.3994 8.63835 41.8742 8.83501 42.2243 9.18508L54.8157 21.7765C55.1658 22.1266 55.3625 22.6014 55.3625 23.0964V40.9034C55.3625 41.3985 55.1658 41.8733 54.8157 42.2233L42.2243 54.8148C41.8742 55.1648 41.3994 55.3615 40.9044 55.3615H23.0974C22.6023 55.3615 22.1275 55.1648 21.7775 54.8148L9.18606 42.2233C8.83599 41.8733 8.63932 41.3985 8.63932 40.9034L8.63932 23.0964C8.63932 22.6014 8.83599 22.1266 9.18606 21.7765L21.7775 9.18508Z" fill="#C50000"/>
<path d="M18.7927 34.3976C18.7927 34.2382 18.7693 34.0952 18.7224 33.9687C18.6755 33.8374 18.5888 33.7156 18.4622 33.6031C18.3357 33.4906 18.1529 33.3781 17.9138 33.2656C17.6794 33.1484 17.3701 33.0265 16.9857 32.8999C16.5357 32.7499 16.1021 32.5812 15.6849 32.3937C15.2677 32.2015 14.8951 31.9788 14.5669 31.7257C14.2388 31.4679 13.9786 31.1679 13.7865 30.8257C13.5943 30.4788 13.4982 30.0757 13.4982 29.6163C13.4982 29.1757 13.5966 28.7796 13.7935 28.4281C13.9904 28.0718 14.2646 27.7695 14.6161 27.521C14.9724 27.2679 15.3896 27.0757 15.8677 26.9445C16.3458 26.8085 16.8685 26.7406 17.4357 26.7406C18.1857 26.7406 18.8466 26.8718 19.4185 27.1343C19.9951 27.3921 20.4451 27.7601 20.7685 28.2382C21.0966 28.7117 21.2607 29.2718 21.2607 29.9187H18.8068C18.8068 29.6609 18.7529 29.4335 18.6451 29.2367C18.5419 29.0398 18.3849 28.8851 18.174 28.7726C17.963 28.6601 17.6982 28.6038 17.3794 28.6038C17.0701 28.6038 16.8099 28.6507 16.599 28.7445C16.388 28.8382 16.2286 28.9648 16.1208 29.1242C16.013 29.2788 15.9591 29.4499 15.9591 29.6374C15.9591 29.7921 16.0013 29.9327 16.0857 30.0593C16.1747 30.1812 16.299 30.296 16.4583 30.4038C16.6224 30.5117 16.8193 30.6148 17.049 30.7132C17.2833 30.8117 17.5458 30.9077 17.8365 31.0015C18.3802 31.1749 18.863 31.3695 19.2849 31.5851C19.7115 31.796 20.0701 32.0374 20.3607 32.3093C20.656 32.5765 20.8786 32.8812 21.0286 33.2234C21.1833 33.5656 21.2607 33.9523 21.2607 34.3835C21.2607 34.8429 21.1716 35.2507 20.9935 35.607C20.8154 35.9632 20.5599 36.2656 20.2271 36.514C19.8943 36.7577 19.4958 36.9429 19.0318 37.0695C18.5677 37.196 18.0497 37.2593 17.4779 37.2593C16.9529 37.2593 16.4349 37.1937 15.924 37.0624C15.4177 36.9265 14.9583 36.7202 14.5458 36.4437C14.1333 36.1624 13.8029 35.8038 13.5544 35.3679C13.3107 34.9273 13.1888 34.4046 13.1888 33.7999H15.6638C15.6638 34.0999 15.7036 34.3531 15.7833 34.5593C15.863 34.7656 15.9802 34.932 16.1349 35.0585C16.2896 35.1804 16.4794 35.2695 16.7044 35.3257C16.9294 35.3773 17.1872 35.4031 17.4779 35.4031C17.7919 35.4031 18.0451 35.3585 18.2372 35.2695C18.4294 35.1757 18.5701 35.0538 18.6591 34.9038C18.7482 34.7492 18.7927 34.5804 18.7927 34.3976Z" fill="white"/>
<path fill-rule="evenodd" clip-rule="evenodd" d="M40.9473 31.796C40.9473 31.0132 40.8372 30.3101 40.6169 29.6867C40.3966 29.0632 40.0872 28.5335 39.6887 28.0976C39.2903 27.657 38.8169 27.3218 38.2684 27.0921C37.7247 26.8577 37.1247 26.7406 36.4684 26.7406C35.8075 26.7406 35.2028 26.8577 34.6544 27.0921C34.1106 27.3218 33.6395 27.657 33.2411 28.0976C32.8473 28.5335 32.5403 29.0632 32.32 29.6867C32.1044 30.3101 31.9965 31.0132 31.9965 31.796V32.2109C31.9965 32.9937 32.1044 33.6968 32.32 34.3202C32.5403 34.939 32.8497 35.4687 33.2481 35.9093C33.6512 36.3452 34.1247 36.6804 34.6684 36.9148C35.2169 37.1445 35.8216 37.2593 36.4825 37.2593C37.1387 37.2593 37.7387 37.1445 38.2825 36.9148C38.8262 36.6804 39.2973 36.3452 39.6958 35.9093C40.0942 35.4687 40.4012 34.939 40.6169 34.3202C40.8372 33.6968 40.9473 32.9937 40.9473 32.2109V31.796ZM38.4442 32.2109C38.4442 32.7124 38.3997 33.1577 38.3106 33.5468C38.2262 33.9312 38.0997 34.257 37.9309 34.5242C37.7669 34.7913 37.563 34.9929 37.3192 35.1288C37.0755 35.2648 36.7966 35.3327 36.4825 35.3327C36.1544 35.3327 35.8661 35.2648 35.6176 35.1288C35.3739 34.9929 35.1676 34.7913 34.9989 34.5242C34.8348 34.257 34.7106 33.9312 34.6262 33.5468C34.5466 33.1577 34.5067 32.7124 34.5067 32.2109V31.782C34.5067 31.2757 34.5466 30.8304 34.6262 30.446C34.7106 30.057 34.8348 29.7312 34.9989 29.4687C35.163 29.2062 35.3669 29.0093 35.6106 28.8781C35.8544 28.7421 36.1403 28.6742 36.4684 28.6742C36.7825 28.6742 37.0614 28.7421 37.3051 28.8781C37.5536 29.0093 37.7622 29.2062 37.9309 29.4687C38.0997 29.7312 38.2262 30.057 38.3106 30.446C38.3997 30.8304 38.4442 31.2757 38.4442 31.782V32.2109Z" fill="white"/>
<path fill-rule="evenodd" clip-rule="evenodd" d="M48.8606 27.3312C48.27 27.0312 47.5645 26.8812 46.7442 26.8812H42.659V37.1187H45.127V33.6452H46.7442C47.5645 33.6452 48.27 33.5093 48.8606 33.2374C49.4559 32.9609 49.9129 32.5765 50.2317 32.0843C50.5504 31.5921 50.7098 31.0156 50.7098 30.3546C50.7098 29.6843 50.5504 29.089 50.2317 28.5687C49.9129 28.0437 49.4559 27.6312 48.8606 27.3312ZM47.5879 31.564C47.3723 31.6812 47.091 31.7398 46.7442 31.7398H45.127V28.7867H46.7442C47.091 28.7867 47.3723 28.8617 47.5879 29.0117C47.8035 29.157 47.9606 29.3492 48.059 29.5882C48.1621 29.8273 48.2137 30.0874 48.2137 30.3687C48.2137 30.6312 48.1621 30.8679 48.059 31.0788C47.9606 31.2851 47.8035 31.4468 47.5879 31.564Z" fill="white"/>
<path d="M27.9224 28.7867V37.1187H25.4544V28.7867H22.445V26.8812H31.0021V28.7867H27.9224Z" fill="white"/>
<path fill-rule="evenodd" clip-rule="evenodd" d="M21.7749 9.18443C22.1249 8.83436 22.5997 8.6377 23.0948 8.6377H40.9018C41.3968 8.6377 41.8716 8.83436 42.2217 9.18443L54.8131 21.7759C55.1632 22.1259 55.3599 22.6007 55.3599 23.0958V40.9027C55.3599 41.3978 55.1632 41.8726 54.8131 42.2227L42.2217 54.8141C41.8716 55.1642 41.3968 55.3608 40.9018 55.3608H23.0948C22.5997 55.3608 22.1249 55.1642 21.7749 54.8141L9.18345 42.2227C8.83338 41.8726 8.63672 41.3978 8.63672 40.9027V23.0958C8.63672 22.6007 8.83339 22.1259 9.18345 21.7759L21.7749 9.18443ZM23.4262 11.3044L11.3034 23.4272L11.3034 40.5714L23.4262 52.6942H40.5704L52.6932 40.5714V23.4272L40.5704 11.3044L23.4262 11.3044Z" fill="white"/>
</g>
<defs>
<clipPath id="clip0_40002322_8443">
<rect width="64" height="64" fill="white"/>
</clipPath>
</defs>
</svg>
