<svg width="63" height="63" viewBox="0 0 63 63" fill="none" xmlns="http://www.w3.org/2000/svg">
<path d="M28.5823 32.9884C28.5823 31.9011 29.4637 31.0197 30.551 31.0197H38.8391C39.9264 31.0197 40.8079 31.9011 40.8079 32.9884C40.8079 34.0757 39.9264 34.9572 38.8391 34.9572H30.551C29.4637 34.9572 28.5823 34.0757 28.5823 32.9884Z" fill="white"/>
<path fill-rule="evenodd" clip-rule="evenodd" d="M31.0362 15.8105C29.5864 15.8105 28.4112 16.9858 28.4112 18.4355V22.4109H22.7824C21.3327 22.4109 20.1574 23.5861 20.1574 25.0359V30.7738H19.3906L13.4392 25.2312C13.0506 24.8693 12.5392 24.668 12.008 24.668H10.0791C8.62936 24.668 7.4541 25.8433 7.4541 27.293V44.1741C7.4541 45.6239 8.62935 46.7991 10.0791 46.7991H12.008C12.5392 46.7991 13.0506 46.5979 13.4392 46.2359L19.3908 40.6931H20.1574V44.5656C20.1574 46.0153 21.3327 47.1906 22.7824 47.1906H52.9211C54.3709 47.1906 55.5461 46.0153 55.5461 44.5656V25.0359C55.5461 23.5861 54.3709 22.4109 52.9211 22.4109H47.2937V18.4355C47.2937 16.9858 46.1184 15.8105 44.6687 15.8105H31.0362ZM43.3562 22.4109V19.748H32.3487V22.4109H43.3562ZM24.0949 43.2531V26.3484H51.6086V43.2531H24.0949ZM11.3916 28.7049L17.841 34.7113H20.0766V36.7556H17.8412L11.3916 42.7623V28.7049Z" fill="white"/>
</svg>
