<svg width="64" height="64" viewBox="0 0 64 64" fill="none" xmlns="http://www.w3.org/2000/svg">
<path d="M29.0358 33.5116C29.0358 32.407 29.9312 31.5116 31.0358 31.5116H39.4555C40.56 31.5116 41.4555 32.407 41.4555 33.5116C41.4555 34.6161 40.56 35.5116 39.4555 35.5116H31.0358C29.9312 35.5116 29.0358 34.6161 29.0358 33.5116Z" fill="#191A1E"/>
<path fill-rule="evenodd" clip-rule="evenodd" d="M31.5286 16.061C30.0559 16.061 28.862 17.2549 28.862 18.7277V22.7661H23.1439C21.6711 22.7661 20.4772 23.96 20.4772 25.4328V31.2618H19.6982L13.6524 25.6313C13.2576 25.2635 12.738 25.0591 12.1985 25.0591H10.2389C8.76617 25.0591 7.57227 26.253 7.57227 27.7257V44.8748C7.57227 46.3476 8.76617 47.5415 10.2389 47.5415H12.1985C12.738 47.5415 13.2576 47.337 13.6524 46.9693L19.6984 41.3385H20.4772V45.2725C20.4772 46.7452 21.6711 47.9391 23.1439 47.9391H53.761C55.2337 47.9391 56.4277 46.7452 56.4277 45.2725V25.4328C56.4277 23.96 55.2337 22.7661 53.761 22.7661H48.0442V18.7277C48.0442 17.2549 46.8503 16.061 45.3775 16.061H31.5286ZM44.0442 22.7661V20.061H32.862V22.7661H44.0442ZM24.4772 43.9391V26.7661H52.4277V43.9391H24.4772ZM11.5723 29.16L18.1241 35.2618H20.3951V37.3385H18.1243L11.5723 43.4405V29.16Z" fill="#191A1E"/>
</svg>
