<svg width="64" height="64" viewBox="0 0 64 64" fill="none" xmlns="http://www.w3.org/2000/svg">
<path fill-rule="evenodd" clip-rule="evenodd" d="M46.3703 28.4955C46.9584 28.4967 47.438 28.9749 47.438 29.5632V33.7768L49.4875 32.5971C49.997 32.3039 50.6485 32.4791 50.9432 32.9877C51.2363 33.4972 51.0637 34.1514 50.5552 34.446L48.4667 35.6492L52.8234 38.1648V35.7533C52.8239 35.1649 53.3027 34.6886 53.8912 34.6882C54.479 34.6894 54.9558 35.1654 54.9563 35.7533V38.1908L58.6698 36.0502C59.1797 35.7571 59.8313 35.9313 60.1255 36.4408C60.418 36.9503 60.2434 37.6021 59.7349 37.8966L56.0448 40.0242L58.1125 41.2195C58.6207 41.5144 58.7963 42.1685 58.5031 42.6778C58.2089 43.1864 57.5569 43.3605 57.0474 43.0684L54.9563 41.8601V46.8861L57.0422 45.683L57.2375 45.5945C57.7077 45.4378 58.2399 45.6282 58.4979 46.0736C58.7911 46.5833 58.6163 47.2375 58.1073 47.532L56.0292 48.7273L59.7349 50.8705L59.912 50.9955C60.2815 51.3248 60.3826 51.8807 60.1255 52.3262C59.8683 52.7712 59.3374 52.9603 58.8677 52.8054L58.6698 52.7169L54.9563 50.5736V53.0007C54.9545 53.5877 54.4782 54.0647 53.8912 54.0658C53.3034 54.0655 52.8252 53.5881 52.8234 53.0007V50.5815L48.4667 53.0971L50.5604 54.3054L50.7349 54.433C51.1041 54.7621 51.2048 55.3184 50.9484 55.7637C50.6911 56.2082 50.16 56.3976 49.6906 56.2429L49.4927 56.1544L47.438 54.9669V59.2038C47.4367 59.7911 46.9576 60.2677 46.3703 60.269C45.782 60.269 45.3039 59.7918 45.3026 59.2038V54.9226L43.175 56.1544C42.6654 56.4485 42.0117 56.2726 41.7167 55.7637C41.4226 55.2537 41.5974 54.5999 42.1073 54.3054L44.1984 53.0971L39.8469 50.5841V52.9981C39.8459 53.5859 39.367 54.065 38.7792 54.0658C38.191 54.0655 37.7125 53.5861 37.7115 52.9981V50.6127L34.0682 52.7169C33.5587 53.011 32.9049 52.835 32.6099 52.3262C32.3159 51.8165 32.4913 51.1652 33.0005 50.8705L36.6698 48.7507L34.5578 47.532L34.3833 47.4044C34.0123 47.0753 33.9097 46.5199 34.1672 46.0736C34.4251 45.6284 34.9575 45.438 35.4276 45.5945L35.6255 45.683L37.7115 46.8861V41.8601L35.6203 43.0684C35.1107 43.3626 34.4569 43.1867 34.162 42.6778C33.868 42.1678 34.0427 41.5139 34.5526 41.2195L36.6516 40.0033L33.0031 37.8966C32.4931 37.6021 32.3183 36.9509 32.6125 36.4408C32.8706 35.9942 33.402 35.804 33.8729 35.9617L34.0682 36.0502L37.7115 38.1492V35.7533C37.7115 35.1644 38.1904 34.686 38.7792 34.6856C39.3676 34.6864 39.8469 35.1647 39.8469 35.7533V38.1622L44.1984 35.6492L42.1125 34.446L41.938 34.3184C41.5667 33.9894 41.4643 33.4341 41.7219 32.9877C41.98 32.5424 42.5122 32.3518 42.9823 32.5085L43.1802 32.5971L45.3026 33.821V29.5632C45.3026 28.9741 45.7812 28.4955 46.3703 28.4955ZM39.8469 40.6257V48.1179L46.3339 51.8627L52.8234 48.1179V40.6283L46.3339 36.8809L39.8469 40.6257Z" fill="#191A1E"/>
<path d="M53.5005 8.59968C54.0212 8.07899 54.8652 8.07899 55.3859 8.59968C55.9064 9.1204 55.9065 9.96449 55.3859 10.4851L10.4693 55.4018C9.94864 55.9219 9.10443 55.922 8.58386 55.4018C8.06332 54.8812 8.06361 54.0371 8.58386 53.5163L53.5005 8.59968Z" fill="#191A1E"/>
<path d="M24.4849 30.9565C24.9708 31.0561 25.3365 31.4854 25.3365 32.0007C25.3362 32.5158 24.9707 32.9455 24.4849 33.045L24.2714 33.0684H5.44844C4.85956 33.0684 4.38108 32.5895 4.38074 32.0007C4.38074 31.4116 4.85935 30.933 5.44844 30.933H24.2714L24.4849 30.9565Z" fill="#191A1E"/>
<path fill-rule="evenodd" clip-rule="evenodd" d="M20.5188 4.35228C20.6232 4.0953 20.9866 4.09563 21.0917 4.35228L23.5865 10.4564C23.6695 10.6598 23.5195 10.883 23.3 10.8835H21.813C21.7798 11.2601 21.7531 11.7145 21.7583 12.2325C21.7745 13.8384 22.0612 16.0368 23.1438 18.3992C24.4357 21.2185 24.1882 23.7927 23.6229 25.6387C23.3416 26.5569 22.9808 27.301 22.688 27.8184C22.5417 28.077 22.4099 28.2818 22.313 28.4252C22.2653 28.4958 22.2253 28.5539 22.1958 28.5945C22.1772 28.6201 22.1585 28.6455 22.1385 28.67C21.7776 29.1346 21.109 29.2177 20.6438 28.8575C20.1784 28.4966 20.093 27.8282 20.4537 27.3627C20.4855 27.3203 20.5151 27.2764 20.5448 27.2325C20.6133 27.1311 20.7153 26.9738 20.8313 26.769C21.0645 26.3568 21.3568 25.7549 21.5839 25.0137C22.0358 23.538 22.2268 21.5233 21.2037 19.2898C19.9702 16.5983 19.6441 14.0894 19.6255 12.2533C19.6204 11.7424 19.6425 11.2827 19.6724 10.8835H18.326C18.1065 10.8834 17.957 10.6599 18.0396 10.4564L20.5188 4.35228Z" fill="#191A1E"/>
<path d="M6.53178 4.35749C6.63593 4.09995 7.00238 4.09783 7.1073 4.35489L9.58646 10.4564C9.66919 10.66 9.5197 10.8835 9.30001 10.8835H7.82605C7.79278 11.2602 7.76614 11.7145 7.77136 12.2325C7.78757 13.8384 8.07426 16.0368 9.15678 18.3992C10.4487 21.2185 10.2012 23.7927 9.63594 25.6387C9.35462 26.5569 8.99379 27.301 8.70105 27.8184C8.55464 28.0771 8.42292 28.2818 8.32605 28.4252C8.26999 28.5081 8.21442 28.592 8.15157 28.67C7.79058 29.1345 7.12197 29.2176 6.65678 28.8575C6.19165 28.4966 6.10618 27.8281 6.46667 27.3627C6.46685 27.3625 6.47528 27.3515 6.4823 27.3419C6.49825 27.3199 6.52423 27.2821 6.55782 27.2325C6.62635 27.1311 6.72838 26.9737 6.84428 26.769C7.07748 26.3568 7.36983 25.7549 7.59688 25.0137C8.04878 23.5379 8.23987 21.5233 7.21667 19.2898C5.98321 16.5983 5.65708 14.0894 5.63855 12.2533C5.63342 11.7424 5.65547 11.2827 5.68542 10.8835H4.35209C4.13297 10.8834 3.98398 10.6623 4.06563 10.4591L6.53178 4.35749Z" fill="#191A1E"/>
<path d="M13.5266 4.35228C13.631 4.09552 13.9944 4.09561 14.0995 4.35228L16.5995 10.4564C16.6827 10.6599 16.5327 10.8831 16.313 10.8835H14.8182C14.785 11.2602 14.7583 11.7146 14.7635 12.2325C14.7798 13.8383 15.0666 16.037 16.149 18.3992C17.4409 21.2185 17.196 23.7927 16.6307 25.6387C16.3493 26.5573 15.9861 27.3009 15.6932 27.8184C15.5471 28.0767 15.4176 28.2819 15.3208 28.4252C15.2651 28.5077 15.2061 28.5878 15.1464 28.6674C14.7855 29.1325 14.1144 29.2178 13.649 28.8575C13.1847 28.4966 13.0991 27.8279 13.4589 27.3627C13.459 27.3625 13.4674 27.3516 13.4745 27.3419C13.4905 27.3198 13.5188 27.2825 13.5526 27.2325C13.6211 27.1312 13.7207 26.9735 13.8365 26.769C14.0696 26.3569 14.362 25.7547 14.5891 25.0137C15.0409 23.538 15.2344 21.5231 14.2115 19.2898C12.978 16.5983 12.6493 14.0894 12.6307 12.2533C12.6256 11.7424 12.6477 11.2827 12.6776 10.8835H11.3391C11.12 10.8833 10.971 10.6622 11.0526 10.4591L13.5266 4.35228Z" fill="#191A1E"/>
</svg>
