<svg width="64" height="64" viewBox="0 0 64 64" fill="none" xmlns="http://www.w3.org/2000/svg">
<path d="M37.6449 22.3836C37.6449 23.8909 36.4231 25.1128 34.9158 25.1128C33.4085 25.1128 32.1866 23.8909 32.1866 22.3836C32.1866 20.8764 33.4085 19.6545 34.9158 19.6545C36.4231 19.6545 37.6449 20.8764 37.6449 22.3836Z" fill="#191A1E"/>
<path d="M23.7074 26.4586C23.7074 26.1641 23.4687 25.9253 23.1741 25.9253H18.8241C18.5296 25.9253 18.2908 26.1641 18.2908 26.4586V32.3086C18.2908 32.6032 18.5296 32.842 18.8241 32.842H23.1741C23.4687 32.842 23.7074 32.6032 23.7074 32.3086V26.4586Z" fill="#191A1E"/>
<path d="M37.8741 28.7701V45.3119C37.8741 45.6064 37.6353 45.8452 37.3408 45.8452H36.9888C36.7261 45.8452 36.5025 45.6539 36.4619 45.3944L35.0324 36.2619H34.7991L33.3697 45.3944C33.3291 45.6539 33.1055 45.8452 32.8428 45.8452H32.4908C32.1962 45.8452 31.9574 45.6064 31.9574 45.3119V28.767L25.0095 27.3538C24.761 27.3033 24.5824 27.0848 24.5824 26.8312V26.4586C24.5824 26.1641 24.8212 25.9253 25.1158 25.9253L31.9574 25.9269L37.8204 25.9286C37.8561 25.9286 37.8917 25.9321 37.9267 25.9393L42.2359 26.8156L42.8903 25.0666C42.9792 24.8291 43.223 24.687 43.4734 24.7268L43.8414 24.7852C44.1323 24.8313 44.3307 25.1046 44.2845 25.3955L43.7931 28.4916C43.751 28.757 43.518 28.9496 43.2494 28.9411L37.8741 28.7701Z" fill="#191A1E"/>
<path fill-rule="evenodd" clip-rule="evenodd" d="M6.18144 30.1022C5.14004 31.1436 5.14004 32.832 6.18144 33.8734L30.2228 57.9148C31.2642 58.9562 32.9526 58.9562 33.994 57.9148L58.0354 33.8734C59.0768 32.832 59.0768 31.1436 58.0354 30.1022L33.994 6.06083C32.9526 5.01944 31.2642 5.01944 30.2228 6.06083L6.18144 30.1022ZM9.00987 31.9878L32.1084 55.0863L55.2069 31.9878L32.1084 8.88926L9.00987 31.9878Z" fill="#191A1E"/>
</svg>
