<svg width="63" height="63" viewBox="0 0 63 63" fill="none" xmlns="http://www.w3.org/2000/svg">
<path d="M37.0571 22.0339C37.0571 23.5176 35.8543 24.7204 34.3706 24.7204C32.8869 24.7204 31.6841 23.5176 31.6841 22.0339C31.6841 20.5501 32.8869 19.3473 34.3706 19.3473C35.8543 19.3473 37.0571 20.5501 37.0571 22.0339Z" fill="white"/>
<path d="M23.3374 26.0452C23.3374 25.7552 23.1024 25.5202 22.8124 25.5202H18.5304C18.2404 25.5202 18.0054 25.7552 18.0054 26.0452V31.8038C18.0054 32.0937 18.2404 32.3288 18.5304 32.3288H22.8124C23.1024 32.3288 23.3374 32.0937 23.3374 31.8038V26.0452Z" fill="white"/>
<path d="M37.2827 28.3205V44.6039C37.2827 44.8938 37.0477 45.1289 36.7577 45.1289H36.4112C36.1526 45.1289 35.9325 44.9405 35.8926 44.6851L34.4855 35.6953H34.2558L32.8487 44.6851C32.8087 44.9405 32.5886 45.1289 32.33 45.1289H31.9835C31.6936 45.1289 31.4585 44.8938 31.4585 44.6039V28.3175L24.6191 26.9264C24.3745 26.8766 24.1987 26.6615 24.1987 26.4119V26.0452C24.1987 25.7552 24.4338 25.5202 24.7237 25.5202L31.4585 25.5218L37.2299 25.5234C37.265 25.5234 37.3001 25.5269 37.3345 25.5339L41.5763 26.3965L42.2206 24.6749C42.308 24.4411 42.548 24.3013 42.7946 24.3404L43.1568 24.3979C43.4431 24.4433 43.6384 24.7123 43.593 24.9987L43.1092 28.0464C43.0678 28.3077 42.8384 28.4973 42.574 28.4889L37.2827 28.3205Z" fill="white"/>
<path fill-rule="evenodd" clip-rule="evenodd" d="M6.08525 29.6318C5.06012 30.6569 5.06012 32.319 6.08525 33.3441L29.751 57.0098C30.7761 58.035 32.4381 58.035 33.4633 57.0098L57.129 33.3441C58.1541 32.319 58.1541 30.6569 57.129 29.6318L33.4633 5.96611C32.4381 4.94098 30.7761 4.94098 29.751 5.96611L6.08525 29.6318ZM8.86948 31.488L31.6071 54.2256L54.3447 31.488L31.6071 8.75034L8.86948 31.488Z" fill="white"/>
</svg>
