<svg width="64" height="64" viewBox="0 0 64 64" fill="none" xmlns="http://www.w3.org/2000/svg">
<path fill-rule="evenodd" clip-rule="evenodd" d="M54.6065 8.99248C55.1073 9.37043 55.4017 9.96148 55.4017 10.5889V27.7289H55.397C55.3063 30.557 52.8258 32.7466 50.1133 33.2778C47.0399 33.8798 43.4389 32.3978 42.7776 29.021C42.1162 25.6442 44.8919 22.9132 47.9654 22.3112C49.097 22.0896 50.3001 22.1504 51.4017 22.4844V13.239L40.9793 16.2113V30.361C41.2091 33.4464 38.589 35.8827 35.7071 36.4472C32.6337 37.0492 29.0327 35.5671 28.3714 32.1903C27.71 28.8136 30.4857 26.0826 33.5592 25.4806C34.6853 25.26 35.8821 25.3192 36.9793 25.6489V14.7019C36.9793 13.8086 37.5718 13.0236 38.4308 12.7786L52.8532 8.66557C53.4566 8.4935 54.1057 8.61454 54.6065 8.99248ZM36.9793 30.7319V30.5758C36.9771 30.5515 36.9738 30.5283 36.9695 30.5063C36.8693 29.9943 36.0032 29.0779 34.328 29.406C32.6528 29.7341 32.1965 30.9095 32.2968 31.4215C32.397 31.9335 33.2631 32.8499 34.9383 32.5218C36.3994 32.2356 36.9333 31.3048 36.9793 30.7319ZM46.703 28.2521C46.6027 27.7402 47.059 26.5647 48.7342 26.2366C50.4094 25.9085 51.2755 26.8249 51.3757 27.3369C51.476 27.8489 51.0197 29.0243 49.3445 29.3524C47.6693 29.6805 46.8032 28.7641 46.703 28.2521Z" fill="white"/>
<path fill-rule="evenodd" clip-rule="evenodd" d="M36.3357 40.422C34.1053 38.9128 31.0902 39.4796 29.5481 41.6549C28.6776 41.0625 27.7343 40.387 27.155 39.8847L27.1348 39.8677C26.0894 38.9852 25.0438 37.9398 24.1447 36.8772L24.1389 36.8705C23.472 36.0893 22.8663 35.2853 22.3242 34.4828C24.5358 32.943 25.0938 29.9053 23.5929 27.6724L19.2047 21.1599C17.7165 18.9504 14.5263 18.7925 12.8219 20.8327C11.763 22.0988 10.8075 23.379 9.99222 24.6411C8.59003 26.816 8.23059 29.4764 8.98038 31.9441C9.60612 34.0035 10.5033 36.0844 11.6497 38.1201C13.2264 40.9298 15.3009 43.6844 17.8151 46.1987C20.3275 48.7111 23.0666 50.7783 25.8847 52.3558C27.9244 53.512 30.0001 54.4016 32.0477 55.0261C34.5092 55.774 37.1799 55.4277 39.3621 54.0117C40.7152 53.1347 41.9636 52.1834 43.1691 51.201L43.1923 51.1814C45.2096 49.4857 45.0806 46.3158 42.8732 44.8196L36.3384 40.4238L36.3357 40.422ZM13.3536 26.8093C14.0671 25.7049 14.9206 24.5583 15.8901 23.399L20.2748 29.9063C20.5664 30.3408 20.4468 30.9259 20.0248 31.2096L18.4857 32.2479C17.6142 32.8359 17.3467 33.9982 17.8734 34.908C18.7442 36.412 19.8195 37.9712 21.094 39.4644C22.132 40.6907 23.3308 41.8902 24.5449 42.916C25.3333 43.598 26.4766 44.4046 27.364 45.0069C27.822 45.3177 28.2347 45.5895 28.5329 45.7836C28.6959 45.8896 28.8593 45.9947 29.0232 46.0993C29.3433 46.302 29.7144 46.4096 30.0933 46.4096H30.1006C30.7654 46.4096 31.3868 46.0793 31.7586 45.5282L32.7969 43.9891C33.0856 43.5597 33.6698 43.4474 34.0946 43.7352L34.1002 43.739L40.6155 48.1216C39.4845 49.0425 38.3655 49.8909 37.1853 50.6558C36.0162 51.4147 34.5715 51.6121 33.2115 51.1992C31.4536 50.6629 29.6483 49.8916 27.853 48.8736L27.8431 48.868C25.356 47.4764 22.9075 45.6342 20.6436 43.3703C18.3805 41.1072 16.5301 38.6436 15.1373 36.1614L15.1358 36.1586C14.1215 34.3578 13.3431 32.5436 12.8076 30.7812C12.3961 29.4269 12.5952 27.9861 13.3536 26.8093ZM25.8847 52.3558L25.8799 52.3531L25.8898 52.3587L25.8847 52.3558ZM40.6241 48.1224L40.6222 48.1161L40.6293 48.13L40.6241 48.1224Z" fill="white"/>
</svg>
