<svg width="64" height="64" viewBox="0 0 64 64" fill="none" xmlns="http://www.w3.org/2000/svg">
<path fill-rule="evenodd" clip-rule="evenodd" d="M54.6065 8.99199C55.1073 9.36994 55.4017 9.96099 55.4017 10.5884V27.7284H55.397C55.3063 30.5566 52.8258 32.7461 50.1133 33.2773C47.0399 33.8793 43.4389 32.3973 42.7776 29.0205C42.1162 25.6437 44.8919 22.9127 47.9654 22.3107C49.097 22.0891 50.3001 22.15 51.4017 22.4839V13.2385L40.9793 16.2108V30.3605C41.2091 33.4459 38.589 35.8822 35.7071 36.4467C32.6337 37.0487 29.0327 35.5666 28.3714 32.1898C27.71 28.8131 30.4857 26.0821 33.5592 25.4801C34.6853 25.2595 35.8821 25.3187 36.9793 25.6484V14.7015C36.9793 13.8081 37.5718 13.0231 38.4308 12.7781L52.8532 8.66508C53.4566 8.49301 54.1057 8.61405 54.6065 8.99199ZM36.9793 30.7314V30.5753C36.9771 30.551 36.9738 30.5278 36.9695 30.5058C36.8693 29.9938 36.0032 29.0774 34.328 29.4055C32.6528 29.7336 32.1965 30.909 32.2968 31.421C32.397 31.933 33.2631 32.8494 34.9383 32.5213C36.3994 32.2351 36.9333 31.3044 36.9793 30.7314ZM46.703 28.2516C46.6027 27.7397 47.059 26.5642 48.7342 26.2361C50.4094 25.908 51.2755 26.8244 51.3757 27.3364C51.476 27.8484 51.0197 29.0238 49.3445 29.3519C47.6693 29.68 46.8032 28.7636 46.703 28.2516Z" fill="#191A1E"/>
<path fill-rule="evenodd" clip-rule="evenodd" d="M36.3357 40.4215C34.1053 38.9123 31.0902 39.4791 29.5481 41.6544C28.6776 41.062 27.7343 40.3865 27.155 39.8842L27.1348 39.8672C26.0894 38.9847 25.0438 37.9393 24.1447 36.8767L24.1389 36.87C23.472 36.0888 22.8663 35.2848 22.3242 34.4823C24.5358 32.9426 25.0938 29.9049 23.5929 27.6719L19.2047 21.1594C17.7165 18.9499 14.5263 18.792 12.8219 20.8322C11.763 22.0983 10.8075 23.3785 9.99222 24.6406C8.59003 26.8155 8.23059 29.4759 8.98038 31.9436C9.60612 34.003 10.5033 36.084 11.6497 38.1197C13.2264 40.9293 15.3009 43.6839 17.8151 46.1982C20.3275 48.7106 23.0666 50.7778 25.8847 52.3554C27.9244 53.5115 30.0001 54.4011 32.0477 55.0256C34.5092 55.7736 37.1799 55.4272 39.3621 54.0112C40.7152 53.1342 41.9636 52.1829 43.1691 51.2005L43.1923 51.181C45.2096 49.4852 45.0806 46.3154 42.8732 44.8191L36.3384 40.4234L36.3357 40.4215ZM13.3536 26.8088C14.0671 25.7044 14.9206 24.5578 15.8901 23.3985L20.2748 29.9058C20.5664 30.3403 20.4468 30.9254 20.0248 31.2091L18.4857 32.2474C17.6142 32.8354 17.3467 33.9977 17.8734 34.9075C18.7442 36.4115 19.8195 37.9707 21.094 39.4639C22.132 40.6902 23.3308 41.8897 24.5449 42.9155C25.3333 43.5975 26.4766 44.4041 27.364 45.0064C27.822 45.3173 28.2347 45.589 28.5329 45.7831C28.6959 45.8891 28.8593 45.9942 29.0232 46.0988C29.3433 46.3015 29.7144 46.4091 30.0933 46.4091H30.1006C30.7654 46.4091 31.3868 46.0788 31.7586 45.5277L32.7969 43.9886C33.0856 43.5592 33.6698 43.4469 34.0946 43.7348L34.1002 43.7385L40.6155 48.1211C39.4845 49.042 38.3655 49.8904 37.1853 50.6553C36.0162 51.4142 34.5715 51.6116 33.2115 51.1987C31.4536 50.6624 29.6483 49.8912 27.853 48.8731L27.8431 48.8675C25.356 47.4759 22.9075 45.6337 20.6436 43.3698C18.3805 41.1067 16.5301 38.6431 15.1373 36.1609L15.1358 36.1581C14.1215 34.3573 13.3431 32.5431 12.8076 30.7807C12.3961 29.4264 12.5952 27.9856 13.3536 26.8088ZM25.8847 52.3554L25.8799 52.3526L25.8898 52.3582L25.8847 52.3554ZM40.6241 48.1219L40.6222 48.1156L40.6293 48.1295L40.6241 48.1219Z" fill="#191A1E"/>
</svg>
