<svg width="63" height="63" viewBox="0 0 63 63" fill="none" xmlns="http://www.w3.org/2000/svg">
<path d="M13.5956 33.1273H15.9602C17.0476 33.1273 17.929 34.0088 17.929 35.0961C17.929 36.1834 17.0476 37.0648 15.9602 37.0648H13.5955C13.9755 40.5635 15.3566 43.7589 17.4479 46.3633L19.1183 44.6928C19.8872 43.924 21.1337 43.924 21.9025 44.6928C22.6714 45.4617 22.6714 46.7082 21.9025 47.477L18.7302 50.6502C17.9605 51.4182 16.714 51.4169 15.946 50.6472C15.4486 50.1487 15.0078 49.5986 14.5618 49.0547C11.4328 45.2619 9.55176 40.396 9.55176 35.0959C9.55176 22.9741 19.3784 13.1475 31.5002 13.1475C43.6221 13.1475 53.4487 22.9741 53.4487 35.0959C53.4487 40.396 51.5677 45.2618 48.4387 49.0547C48.0338 49.5456 47.5562 50.1151 47.0371 50.6353C46.269 51.405 45.0225 51.4063 44.2528 50.6383C43.1991 49.587 42.1502 48.5303 41.0976 47.4777C40.3288 46.7088 40.3288 45.4623 41.0976 44.6935C41.8664 43.9246 43.113 43.9246 43.8818 44.6935L45.5522 46.3638C47.6436 43.7593 49.025 40.5637 49.405 37.0648H47.0402C45.9529 37.0648 45.0715 36.1834 45.0715 35.0961C45.0715 34.0088 45.9529 33.1273 47.0402 33.1273H49.4049C49.0246 29.6292 47.6427 26.4317 45.5518 23.8278L43.8794 25.5002C43.1106 26.269 41.864 26.269 41.0952 25.5002C40.3263 24.7313 40.3263 23.4848 41.0952 22.7159L42.7675 21.0436C40.1638 18.9532 36.9667 17.5716 33.469 17.1913V19.5579C33.469 20.6452 32.5876 21.5266 31.5002 21.5266C30.4129 21.5266 29.5315 20.6452 29.5315 19.5579V17.1913C26.0335 17.5716 22.8363 18.9534 20.2324 21.0441L29.9564 30.7681C30.4389 30.5959 30.9586 30.5022 31.5002 30.5022C34.0373 30.5022 36.094 32.5589 36.094 35.0959C36.094 37.633 34.0373 39.6897 31.5002 39.6897C28.9632 39.6897 26.9065 37.633 26.9065 35.0959C26.9065 34.5544 27.0002 34.0348 27.1723 33.5524L17.4482 23.8283C15.3576 26.4322 13.9759 29.6294 13.5956 33.1273Z" fill="#0E101A"/>
</svg>
