<svg width="64" height="64" viewBox="0 0 64 64" fill="none" xmlns="http://www.w3.org/2000/svg">
<path d="M13.8112 33.653H16.2133C17.3179 33.653 18.2133 34.5484 18.2133 35.653C18.2133 36.7576 17.3179 37.653 16.2133 37.653H13.8111C14.1971 41.2071 15.6002 44.4533 17.7246 47.099L19.4215 45.402C20.2026 44.621 21.4689 44.621 22.25 45.402C23.031 46.1831 23.031 47.4494 22.25 48.2305L19.0273 51.454C18.2454 52.2342 16.979 52.2328 16.1988 51.4509C15.6935 50.9445 15.2457 50.3857 14.7926 49.8332C11.614 45.9801 9.70312 41.037 9.70312 35.6528C9.70312 23.3386 19.6858 13.356 32 13.356C44.3142 13.356 54.2969 23.3386 54.2969 35.6528C54.2969 41.037 52.386 45.9801 49.2074 49.8332C48.796 50.3319 48.3108 50.9104 47.7834 51.4389C47.0032 52.2207 45.7369 52.2221 44.955 51.4419C43.8846 50.3739 42.819 49.3004 41.7497 48.2311C40.9686 47.4501 40.9686 46.1837 41.7497 45.4027C42.5307 44.6216 43.7971 44.6216 44.5781 45.4027L46.275 47.0995C48.3997 44.4537 49.8029 41.2074 50.1889 37.653H47.7867C46.6821 37.653 45.7867 36.7576 45.7867 35.653C45.7867 34.5484 46.6821 33.653 47.7867 33.653H50.1888C49.8025 30.0993 48.3986 26.8511 46.2746 24.2058L44.5757 25.9047C43.7946 26.6858 42.5283 26.6858 41.7472 25.9047C40.9662 25.1237 40.9662 23.8574 41.7472 23.0763L43.4461 21.3775C40.801 19.2539 37.5532 17.8503 34 17.464V19.8681C34 20.9727 33.1046 21.8681 32 21.8681C30.8954 21.8681 30 20.9727 30 19.8681V17.464C26.4465 17.8503 23.1985 19.2541 20.5533 21.3779L30.4317 31.2562C30.9218 31.0814 31.4498 30.9862 32 30.9862C34.5773 30.9862 36.6667 33.0755 36.6667 35.6528C36.6667 38.2302 34.5773 40.3195 32 40.3195C29.4227 40.3195 27.3333 38.2302 27.3333 35.6528C27.3333 35.1027 27.4285 34.5748 27.6033 34.0847L17.7249 24.2063C15.6012 26.8515 14.1974 30.0995 13.8112 33.653Z" fill="white"/>
</svg>
