<svg width="64" height="64" viewBox="0 0 64 64" fill="none" xmlns="http://www.w3.org/2000/svg">
<path d="M24.9669 42.0017C21.3294 45.6392 15.432 45.6392 11.7945 42.0017C8.15704 38.3643 8.15704 32.4668 11.7945 28.8293L23.6281 16.9958C23.8088 16.815 24.0645 16.732 24.3158 16.7708L25.7932 17.0636C26.095 17.1368 26.3284 17.3788 26.3892 17.6855L26.671 19.1076C26.7229 19.3695 26.6407 19.64 26.4519 19.8288L14.6229 31.6578C12.5476 33.7331 12.5476 37.0979 14.6229 39.1733C16.6983 41.2487 20.0631 41.2487 22.1385 39.1733L37.6544 23.6574C41.2919 20.0199 47.1893 20.0199 50.8268 23.6574C54.4642 27.2948 54.4642 33.1923 50.8268 36.8297L36.8338 50.8227C37.1105 51.4676 37.2637 52.1779 37.2637 52.9241C37.2637 55.8696 34.8759 58.2574 31.9304 58.2574C28.9849 58.2574 26.597 55.8696 26.597 52.9241C26.597 49.9785 28.9849 47.5907 31.9304 47.5907C32.6623 47.5907 33.3598 47.7382 33.9947 48.005L47.9984 34.0013C50.0737 31.926 50.0737 28.5611 47.9984 26.4858C45.923 24.4104 42.5582 24.4104 40.4828 26.4858L24.9669 42.0017Z" fill="#191A1E"/>
<path d="M21.1284 11.4881L36.4641 5.65485L36.4667 5.65742C37.2949 5.34204 38.1077 6.15485 37.7923 6.98304L31.959 22.3187C31.5949 23.2828 30.195 23.1649 29.9924 22.1521L28.554 14.8932L21.2951 13.4548C20.2823 13.2573 20.1618 11.8548 21.1284 11.4881Z" fill="#191A1E"/>
</svg>
