<svg width="56" height="59" viewBox="0 0 56 59" fill="none" xmlns="http://www.w3.org/2000/svg">
<path fill-rule="evenodd" clip-rule="evenodd" d="M39.5436 2.625C39.5436 1.17525 38.3684 0 36.9186 0H18.3738C16.924 0 15.7488 1.17525 15.7488 2.625V9.83984C12.1722 13.0813 9.92578 17.7638 9.92578 22.9709C9.92578 32.7555 17.8578 40.6875 27.6424 40.6875C37.427 40.6875 45.359 32.7555 45.359 22.9709C45.359 17.7675 43.1158 13.0881 39.5436 9.84683V2.625ZM18.393 12.7574L19.6863 11.5853V3.9375H35.6061V11.5909L36.8977 12.7628C39.682 15.2892 41.4215 18.9242 41.4215 22.9709C41.4215 30.5809 35.2523 36.75 27.6424 36.75C20.0324 36.75 13.8633 30.5809 13.8633 22.9709C13.8633 18.9213 15.6052 15.284 18.393 12.7574Z" fill="#D9DBE5"/>
<path d="M42.8236 46.5784V57.6731H39.8602V46.5784H42.8236Z" fill="#D9DBE5"/>
<path d="M39.6756 43.6868C39.6756 43.2561 39.826 42.9006 40.1268 42.6204C40.4276 42.3401 40.8309 42.2 41.3368 42.2C41.8358 42.2 42.2357 42.3401 42.5365 42.6204C42.8441 42.9006 42.9979 43.2561 42.9979 43.6868C42.9979 44.1174 42.8441 44.4729 42.5365 44.7532C42.2357 45.0334 41.8358 45.1736 41.3368 45.1736C40.8309 45.1736 40.4276 45.0334 40.1268 44.7532C39.826 44.4729 39.6756 44.1174 39.6756 43.6868Z" fill="#D9DBE5"/>
<path d="M18.8409 42.7434L13.3654 58.9548H11.171L16.6466 42.7434H18.8409Z" fill="#D9DBE5"/>
<path d="M2.93262 47.8293C2.91214 47.8542 2.8919 47.8794 2.87191 47.9048L2.76855 46.5784H0V57.6731H2.95312V49.8027C2.99463 49.7262 3.03907 49.6529 3.08643 49.5828C3.27783 49.3025 3.51709 49.0837 3.8042 48.9265C4.09814 48.7693 4.44336 48.6907 4.83984 48.6907C5.22266 48.6907 5.54395 48.7488 5.80371 48.865C6.07031 48.9744 6.27197 49.1658 6.40869 49.4392C6.54541 49.7126 6.61377 50.0955 6.61377 50.5876V57.6731H9.5874V50.5979C9.5874 49.8186 9.50195 49.1589 9.33105 48.6189C9.16699 48.0789 8.92773 47.6448 8.61328 47.3167C8.30566 46.9885 7.93652 46.7493 7.50586 46.5989C7.0752 46.4485 6.6001 46.3733 6.08057 46.3733C5.42432 46.3733 4.82959 46.4998 4.29639 46.7527C3.77002 46.9988 3.31543 47.3577 2.93262 47.8293Z" fill="#D9DBE5"/>
<path d="M23.8391 49.804V57.6731H20.8757V46.5784H23.6545L23.7566 47.8487C24.1183 47.3886 24.5594 47.0301 25.0798 46.7732C25.6199 46.5066 26.2454 46.3733 26.9563 46.3733C27.4485 46.3733 27.8996 46.4485 28.3098 46.5989C28.72 46.7424 29.072 46.9714 29.366 47.2859C29.5789 47.5036 29.7575 47.7693 29.9019 48.083C29.9504 48.0105 30.0008 47.9396 30.053 47.8704C30.4153 47.3987 30.863 47.033 31.3962 46.7732C31.9294 46.5066 32.5447 46.3733 33.2419 46.3733C33.7751 46.3733 34.2605 46.4519 34.698 46.6091C35.1355 46.7595 35.508 47.0022 35.8157 47.3372C36.1301 47.6653 36.3694 48.0959 36.5334 48.6292C36.7043 49.1624 36.7898 49.8152 36.7898 50.5876V57.6731H33.8264V50.5876C33.8264 50.075 33.758 49.6853 33.6213 49.4187C33.4914 49.1453 33.3 48.9573 33.0471 48.8547C32.801 48.7454 32.5071 48.6907 32.1653 48.6907C31.8098 48.6907 31.4988 48.7625 31.2322 48.906C30.9656 49.0427 30.7434 49.2341 30.5657 49.4802C30.4634 49.6218 30.3759 49.777 30.303 49.9458C30.3072 50.0512 30.3093 50.1592 30.3093 50.2698V57.6731H27.3562V50.5979C27.3562 50.092 27.2878 49.7024 27.1511 49.429C27.0144 49.1555 26.8196 48.9641 26.5666 48.8547C26.3205 48.7454 26.0232 48.6907 25.6745 48.6907C25.2917 48.6907 24.9568 48.7693 24.6697 48.9265C24.3894 49.0837 24.157 49.3025 23.9724 49.5828C23.9248 49.6533 23.8803 49.727 23.8391 49.804Z" fill="#D9DBE5"/>
<path d="M48.7856 49.8027V57.6731H45.8325V46.5784H48.6011L48.7044 47.9048C48.7244 47.8794 48.7446 47.8542 48.7651 47.8293C49.1479 47.3577 49.6025 46.9988 50.1289 46.7527C50.6621 46.4998 51.2568 46.3733 51.9131 46.3733C52.4326 46.3733 52.9077 46.4485 53.3384 46.5989C53.769 46.7493 54.1382 46.9885 54.4458 47.3167C54.7602 47.6448 54.9995 48.0789 55.1636 48.6189C55.3344 49.1589 55.4199 49.8186 55.4199 50.5979V57.6731H52.4463V50.5876C52.4463 50.0955 52.3779 49.7126 52.2412 49.4392C52.1045 49.1658 51.9028 48.9744 51.6362 48.865C51.3764 48.7488 51.0552 48.6907 50.6723 48.6907C50.2759 48.6907 49.9306 48.7693 49.6367 48.9265C49.3496 49.0837 49.1103 49.3025 48.9189 49.5828C48.8716 49.6529 48.8271 49.7262 48.7856 49.8027Z" fill="#D9DBE5"/>
</svg>
