<svg width="59" height="48" viewBox="0 0 59 48" fill="none" xmlns="http://www.w3.org/2000/svg">
<path fill-rule="evenodd" clip-rule="evenodd" d="M12.138 0C12.9624 0 13.6322 0.667969 13.6328 1.49219V46.1797C13.6324 47.0041 12.9625 47.6719 12.138 47.6719C11.314 47.6713 10.6462 47.0037 10.6458 46.1797V25.6771L1.60938 31.0234C0.898701 31.4437 0.000845981 30.9322 0 30.1068V13.4818C0.00033716 12.6577 0.668177 11.9902 1.49219 11.9896C2.31672 11.9896 2.98664 12.6573 2.98698 13.4818V17.4167L10.6458 21.9479V1.49219C10.6465 0.668351 11.3142 0.000618543 12.138 0ZM2.98698 26.7396L7.93229 23.8125L2.98698 20.888V26.7396Z" fill="white"/>
<path d="M50.724 38C51.5045 37.999 52.153 38.5994 52.2135 39.3776C52.3057 40.5655 52.7575 41.5043 53.5078 42.1771C54.2695 42.8593 55.4697 43.383 57.2474 43.4844C58.0708 43.5312 58.7005 44.2365 58.6536 45.0599C58.6062 45.8827 57.9011 46.5129 57.0781 46.4661C54.7981 46.3362 52.8956 45.6401 51.513 44.401C51.1988 44.1193 50.9176 43.8128 50.6693 43.4896C49.1461 45.3673 46.696 46.4844 44.1589 46.4844C41.5825 46.484 39.1066 45.3378 37.5911 43.4193C36.0729 45.3379 33.5949 46.4842 31.026 46.4844C28.4834 46.484 26.0363 45.3698 24.5156 43.4948C24.2682 43.8165 23.9878 44.1203 23.6745 44.401C22.2899 45.641 20.382 46.3366 18.0885 46.4661C17.2657 46.5119 16.5595 45.8803 16.513 45.0573C16.4672 44.2349 17.097 43.5317 17.9193 43.4844C19.7149 43.383 20.9188 42.8578 21.6797 42.1771C22.429 41.5059 22.8764 40.5682 22.9688 39.3776C23.0292 38.5996 23.6807 37.9994 24.4609 38C25.2418 38.0014 25.8901 38.6041 25.9479 39.3828C26.1143 41.6326 28.2509 43.4969 31.026 43.4974C33.7915 43.4971 35.9378 41.6255 36.1042 39.3828C36.162 38.6039 36.8103 38.0012 37.5911 38C38.373 38 39.0228 38.6031 39.0807 39.3828C39.2471 41.6267 41.3847 43.4968 44.1589 43.4974C46.9255 43.4974 49.0705 41.6315 49.237 39.3828C49.2947 38.6046 49.9437 38.002 50.724 38Z" fill="white"/>
<path d="M45.2083 6.46875C48.6332 6.80337 51.4119 9.31535 52.1615 12.6016C55.8609 13.2783 58.6661 16.5092 58.6667 20.4036C58.6666 24.2992 55.8596 27.5298 52.1589 28.2057C51.3535 31.7395 48.2017 34.3776 44.4245 34.3776C43.6006 34.3769 42.9327 33.7094 42.9323 32.8854C42.9323 32.0611 43.6003 31.3913 44.4245 31.3906C47.0532 31.3906 49.205 29.3437 49.3698 26.7578L49.4557 25.3854L50.8281 25.3594C53.5163 25.3042 55.6796 23.1051 55.6797 20.4036C55.6791 17.7032 53.5178 15.5065 50.8307 15.4505L49.4583 15.4219L49.3724 14.0521C49.2184 11.6277 47.3169 9.67755 44.9141 9.44271L44.4271 9.41667L44.125 9.38802C43.4453 9.24824 42.9324 8.64554 42.9323 7.92448C42.9323 7.10014 43.6029 6.43295 44.4271 6.43229L45.2083 6.46875Z" fill="white"/>
<path d="M41.0625 25.0547L41.3594 25.112C42.0242 25.3133 42.4779 25.9611 42.4115 26.6797C42.3443 27.397 41.7805 27.9496 41.0911 28.026L40.7865 28.0286L17.8698 25.9089L17.5729 25.8516C16.9098 25.6494 16.4549 25.0012 16.5208 24.2839C16.597 23.4638 17.3259 22.8605 18.1458 22.9349L41.0625 25.0547Z" fill="white"/>
<path d="M21.1094 14.5964C21.2156 15.6625 21.5843 16.6512 22.1406 17.5026L18.1458 17.8724C17.3261 17.9468 16.5974 17.3431 16.5208 16.5234C16.445 15.7033 17.0502 14.976 17.8698 14.8984L21.1094 14.5964Z" fill="white"/>
<path d="M26.9401 9.04167C27.2778 8.58654 27.9539 8.58657 28.2917 9.04167L30.5208 12.0156C30.8919 12.5726 31.112 13.2314 31.112 13.9401C31.1115 15.8646 29.5575 17.419 27.6328 17.4193H27.599C25.6746 17.4186 24.1202 15.8644 24.1198 13.9401C24.1198 13.2315 24.34 12.5726 24.7109 12.0156L26.9401 9.04167Z" fill="white"/>
<path d="M40.7865 12.7786C41.6075 12.7027 42.3352 13.3067 42.4115 14.1276C42.4872 14.9487 41.8836 15.6767 41.0625 15.7526L33.651 16.4375C33.9701 15.6682 34.151 14.8258 34.151 13.9401C34.151 13.7556 34.1403 13.5733 34.125 13.3932L40.7865 12.7786Z" fill="white"/>
<path d="M33.8984 1.51042C34.236 1.05594 34.9095 1.05631 35.2474 1.51042L37.4766 4.48438C37.848 5.04155 38.0677 5.69977 38.0677 6.40885C38.0673 8.3331 36.5155 9.88736 34.5911 9.88802H34.5573C32.633 9.88737 31.0786 8.3331 31.0781 6.40885C31.0781 5.70011 31.2982 5.04138 31.6693 4.48438L33.8984 1.51042Z" fill="white"/>
</svg>
