<svg width="47" height="50" viewBox="0 0 47 50" fill="none" xmlns="http://www.w3.org/2000/svg">
<path d="M16.1133 13.7845C16.1133 15.8624 14.4364 17.5393 12.3584 17.5393H12.322C10.2441 17.5393 8.56714 15.8624 8.56714 13.7845C8.56714 13.0189 8.80409 12.3081 9.2051 11.7066L11.6111 8.49853C11.9757 8.00639 12.7048 8.00639 13.0693 8.49853L15.4753 11.7066C15.8763 12.3081 16.1133 13.0189 16.1133 13.7845Z" fill="#D9DBE5"/>
<path d="M23.623 5.65505C23.623 7.73298 21.9461 9.4099 19.8681 9.4099H19.8317C17.7538 9.4099 16.0768 7.73298 16.0768 5.65505C16.0768 4.8895 16.3138 4.17863 16.7148 3.57713L19.1208 0.369105C19.4854 -0.123035 20.2145 -0.123035 20.579 0.369105L22.985 3.57713C23.386 4.17863 23.623 4.8895 23.623 5.65505Z" fill="#D9DBE5"/>
<path d="M30.5895 5.32434C29.5021 5.32434 28.6207 6.20578 28.6207 7.29309C28.6207 8.3804 29.5021 9.26184 30.5895 9.26184C33.2377 9.26184 35.4055 11.3253 35.5707 13.9307L35.6852 15.7367L37.4945 15.7744C40.2014 15.8307 42.3792 18.0436 42.3792 20.7647C42.3792 23.4862 40.2006 25.6994 37.493 25.755L35.6833 25.7921L35.5686 27.5986C35.4032 30.2039 33.2355 32.2671 30.5874 32.2671C29.5001 32.2671 28.6187 33.1486 28.6187 34.2359C28.6187 35.3232 29.5001 36.2046 30.5874 36.2046C34.7503 36.2046 38.2468 33.3567 39.2363 29.5019C43.2809 28.6504 46.3167 25.0622 46.3167 20.7647C46.3167 16.4679 43.282 12.8803 39.2385 12.0279C38.2494 8.17272 34.7526 5.32434 30.5895 5.32434Z" fill="#D9DBE5"/>
<path d="M10.9557 41.2242C10.8797 40.1974 10.0254 39.4025 8.9958 39.4006C7.96616 39.3988 7.10901 40.1906 7.02941 41.2172C6.93587 42.4236 6.48703 43.3439 5.75554 43.9992C5.0089 44.6681 3.79455 45.2138 1.91425 45.32C0.828664 45.3812 -0.0016975 46.3109 0.0595814 47.3965C0.12086 48.4821 1.05058 49.3125 2.13616 49.2512C4.6718 49.1081 6.81365 48.3378 8.3829 46.9319C8.62597 46.7142 8.8512 46.4848 9.05894 46.245C10.7847 48.1565 13.3942 49.2721 16.0802 49.2721C18.7953 49.2721 21.4397 48.1238 23.1665 46.1652C24.8908 48.1234 27.533 49.2721 30.256 49.2721C32.9359 49.2721 35.5489 48.1555 37.2773 46.2414C37.4859 46.4824 37.7121 46.7129 37.9561 46.9316C39.5228 48.3359 41.6585 49.1077 44.18 49.2511C45.2655 49.3129 46.1956 48.4829 46.2574 47.3974C46.3191 46.3118 45.4892 45.3818 44.4036 45.32C42.5432 45.2142 41.3322 44.67 40.5841 43.9995C39.8507 43.3421 39.4001 42.4203 39.3068 41.2172C39.2272 40.1906 38.37 39.3988 37.3404 39.4006C36.3107 39.4025 35.4564 40.1974 35.3805 41.2242C35.2177 43.4266 33.0969 45.3346 30.256 45.3346C27.4071 45.3346 25.2944 43.4222 25.1315 41.2239C25.0553 40.1958 24.199 39.4006 23.1681 39.4006C22.1372 39.4006 21.2809 40.1958 21.2047 41.2239C21.042 43.4204 18.9198 45.3346 16.0802 45.3346C13.23 45.3346 11.1186 43.4284 10.9557 41.2242Z" fill="#D9DBE5"/>
<path d="M26.886 16.1007L18.6912 16.8585C19.142 15.9302 19.3947 14.8874 19.3947 13.7848C19.3947 13.4654 19.3729 13.1517 19.3311 12.845L26.5234 12.1799C27.6061 12.0798 28.5649 12.8763 28.6651 13.959C28.7652 15.0417 27.9687 16.0005 26.886 16.1007Z" fill="#D9DBE5"/>
<path d="M1.78759 14.4674L5.29498 14.143C5.36649 15.5738 5.86403 16.8911 6.66354 17.9708L2.15017 18.3882C1.06748 18.4883 0.10862 17.6918 0.0084948 16.6091C-0.0916304 15.5264 0.704897 14.5675 1.78759 14.4674Z" fill="#D9DBE5"/>
<path d="M2.15017 23.143C1.06748 23.0429 0.10862 23.8394 0.0084948 24.9221C-0.0916304 26.0048 0.704897 26.9636 1.78759 27.0637L26.5234 29.3513C27.6061 29.4514 28.5649 28.6549 28.6651 27.5722C28.7652 26.4895 27.9687 25.5306 26.886 25.4305L2.15017 23.143Z" fill="#D9DBE5"/>
</svg>
