<svg width="49" height="45" viewBox="0 0 49 45" fill="none" xmlns="http://www.w3.org/2000/svg">
<path fill-rule="evenodd" clip-rule="evenodd" d="M27.1712 2.625V15.9931C27.4916 15.9917 27.7945 15.992 28.0705 15.9966C28.8209 16.009 29.5745 16.0526 30.3021 16.2138C31.9345 16.5756 33.1069 17.455 34.2536 18.9326C35.0066 19.9027 35.3754 21.0879 35.573 22.1963C35.7738 23.3226 35.8267 24.5437 35.827 25.7164C35.8273 26.6445 35.7937 27.6051 35.7622 28.5054C35.7539 28.7408 35.7458 28.9722 35.7385 29.1977C35.7021 30.3193 35.6849 31.3044 35.739 32.1333L35.7412 32.1722C35.8086 33.6562 36.2922 34.6109 36.8567 35.1571C37.4034 35.6862 38.1939 35.9989 39.2635 35.9027C40.9153 35.7543 42.2413 34.3157 42.0402 32.4753C41.7123 29.4735 41.1402 24.4633 40.9053 22.6381C40.846 22.1776 40.7687 21.4387 40.6785 20.5774C40.59 19.7319 40.4891 18.768 40.3808 17.8337C40.1493 15.8364 39.8722 13.8455 39.5553 12.5781C38.976 10.2608 36.9496 6.65138 32.4622 4.73225C31.5147 4.32704 31.04 3.25977 31.3736 2.28477C31.7072 1.30978 32.7362 0.75698 33.7333 1.0171C36.3613 1.70266 39.4912 3.72959 42.1489 6.1727C44.823 8.6309 47.3204 11.786 48.4495 14.9912C48.8108 16.0168 48.2723 17.141 47.2467 17.5023C46.2212 17.8635 45.097 17.325 44.7357 16.2995C44.5304 15.7166 44.2543 15.1171 43.9187 14.5114C44.06 15.4581 44.1839 16.4469 44.2921 17.3805C44.4156 18.4459 44.5166 19.4176 44.6019 20.2379C44.6841 21.028 44.7517 21.6776 44.8106 22.1355C45.0508 24.002 45.6265 29.0456 45.9545 32.0478C46.4093 36.2115 43.3283 39.4907 39.616 39.8244C37.5302 40.0119 35.5731 39.3942 34.1186 37.9867C32.6859 36.6004 31.9148 34.6198 31.8086 32.3707C31.7421 31.3338 31.767 30.1822 31.8031 29.0701C31.8111 28.8224 31.8197 28.5764 31.8282 28.3321C31.8593 27.4405 31.8898 26.5692 31.8895 25.7175C31.8892 24.6338 31.8378 23.6791 31.6966 22.8874C31.5523 22.0776 31.3415 21.6024 31.143 21.3467C30.387 20.3726 29.9453 20.1678 29.4502 20.0581C29.1141 19.9836 28.6755 19.9447 28.0052 19.9335C27.7386 19.9291 27.4657 19.929 27.1712 19.9305V41.0522H28.3964C29.4837 41.0521 30.3652 41.9336 30.3652 43.0209C30.3652 44.1082 29.4837 44.9896 28.3964 44.9897H24.701C24.6498 44.9926 24.5982 44.9941 24.5462 44.9941H5.80371C5.75176 44.9941 5.70016 44.9926 5.64895 44.9897H1.96875C0.88144 44.9897 0 44.1082 0 43.0209C0 41.9336 0.881439 41.0522 1.96875 41.0522H3.17871V2.625C3.17871 1.17525 4.35396 0 5.80371 0H24.5462C25.996 0 27.1712 1.17525 27.1712 2.625ZM23.2337 16.0022H7.11621V3.9375H23.2337V16.0022Z" fill="#D9DBE5"/>
</svg>
