<svg width="56" height="55" viewBox="0 0 56 55" fill="none" xmlns="http://www.w3.org/2000/svg">
<path fill-rule="evenodd" clip-rule="evenodd" d="M54.6918 25.2554C55.2995 25.2554 55.7941 25.7499 55.7941 26.3577V53.5023C55.7934 54.1095 55.2991 54.6021 54.6918 54.6021H38.5239C37.9169 54.6017 37.4248 54.1093 37.4242 53.5023V26.3577C37.4242 25.7501 37.9165 25.2558 38.5239 25.2554H54.6918ZM41.0925 28.1931C40.6879 28.1934 40.359 28.522 40.3748 28.9263C40.4537 30.8866 40.8519 32.8222 41.6078 34.6428C43.164 38.3841 45.5091 38.6319 45.5222 39.9159V39.9415C45.5095 41.2258 43.1641 41.4733 41.6078 45.2146C40.8519 47.0352 40.4537 48.9708 40.3748 50.9312C40.3588 51.3356 40.6878 51.6641 41.0925 51.6643H52.1257C52.5307 51.6643 52.862 51.3357 52.8461 50.9312C52.7672 48.9708 52.3689 47.0352 51.613 45.2146C50.0567 41.4729 47.7109 41.2258 47.6858 39.9415V39.9159C47.7113 38.6318 50.0568 38.3844 51.613 34.6428C52.3689 32.8222 52.7672 30.8866 52.8461 28.9263C52.8618 28.5219 52.5306 28.1931 52.1257 28.1931H41.0925Z" fill="#D9DBE5"/>
<path d="M50.0801 4.68091C50.6541 4.10691 51.5824 4.10705 52.1565 4.68091C52.7306 5.25498 52.7306 6.18325 52.1565 6.75732L7.94165 50.9722C7.36755 51.5459 6.4392 51.5461 5.86523 50.9722C5.29148 50.3982 5.29155 49.4698 5.86523 48.8958L50.0801 4.68091Z" fill="#D9DBE5"/>
<path fill-rule="evenodd" clip-rule="evenodd" d="M15.4655 0C16.4268 0 17.2059 0.781829 17.2061 1.74316V9.74634C17.4085 9.74515 17.6016 9.74347 17.7751 9.74634C18.2477 9.75421 18.7385 9.78171 19.2158 9.88733C20.304 10.1287 21.0833 10.7212 21.8229 11.6741C22.3262 12.323 22.5653 13.1075 22.6919 13.8171C22.8207 14.5399 22.8557 15.3184 22.856 16.0551C22.8562 16.7905 22.8215 17.5616 22.7996 18.2366C22.7882 18.5866 22.7804 18.9143 22.7791 19.2158L22.7996 20.0464L22.8021 20.0746C22.8421 20.9538 23.126 21.4874 23.425 21.7767C23.7108 22.053 24.1326 22.2309 24.7375 22.1766C25.6419 22.0946 26.362 21.3087 26.2526 20.3027C26.0479 18.429 25.6914 15.3032 25.545 14.1658C25.4719 13.5968 25.3519 12.3258 25.2169 11.1614C25.0723 9.91411 24.9028 8.68458 24.7094 7.91089C24.3624 6.52512 23.1381 4.3397 20.4181 3.17615C19.7112 2.87332 19.3565 2.07609 19.6055 1.34839C19.8553 0.621663 20.6253 0.208427 21.3691 0.402466C23.0636 0.845097 25.0523 2.13921 26.7242 3.67603C28.4088 5.2246 29.9975 7.2278 30.7207 9.27979C30.9903 10.045 30.5881 10.8833 29.8235 11.1537C29.1695 11.3841 28.4641 11.1244 28.1034 10.5667C28.1136 10.6527 28.1294 10.7384 28.1393 10.823C28.2919 12.1403 28.3872 13.2048 28.4623 13.7889C28.6126 14.9565 28.9727 18.1078 29.1775 19.9823C29.4769 22.7233 27.4446 24.8837 25.0016 25.1041C23.6373 25.2268 22.343 24.8214 21.3794 23.889C20.4294 22.9694 19.9306 21.6641 19.8644 20.2079C19.8237 19.5533 19.8396 18.8283 19.8618 18.1417C19.8853 17.4191 19.9158 16.7295 19.9156 16.0576C19.9154 15.3871 19.8821 14.8059 19.7977 14.3324C19.711 13.8467 19.5902 13.5923 19.5004 13.4762C19.0529 12.8997 18.8192 12.8115 18.5801 12.7584C18.3944 12.7174 18.1386 12.6935 17.7264 12.6866C17.5598 12.6839 17.3893 12.6859 17.2061 12.6866V25.3887H17.9674L18.2648 25.4169C18.9336 25.5544 19.4383 26.1482 19.4388 26.8575C19.4388 27.6689 18.7787 28.3257 17.9674 28.3264H1.46887C0.657039 28.3264 4.19736e-05 27.6694 0 26.8575C0.000588933 26.0462 0.657378 25.3887 1.46887 25.3887H2.22766V1.74316C2.22783 0.782036 3.00717 0.000337908 3.96826 0H15.4655ZM5.16797 25.099H14.2657V12.6892H5.16797V25.099ZM5.16797 9.75146H14.2657V2.94287H5.16797V9.75146Z" fill="#D9DBE5"/>
</svg>
