<svg width="64" height="64" viewBox="0 0 64 64" fill="none" xmlns="http://www.w3.org/2000/svg">
<path d="M31.8745 24.3747H47.286V48.4502H14.717C13.6124 48.4502 12.717 49.3456 12.717 50.4502C12.717 51.5548 13.6124 52.4502 14.717 52.4502H48.6193C50.0921 52.4502 51.286 51.2563 51.286 49.7835V23.0413C51.286 21.5686 50.0921 20.3747 48.6193 20.3747H31.8682L37.2769 14.966C38.058 14.1849 38.058 12.9186 37.2769 12.1375C36.4959 11.3565 35.2295 11.3565 34.4485 12.1375L25.5344 21.0516C24.8054 21.7806 24.8054 22.9626 25.5344 23.6915L34.4488 32.6057C35.2299 33.3867 36.4962 33.3867 37.2772 32.6056C38.0583 31.8246 38.0583 30.5582 37.2772 29.7772L31.8745 24.3747Z" fill="#191A1E"/>
<path d="M21.5129 22.2382C21.5129 24.6683 19.5429 26.6382 17.1129 26.6382C14.6828 26.6382 12.7129 24.6683 12.7129 22.2382C12.7129 19.8082 14.6828 17.8382 17.1129 17.8382C19.5429 17.8382 21.5129 19.8082 21.5129 22.2382Z" fill="#191A1E"/>
</svg>
