<svg width="57" height="49" viewBox="0 0 57 49" fill="none" xmlns="http://www.w3.org/2000/svg">
<path d="M5.19923 25.6884H8.23948C9.63745 25.6884 10.7707 26.8217 10.7707 28.2197C10.7707 29.6176 9.63745 30.7509 8.23948 30.7509H5.19911C5.68766 35.2491 7.46343 39.3575 10.1521 42.706L12.2999 40.5583C13.2884 39.5698 14.8911 39.5698 15.8796 40.5583C16.8681 41.5468 16.8681 43.1495 15.8796 44.138L11.8009 48.2178C10.8113 49.2053 9.20858 49.2035 8.22114 48.2139C7.5816 47.573 7.01488 46.8657 6.44142 46.1665C2.4185 41.2899 0 35.0338 0 28.2195C0 12.6343 12.6343 0 28.2195 0C43.8047 0 56.439 12.6343 56.439 28.2195C56.439 35.0338 54.0205 41.2899 49.9975 46.1665C49.4769 46.7976 48.8628 47.5298 48.1954 48.1987C47.2079 49.1882 45.6052 49.19 44.6157 48.2025C43.2609 46.8508 41.9123 45.4922 40.5589 44.1389C39.5704 43.1503 39.5704 41.5476 40.5589 40.5591C41.5475 39.5706 43.1502 39.5706 44.1387 40.5591L46.2863 42.7067C48.9753 39.3581 50.7513 35.2494 51.2399 30.7509H48.1995C46.8015 30.7509 45.6682 29.6176 45.6682 28.2197C45.6682 26.8217 46.8015 25.6884 48.1995 25.6884H51.2397C50.7508 21.1908 48.974 17.0797 46.2858 13.7318L44.1356 15.882C43.147 16.8706 41.5443 16.8706 40.5558 15.882C39.5673 14.8935 39.5673 13.2908 40.5558 12.3023L42.706 10.1522C39.3583 7.46457 35.2478 5.68814 30.7507 5.19925V8.24195C30.7507 9.63992 29.6175 10.7732 28.2195 10.7732C26.8215 10.7732 25.6882 9.63992 25.6882 8.24195V5.19926C21.1909 5.68818 17.0801 7.46482 13.7323 10.1528L26.2346 22.655C26.8549 22.4337 27.5231 22.3132 28.2195 22.3132C31.4814 22.3132 34.1257 24.9575 34.1257 28.2195C34.1257 31.4814 31.4814 34.1257 28.2195 34.1257C24.9576 34.1257 22.3132 31.4814 22.3132 28.2195C22.3132 27.5232 22.4337 26.8551 22.6549 26.2349L10.1526 13.7325C7.4647 17.0803 5.68812 21.1911 5.19923 25.6884Z" fill="white"/>
</svg>
