<svg width="42" height="42" viewBox="0 0 42 42" fill="none" xmlns="http://www.w3.org/2000/svg">
<path d="M12.6001 19.0325C11.5128 19.0325 10.6314 19.914 10.6314 21.0013C10.6314 22.0886 11.5128 22.97 12.6001 22.97H18.2941C18.9027 23.8047 19.8882 24.3471 21.0003 24.3471C22.8487 24.3471 24.3471 22.8487 24.3471 21.0003C24.3471 19.8876 23.8042 18.9017 22.9688 18.2932V8.92603C22.9688 7.83872 22.0873 6.95728 21 6.95728C19.9127 6.95728 19.0313 7.83872 19.0313 8.92603V18.2936C18.7482 18.4998 18.4988 18.7494 18.2926 19.0325H12.6001Z" fill="#D9DBE5"/>
<path fill-rule="evenodd" clip-rule="evenodd" d="M42 21C42 32.598 32.598 42 21 42C9.40202 42 0 32.598 0 21C0 9.40202 9.40202 0 21 0C32.598 0 42 9.40202 42 21ZM38.0625 21C38.0625 30.4234 30.4234 38.0625 21 38.0625C11.5766 38.0625 3.9375 30.4234 3.9375 21C3.9375 11.5766 11.5766 3.9375 21 3.9375C30.4234 3.9375 38.0625 11.5766 38.0625 21Z" fill="#D9DBE5"/>
</svg>
