<svg width="52" height="42" viewBox="0 0 52 42" fill="none" xmlns="http://www.w3.org/2000/svg">
<path fill-rule="evenodd" clip-rule="evenodd" d="M25.7911 6.52948C30.262 6.52986 33.8861 10.1541 33.8866 14.6249V38.009H38.3188L38.647 38.0423C39.3951 38.1948 39.9593 38.8565 39.9595 39.6496C39.9593 40.4427 39.395 41.1044 38.647 41.2569L38.3188 41.2902H13.2634C12.3577 41.2899 11.623 40.5553 11.6228 39.6496C11.623 38.7439 12.3578 38.0093 13.2634 38.009H17.6931V14.6249C17.6936 10.1541 21.3202 6.52983 25.7911 6.52948ZM25.7911 9.81073C23.1324 9.81108 20.9749 11.9663 20.9744 14.6249V38.009H30.6053V14.6249C30.6049 11.9663 28.4498 9.81111 25.7911 9.81073Z" fill="#FBA600"/>
<path d="M4.80396 25.4326C5.48743 25.0933 6.33877 25.269 6.82654 25.894C7.38318 26.6081 7.25555 27.6386 6.54199 28.196L5.55762 28.965L5.27563 29.1419C4.59254 29.4804 3.74319 29.3047 3.25562 28.6805C2.69855 27.9667 2.82463 26.9362 3.5376 26.3785L4.52197 25.6094L4.80396 25.4326Z" fill="#FBA600"/>
<path d="M44.7557 25.894C45.313 25.1799 46.3435 25.0527 47.0577 25.6094L48.0421 26.3785L48.2831 26.6066C48.7787 27.1872 48.8146 28.0553 48.3267 28.6805C47.839 29.3046 46.9897 29.4805 46.3066 29.1419L46.0247 28.965L45.0403 28.196C44.3263 27.6387 44.1991 26.6082 44.7557 25.894Z" fill="#FBA600"/>
<path d="M36.5757 19.5109C37.1331 18.7966 38.1659 18.6689 38.8802 19.2264L42.6742 22.1872L42.9126 22.4179C43.408 22.9985 43.4466 23.8667 42.9587 24.4918C42.4708 25.1163 41.6195 25.2901 40.9362 24.9506L40.6542 24.7738L36.8602 21.8129L36.6218 21.5848C36.1261 21.0046 36.0885 20.1362 36.5757 19.5109Z" fill="#FBA600"/>
<path d="M12.9814 19.0495C13.665 18.7097 14.516 18.8858 15.004 19.5109C15.5614 20.2252 15.4338 21.2555 14.7195 21.8129L10.9255 24.7738C10.2115 25.3304 9.18095 25.2052 8.62354 24.4918C8.06626 23.7777 8.1944 22.7448 8.90808 22.1872L12.702 19.2264L12.9814 19.0495Z" fill="#FBA600"/>
<path d="M3.21973 13.0484C3.96713 13.2012 4.52915 13.8633 4.52966 14.6557C4.52936 15.4482 3.96706 16.11 3.21973 16.263L2.88904 16.2963H1.64062C0.735044 16.296 0.000351297 15.5613 0 14.6557C0.00058135 13.7503 0.735186 13.0154 1.64062 13.0151H2.88904L3.21973 13.0484Z" fill="#FBA600"/>
<path d="M13.5941 13.0484C14.3414 13.2013 14.9035 13.8634 14.9041 14.6557C14.9037 15.4481 14.3413 16.1099 13.5941 16.263L13.2634 16.2963H8.45178C7.5462 16.296 6.81151 15.5613 6.81116 14.6557C6.81174 13.7503 7.54634 13.0154 8.45178 13.0151H13.2634L13.5941 13.0484Z" fill="#FBA600"/>
<path d="M43.4612 13.0484C44.2088 13.201 44.7706 13.8631 44.7711 14.6557C44.7708 15.4483 44.2087 16.1102 43.4612 16.263L43.1305 16.2963H38.3188C37.4132 16.2961 36.6786 15.5614 36.6782 14.6557C36.6788 13.7502 37.4133 13.0153 38.3188 13.0151H43.1305L43.4612 13.0484Z" fill="#FBA600"/>
<path d="M50.2723 13.0484C51.0193 13.2016 51.5818 13.8636 51.5823 14.6557C51.582 15.4479 51.0192 16.1097 50.2723 16.263L49.9417 16.2963H48.6932C47.7876 16.2961 47.053 15.5614 47.0526 14.6557C47.0532 13.7502 47.7877 13.0153 48.6932 13.0151H49.9417L50.2723 13.0484Z" fill="#FBA600"/>
<path d="M8.62354 4.82221C9.18087 4.10807 10.2112 3.98065 10.9255 4.53766L14.7195 7.49848L14.9604 7.72919C15.455 8.30965 15.4914 9.17575 15.004 9.80048C14.5159 10.4252 13.6649 10.6018 12.9814 10.2619L12.702 10.085L8.90808 7.12421C8.19426 6.56703 8.06715 5.53644 8.62354 4.82221Z" fill="#FBA600"/>
<path d="M40.9362 4.36078C41.6196 4.02142 42.471 4.19718 42.9587 4.82221C43.515 5.53633 43.3877 6.567 42.6742 7.12421L38.8802 10.085L38.5983 10.2619C37.915 10.6008 37.0634 10.4251 36.5757 9.80048C36.0194 9.08655 36.1471 8.05588 36.8602 7.49848L40.6542 4.53766L40.9362 4.36078Z" fill="#FBA600"/>
<path d="M3.25562 0.630925C3.74329 0.00697544 4.59266 -0.169035 5.27563 0.169499L5.55762 0.346379L6.54199 1.11542L6.7804 1.34613C7.27545 1.92633 7.31341 2.79244 6.82654 3.41742C6.33861 4.04193 5.48722 4.21823 4.80396 3.87885L4.52197 3.70197L3.5376 2.93549L3.29919 2.70478C2.8037 2.12444 2.76827 1.25609 3.25562 0.630925Z" fill="#FBA600"/>
<path d="M46.3066 0.169499C46.9897 -0.168861 47.8391 0.00676906 48.3267 0.630925C48.8839 1.34523 48.7564 2.37808 48.0421 2.93549L47.0577 3.70197C46.3435 4.25851 45.313 4.13122 44.7557 3.41742C44.1991 2.70334 44.3267 1.67279 45.0403 1.11542L46.0247 0.346379L46.3066 0.169499Z" fill="#FBA600"/>
</svg>
