<svg width="63" height="63" viewBox="0 0 63 63" fill="none" xmlns="http://www.w3.org/2000/svg">
<path d="M31.3145 6.84766C32.0798 6.84766 32.8379 6.99905 33.5449 7.29199C34.2518 7.5849 34.8946 8.01354 35.4355 8.55469L53.9746 27.0859C55.0675 28.1805 55.6816 29.6642 55.6816 31.2109C55.6815 32.7576 55.0675 34.2414 53.9746 35.3359L35.4395 53.8662C34.8992 54.409 34.2564 54.839 33.5488 55.1318C32.8414 55.4246 32.083 55.5744 31.3174 55.5723C30.5516 55.5742 29.7924 55.424 29.085 55.1309C28.3777 54.8377 27.7352 54.4072 27.1953 53.8643L8.65918 35.334C8.11721 34.7925 7.68691 34.1491 7.39355 33.4414C7.1003 32.7337 6.94922 31.975 6.94922 31.209C6.94924 30.4429 7.10024 29.6843 7.39355 28.9766C7.68693 28.2688 8.11714 27.6255 8.65918 27.084L27.1943 8.55469C27.7353 8.01358 28.3781 7.58487 29.085 7.29199C29.7919 6.99914 30.5493 6.8477 31.3145 6.84766ZM31.3174 9.55078C30.9069 9.54968 30.4994 9.62909 30.1201 9.78613C29.741 9.9431 29.3969 10.1741 29.1074 10.4648L10.5664 28.999C10.2756 29.2893 10.0451 29.6341 9.8877 30.0137C9.73026 30.3932 9.64849 30.8 9.64844 31.2109C9.64844 31.622 9.73021 32.0295 9.8877 32.4092C10.0452 32.7887 10.2756 33.1336 10.5664 33.4238L29.1016 51.9541C29.6969 52.5235 30.4887 52.8418 31.3125 52.8418C32.1363 52.8418 32.9281 52.5235 33.5234 51.9541L52.0605 33.4229C52.6462 32.8348 52.9746 32.0379 52.9746 31.208C52.9745 30.3783 52.646 29.5821 52.0605 28.9941L33.5234 10.4648C33.2344 10.1743 32.8904 9.94384 32.5117 9.78711C32.1331 9.63043 31.7271 9.54946 31.3174 9.55078ZM30.2246 41.4131C30.8763 41.2832 31.5519 41.3487 32.166 41.6025C32.7802 41.8565 33.3051 42.2875 33.6748 42.8398C34.0444 43.3921 34.2425 44.0415 34.2432 44.7061C34.2437 45.1478 34.157 45.5859 33.9883 45.9941C33.8196 46.4023 33.5719 46.7735 33.2598 47.0859C32.9477 47.3982 32.5768 47.6455 32.1689 47.8145C31.7609 47.9835 31.3235 48.0705 30.8818 48.0703C30.2171 48.0703 29.5674 47.8731 29.0146 47.5039C28.462 47.1347 28.0308 46.6101 27.7764 45.9961C27.5219 45.3821 27.4555 44.7066 27.585 44.0547C27.7144 43.4027 28.0341 42.8032 28.5039 42.333C28.9737 41.8629 29.5729 41.5431 30.2246 41.4131ZM31.082 14.6953C32.0308 14.749 32.921 15.1722 33.5605 15.875C34.2002 16.5779 34.5387 17.5045 34.5029 18.4541L33.4473 36.9941C33.4093 37.6489 33.1225 38.2647 32.6455 38.7148C32.1686 39.1648 31.5375 39.415 30.8818 39.415C30.2262 39.415 29.5951 39.1648 29.1182 38.7148C28.6412 38.2647 28.3543 37.6489 28.3164 36.9941L27.2598 18.4541V18.0439C27.3315 17.0963 27.7715 16.2141 28.4863 15.5879C29.2012 14.9618 30.1333 14.6416 31.082 14.6953Z" fill="#FBA600"/>
</svg>
