<svg width="63" height="63" viewBox="0 0 63 63" fill="none" xmlns="http://www.w3.org/2000/svg">
<path fill-rule="evenodd" clip-rule="evenodd" d="M25.7243 7.27148V14.1115L25.7148 14.121C26.4938 14.7005 27.1873 15.375 27.7953 16.135C31.7662 21.113 30.9492 28.3709 25.9713 32.3419C20.9933 36.3129 13.7354 35.4959 9.76447 30.5179C5.79352 25.5399 6.61051 18.282 11.579 14.311V7.27148H25.7243ZM9.15648 23.3265C9.15648 28.6464 13.4694 32.9594 18.7894 32.9594L18.7989 32.9689C21.3543 32.9689 23.8053 31.9524 25.6103 30.1474C29.3722 26.3854 29.3722 20.2865 25.6103 16.5245C25.0973 16.0115 24.5273 15.565 23.9193 15.1755L23.8243 15.128V8.83898H13.4979V15.261L13.4504 15.299C12.9184 15.66 12.4244 16.0685 11.9779 16.515C10.173 18.32 9.15648 20.771 9.15648 23.3265ZM23.8793 21.7424C23.6462 20.9045 23.4004 20.0206 22.2886 19.5749V19.5559C21.5571 19.2899 20.7876 19.1094 20.0086 19.0144C18.2891 19.0144 16.3512 19.2709 15.0402 20.8479C14.8974 21.0917 14.7761 21.3356 14.6564 21.5762L14.6564 21.5762C14.3936 22.1044 14.1385 22.617 13.6817 23.0804C13.5192 23.2358 13.4986 23.2336 13.3931 23.2223C13.3568 23.2184 13.3104 23.2134 13.2447 23.2134C12.5037 22.7859 11.6107 22.7194 10.8127 23.0424C10.7853 23.0586 10.7532 23.0762 10.7182 23.0955C10.4865 23.2228 10.1305 23.4185 10.2047 23.7074C10.4137 24.1824 10.8602 24.5054 11.3732 24.5529C11.6842 24.5655 11.9575 24.5567 12.2115 24.5486H12.2115H12.2115H12.2115H12.2116C13.1059 24.5199 13.7603 24.4988 14.9737 25.4459C15.0212 25.6834 14.9927 25.9304 14.8882 26.1394C14.8226 26.2809 14.678 26.4074 14.5319 26.5352C14.2758 26.7592 14.015 26.9873 14.1662 27.3079C14.6543 27.2608 14.9749 27.2611 15.2971 27.2614H15.2972C15.4955 27.2616 15.6943 27.2617 15.9332 27.2509C16.1065 27.0071 16.181 26.7293 16.2571 26.4458C16.3144 26.2321 16.3726 26.0151 16.4747 25.8069C18.4791 26.1679 20.5311 26.1489 22.5261 25.7499C22.8597 26.0835 22.5942 26.4023 22.3628 26.6801C22.1791 26.9006 22.017 27.0953 22.1936 27.2509H23.8751C24.1331 26.8921 24.091 26.4542 24.0497 26.0254C24.0286 25.8069 24.0078 25.5909 24.0271 25.3889L24.0841 25.3319C24.639 24.9361 25.1355 24.7877 25.6159 24.6442C26.1964 24.4707 26.7534 24.3043 27.3615 23.7169C27.428 23.6219 27.428 23.4129 27.276 23.4129C26.9815 23.5364 26.6776 23.6219 26.3736 23.6789C26.2828 23.6844 26.194 23.6909 26.1082 23.6972H26.1081C25.6011 23.7343 25.1967 23.7639 25.0911 23.5364C24.287 23.2085 24.0883 22.494 23.8793 21.7424ZM44.0505 40.0454L44.0455 40.0565C42.0097 40.8239 38.9674 41.5803 35.6018 40.0546L26.0242 35.8256C27.551 32.4572 30.5215 32.9014 32.8719 33.6324C36.3791 34.7244 42.283 33.0587 44.4947 28.8667C44.4947 28.8667 45.1332 27.9783 46.1789 25.961L46.7989 24.6932L47.206 24.8968C47.2338 24.9061 47.2893 24.9153 47.2893 24.9153L56.5524 29.3942L48.7884 46.0234L42.6162 43.2287L44.0455 40.0565L44.0505 40.0546V40.0454ZM37.2775 51.5015L35.3404 52.7855L38.5725 44.9785L37.29 44.4476L33.9708 52.465L33.7518 49.7988L32.3637 49.9098L32.8727 56.0822L38.0456 52.6675L37.2775 51.5015ZM25.5748 36.919L37.0739 42.2348L35.7421 45.116L24.2429 39.8001L25.5748 36.919Z" fill="#12B86A"/>
</svg>
