<svg width="42" height="50" viewBox="0 0 42 50" fill="none" xmlns="http://www.w3.org/2000/svg">
<path d="M32.9053 0L32.8965 12.1748L32.8984 12.1729C36.3207 14.7488 38.8521 18.3304 40.1387 22.416C41.4252 26.5017 41.4021 30.8878 40.0732 34.96C38.7443 39.0322 36.1756 42.5876 32.7266 45.1279C29.2776 47.6681 25.1209 49.0666 20.8379 49.1279C16.5548 49.1893 12.3592 47.9102 8.83887 45.4697C5.31867 43.0292 2.64911 39.549 1.2041 35.5166C-0.240783 31.4843 -0.388652 27.1012 0.780273 22.9805C1.94929 18.8595 4.37738 15.2072 7.72461 12.5342L7.71387 0H32.9053ZM11.1143 2.78516V14.2412L11.0273 14.3115C10.0867 14.9409 9.21011 15.6613 8.41016 16.4619C6.01136 18.8611 4.3778 21.9177 3.71582 25.2451C3.05388 28.5727 3.39336 32.0226 4.69141 35.1572C5.98947 38.2917 8.18825 40.9711 11.0088 42.8564C13.8293 44.7418 17.1455 45.7491 20.5381 45.75L20.54 45.748C23.9333 45.7486 27.2507 44.7432 30.0723 42.8584C32.894 40.9734 35.0929 38.2933 36.3916 35.1582C37.6903 32.0231 38.0304 28.5733 37.3682 25.2451C36.706 21.917 35.0716 18.8601 32.6719 16.4609C31.7623 15.551 30.7537 14.7453 29.665 14.0596L29.5068 13.9775V2.78516H11.1143ZM19.4199 20.416C20.3229 20.3133 21.2367 20.3461 22.1299 20.5137C23.4298 20.7359 24.6631 21.2481 25.7383 22.0117C25.8011 22.0599 25.8581 22.1144 25.9209 22.1582C27.5063 21.1512 29.4141 20.7813 31.2607 21.124C32.0502 21.2579 32.8042 21.5509 33.4775 21.9844C34.1509 22.4179 34.73 22.9832 35.1787 23.6465L33.6953 24.5576C33.371 24.1002 32.9586 23.712 32.4824 23.416C32.0062 23.12 31.4756 22.9224 30.9219 22.834C29.6819 22.6032 28.4004 22.7966 27.2842 23.3838C28.5507 24.8546 29.433 26.6166 29.8525 28.5117C30.2721 30.4069 30.2159 32.3771 29.6885 34.2451C28.9877 36.4901 27.5423 37.8311 25.8184 37.8311C24.9074 37.7754 24.0398 37.4214 23.3506 36.8232C22.6615 36.2251 22.1891 35.4163 22.0059 34.5225C21.4496 32.5906 21.385 30.55 21.8184 28.5869C22.2518 26.6238 23.1694 24.8003 24.4873 23.2822C23.651 22.73 22.7047 22.3656 21.7139 22.2148C20.7933 22.0607 19.8532 22.0607 18.9326 22.2148C17.9522 22.364 17.0171 22.7287 16.1943 23.2822C17.5107 24.801 18.427 26.6243 18.8604 28.5869C19.2937 30.5498 19.2305 32.5904 18.6758 34.5225C18.4919 35.4165 18.0186 36.2251 17.3291 36.8232C16.6394 37.4214 15.7716 37.7755 14.8604 37.8311C13.1364 37.8311 11.6895 36.49 10.9902 34.2451C10.4633 32.377 10.4066 30.4068 10.8262 28.5117C11.2457 26.6167 12.1285 24.8549 13.3945 23.3838C12.2784 22.7964 10.9968 22.6031 9.75684 22.834C9.20293 22.9219 8.67164 23.119 8.19531 23.415C7.71908 23.7111 7.30737 24.0999 6.9834 24.5576L5.5 23.6465C5.94829 22.9821 6.52713 22.416 7.20117 21.9824C7.8754 21.5488 8.63126 21.2563 9.42188 21.124C11.268 20.7814 13.1759 21.1513 14.7607 22.1582C14.8235 22.1101 14.8772 22.0555 14.9414 22.0117C16.245 21.0516 17.8029 20.4965 19.4199 20.416ZM14.8408 24.3711C13.7162 25.6188 12.9258 27.1311 12.543 28.7666C12.1602 30.402 12.1974 32.1075 12.6514 33.7246C12.8718 34.4355 13.5305 36.0918 14.8604 36.0918C16.073 36.0916 16.7032 34.9354 17.0215 33.9707V33.9746C17.4987 32.3199 17.5493 30.571 17.168 28.8916C16.7866 27.2124 15.9858 25.6573 14.8408 24.3711ZM25.8477 24.3682C24.7021 25.6536 23.9004 27.208 23.5176 28.8867C23.1347 30.5654 23.1833 32.3137 23.6582 33.9688C23.9735 34.9351 24.6072 36.0898 25.8203 36.0898C27.1528 36.0896 27.8079 34.4345 28.0283 33.7236V33.7275C28.4846 32.1103 28.5239 30.4041 28.1426 28.7676C27.7612 27.1309 26.9719 25.6172 25.8477 24.3682Z" fill="#FBA600"/>
</svg>
