<svg width="63" height="63" viewBox="0 0 63 63" fill="none" xmlns="http://www.w3.org/2000/svg">
<path d="M18.3916 53.4482H43.2295V7.94629H46.5654V56.7734H15.0654V7.94629H18.3916V53.4482ZM30.8174 19.8994C31.6305 19.8867 32.4381 20.0413 33.1895 20.3525C33.9406 20.6637 34.6206 21.1251 35.1865 21.709C35.7524 22.2928 36.1928 22.9865 36.4805 23.7471C36.7681 24.5077 36.8964 25.3195 36.8584 26.1318V31.6309H38.7266V39.2432C38.7594 40.3026 38.579 41.3583 38.1963 42.3467C37.8135 43.335 37.2357 44.2362 36.498 44.9971C35.7603 45.758 34.8773 46.3632 33.9014 46.7764C32.9254 47.1895 31.8762 47.4023 30.8164 47.4023C29.7566 47.4023 28.7074 47.1895 27.7314 46.7764C26.7555 46.3632 25.8725 45.758 25.1348 44.9971C24.3971 44.2362 23.8193 43.335 23.4365 42.3467C23.0538 41.3583 22.8734 40.3026 22.9062 39.2432V31.6309H24.5947V26.1318C24.5563 25.3198 24.6845 24.5085 24.9717 23.748C25.2589 22.9875 25.6991 22.2939 26.2646 21.71C26.8303 21.126 27.5098 20.6639 28.2607 20.3525C29.0116 20.0413 29.8182 19.8869 30.6309 19.8994H30.8174ZM30.7324 36.2656C30.5148 36.2656 30.2994 36.3102 30.0996 36.3965C29.8999 36.4829 29.7194 36.6091 29.5703 36.7676C29.4212 36.9262 29.3054 37.1145 29.2314 37.3193C29.1576 37.524 29.1262 37.7418 29.1396 37.959C29.1404 38.2515 29.2194 38.5385 29.3672 38.791C29.515 39.0435 29.7268 39.2526 29.9814 39.3965L29.5781 42.9238H31.8525L31.4785 39.3994C31.7348 39.2562 31.948 39.0471 32.0967 38.7939C32.2454 38.5407 32.324 38.2526 32.3242 37.959C32.3376 37.7417 32.3063 37.5241 32.2324 37.3193C32.1585 37.1145 32.0437 36.9262 31.8945 36.7676C31.7454 36.609 31.565 36.4829 31.3652 36.3965C31.1654 36.3101 30.9501 36.2656 30.7324 36.2656ZM30.6709 23.7939C29.3533 23.7939 28.3478 24.7792 28.3477 26.9033V31.6309H33.1104V26.9033C33.1102 24.7807 32.1307 23.794 30.8086 23.7939H30.6709ZM32.3867 10.8555H41.1582V14.1914H20.3936V10.8555H29.0508V5.47852H32.3867V10.8555Z" fill="#FF4F54"/>
</svg>
