<svg width="59" height="47" viewBox="0 0 59 47" fill="none" xmlns="http://www.w3.org/2000/svg">
<path d="M6.0081 23.1678C6.07904 16.9989 8.57939 11.1068 12.9667 6.76962C17.3541 2.43243 23.2746 0 29.4439 0C35.6131 0 41.5336 2.43243 45.921 6.76962C50.3083 11.1068 52.8087 16.9989 52.8796 23.1678C52.8087 29.3367 50.3083 35.2288 45.921 39.566C41.5336 43.9032 35.6131 46.3356 29.4439 46.3356C23.2746 46.3356 17.3541 43.9032 12.9667 39.566C8.57939 35.2288 6.07904 29.3367 6.0081 23.1678ZM8.39305 23.1678C8.35897 27.3388 9.56468 31.4259 11.8572 34.9105C14.1497 38.3952 17.4257 41.1202 21.2695 42.74C25.1133 44.3598 29.3516 44.8012 33.4466 44.0083C37.5417 43.2154 41.3089 41.2239 44.2703 38.2865C47.2317 35.3491 49.2538 31.5981 50.08 27.5097C50.9062 23.4212 50.4992 19.1794 48.9107 15.3226C47.3223 11.4658 44.6239 8.16773 41.158 5.84696C37.6922 3.52619 33.615 2.28728 29.4439 2.28745C23.8851 2.27096 18.5469 4.46007 14.6002 8.37454C10.6535 12.289 8.42216 17.6091 8.39305 23.1678ZM0 23.1585C0.00400937 18.9517 0.921639 14.7959 2.68944 10.9786C4.45724 7.16125 7.03303 3.77339 10.2387 1.04926L12.3494 3.14287C9.41437 5.59074 7.0536 8.6541 5.43433 12.1159C3.81506 15.5778 2.97691 19.3533 2.97928 23.1752C2.98164 26.997 3.82446 30.7715 5.44802 34.2313C7.07157 37.6912 9.43613 40.7516 12.3742 43.1958L10.2651 45.2879C7.05142 42.5645 4.46873 39.1746 2.69617 35.3533C0.923605 31.5321 0.00360805 27.3709 0 23.1585ZM46.6158 43.1059C49.5261 40.66 51.8659 37.607 53.4712 34.1609C55.0764 30.7149 55.9082 26.9593 55.9082 23.1577C55.9082 19.3561 55.0764 15.6006 53.4712 12.1545C51.8659 8.7085 49.5261 5.65542 46.6158 3.20951L48.7265 1.1159C51.9136 3.83641 54.4728 7.21575 56.2277 11.0209C57.9826 14.8261 58.8913 18.9666 58.8913 23.157C58.8913 27.3473 57.9826 31.4878 56.2277 35.293C54.4728 39.0981 51.9136 42.4775 48.7265 45.198L46.6158 43.1059ZM21.3112 36.4842V9.85143H31.5638C34.3006 9.7041 36.9966 10.5635 39.1433 12.2674C40.0584 13.0455 40.7858 14.0205 41.271 15.1194C41.7562 16.2184 41.9866 17.4128 41.9451 18.6133C41.987 19.813 41.7567 21.0066 41.2715 22.1046C40.7863 23.2026 40.0587 24.1764 39.1433 24.953C36.9929 26.6484 34.2981 27.5013 31.5638 27.3519H27.544V36.478L21.3112 36.4842ZM27.544 22.6006H31.5638C32.1288 22.6399 32.6958 22.5618 33.2292 22.3714C33.7626 22.181 34.2508 21.8823 34.6632 21.4942C35.0214 21.1153 35.3004 20.6688 35.484 20.1808C35.6676 19.6928 35.7521 19.1731 35.7325 18.652C35.7717 18.1003 35.6897 17.5466 35.4924 17.0298C35.295 16.513 34.9871 16.0457 34.5901 15.6605C34.1931 15.2753 33.7166 14.9816 33.1941 14.7999C32.6716 14.6183 32.1157 14.5531 31.5654 14.6089H27.544V22.6006Z" fill="#FF4F54"/>
</svg>
