<svg width="52" height="41" viewBox="0 0 52 41" fill="none" xmlns="http://www.w3.org/2000/svg">
<path d="M10.0129 3.28125L22.6868 3.28125C23.5929 3.28125 24.3274 2.54672 24.3274 1.64063C24.3274 0.734533 23.5929 0 22.6868 0H10.0129C9.10685 0 8.37231 0.734534 8.37231 1.64063C8.37231 2.54672 9.10685 3.28125 10.0129 3.28125Z" fill="#FBA600"/>
<path d="M10.0129 36.7346C9.10685 36.7346 8.37231 37.4692 8.37231 38.3752C8.37231 39.2813 9.10685 40.0159 10.0129 40.0159H22.6868C23.5929 40.0159 24.3274 39.2813 24.3274 38.3752C24.3274 37.4692 23.5929 36.7346 22.6868 36.7346H10.0129Z" fill="#FBA600"/>
<path d="M35.7235 7.52968C36.1418 7.37068 36.5971 7.28284 37.0766 7.28284C39.1805 7.28284 40.886 8.98832 40.886 11.0921C40.886 13.196 39.1805 14.9015 37.0766 14.9015C36.1706 14.9015 35.436 15.636 35.436 16.5421C35.436 17.4482 36.1706 18.1827 37.0766 18.1827C40.9927 18.1827 44.1672 15.0082 44.1672 11.0921C44.1672 7.17614 40.9927 4.00159 37.0766 4.00159C36.1925 4.00159 35.3426 4.16418 34.5576 4.46255C33.7107 4.78451 33.2851 5.7321 33.607 6.57907C33.929 7.42603 34.8766 7.85164 35.7235 7.52968Z" fill="#FBA600"/>
<path d="M48.0456 13.7175C47.2431 13.2967 46.2515 13.6062 45.8308 14.4087C45.4101 15.2112 45.7195 16.2028 46.522 16.6235C47.7406 17.2624 48.5661 18.5363 48.5661 20.0004C48.5661 21.4645 47.7406 22.7384 46.522 23.3773C45.7195 23.798 45.4101 24.7896 45.8308 25.5921C46.2515 26.3946 47.2431 26.7041 48.0456 26.2833C50.3021 25.1003 51.8474 22.7322 51.8474 20.0004C51.8474 17.2686 50.3021 14.9005 48.0456 13.7175Z" fill="#FBA600"/>
<path d="M37.0766 21.8189C36.1706 21.8189 35.436 22.5534 35.436 23.4595C35.436 24.3656 36.1706 25.1001 37.0766 25.1001C39.1805 25.1001 40.886 26.8056 40.886 28.9094C40.886 31.0133 39.1805 32.7187 37.0766 32.7187C36.5971 32.7187 36.1418 32.6309 35.7235 32.4719C34.8766 32.1499 33.929 32.5756 33.607 33.4225C33.2851 34.2695 33.7107 35.2171 34.5576 35.539C35.3426 35.8374 36.1925 36 37.0766 36C40.9927 36 44.1672 32.8254 44.1672 28.9094C44.1672 24.9934 40.9927 21.8189 37.0766 21.8189Z" fill="#FBA600"/>
<path d="M24.3223 11.7182V15.0288L31.2751 14.0976C32.1732 13.9773 32.8037 13.1518 32.6834 12.2537C32.5632 11.3556 31.7376 10.7251 30.8396 10.8454L24.3223 11.7182Z" fill="#FBA600"/>
<path d="M1.42303 14.7851L8.36719 13.8551V17.1656L1.8586 18.0373C0.960524 18.1576 0.134987 17.5271 0.0147097 16.629C-0.105568 15.7309 0.52496 14.9054 1.42303 14.7851Z" fill="#FBA600"/>
<path d="M1.8586 21.9635L8.36719 22.8352V26.1458L1.42303 25.2158C0.52496 25.0955 -0.105568 24.2699 0.0147097 23.3719C0.134987 22.4738 0.960524 21.8433 1.8586 21.9635Z" fill="#FBA600"/>
<path d="M24.3223 28.2826V24.9721L31.2751 25.9033C32.1732 26.0235 32.8037 26.8491 32.6834 27.7472C32.5632 28.6452 31.7376 29.2758 30.8396 29.1555L24.3223 28.2826Z" fill="#FBA600"/>
<path d="M12.4124 10.1642C13.4997 10.1642 14.3811 9.28275 14.3811 8.19544C14.3811 7.10812 13.4997 6.22669 12.4124 6.22669C11.325 6.22669 10.4436 7.10812 10.4436 8.19544C10.4436 9.28275 11.325 10.1642 12.4124 10.1642Z" fill="#FBA600"/>
<path d="M20.2874 10.1642C21.3747 10.1642 22.2561 9.28275 22.2561 8.19544C22.2561 7.10812 21.3747 6.22669 20.2874 6.22669C19.2 6.22669 18.3186 7.10812 18.3186 8.19544C18.3186 9.28275 19.2 10.1642 20.2874 10.1642Z" fill="#FBA600"/>
<path d="M12.4124 18.0392C13.4997 18.0392 14.3811 17.1577 14.3811 16.0704C14.3811 14.9831 13.4997 14.1017 12.4124 14.1017C11.325 14.1017 10.4436 14.9831 10.4436 16.0704C10.4436 17.1577 11.325 18.0392 12.4124 18.0392Z" fill="#FBA600"/>
<path d="M20.2874 18.0392C21.3747 18.0392 22.2561 17.1577 22.2561 16.0704C22.2561 14.9831 21.3747 14.1017 20.2874 14.1017C19.2 14.1017 18.3186 14.9831 18.3186 16.0704C18.3186 17.1577 19.2 18.0392 20.2874 18.0392Z" fill="#FBA600"/>
<path d="M12.4124 25.9142C13.4997 25.9142 14.3811 25.0327 14.3811 23.9454C14.3811 22.8581 13.4997 21.9767 12.4124 21.9767C11.325 21.9767 10.4436 22.8581 10.4436 23.9454C10.4436 25.0327 11.325 25.9142 12.4124 25.9142Z" fill="#FBA600"/>
<path d="M20.2874 25.9142C21.3747 25.9142 22.2561 25.0327 22.2561 23.9454C22.2561 22.8581 21.3747 21.9767 20.2874 21.9767C19.2 21.9767 18.3186 22.8581 18.3186 23.9454C18.3186 25.0327 19.2 25.9142 20.2874 25.9142Z" fill="#FBA600"/>
<path d="M12.4124 33.7892C13.4997 33.7892 14.3811 32.9077 14.3811 31.8204C14.3811 30.7331 13.4997 29.8517 12.4124 29.8517C11.325 29.8517 10.4436 30.7331 10.4436 31.8204C10.4436 32.9077 11.325 33.7892 12.4124 33.7892Z" fill="#FBA600"/>
<path d="M20.2874 33.7892C21.3747 33.7892 22.2561 32.9077 22.2561 31.8204C22.2561 30.7331 21.3747 29.8517 20.2874 29.8517C19.2 29.8517 18.3186 30.7331 18.3186 31.8204C18.3186 32.9077 19.2 33.7892 20.2874 33.7892Z" fill="#FBA600"/>
</svg>
