<svg width="35" height="46" viewBox="0 0 35 46" fill="none" xmlns="http://www.w3.org/2000/svg">
<path d="M5.94727 34.04C13.194 30.8585 17.1445 31.2656 17.1445 31.2656V31.3066C17.3371 31.289 21.2563 30.9805 28.3105 34.082C28.3763 38.0396 28.061 41.9942 27.3701 45.8916H23.6221C23.6326 45.8444 25.1506 39.0383 24.4941 36.3486C22.1606 35.368 19.6527 34.8685 17.1211 34.8809V34.8389C14.5969 34.8303 12.0967 35.3297 9.76953 36.3066C9.11218 39.0028 10.6426 45.8506 10.6426 45.8506H6.88477C6.19489 41.9529 5.88063 37.9976 5.94727 34.04ZM5.92676 34.1328C3.80981 35.5117 1.86495 37.1385 0.132812 38.9775L0 35.6885C1.82121 33.9208 3.90387 32.444 6.17383 31.3086L5.92676 34.1328ZM28.0654 31.2588C30.2978 32.4546 32.3723 33.9247 34.2393 35.6357L34.1064 38.9307C32.3746 37.0909 30.4299 35.4633 28.3135 34.083L28.0654 31.2588ZM17.1338 10.0381C19.8399 10.0381 22.5148 10.6168 24.9785 11.7354C27.2184 17.1393 28.083 31.2549 28.083 31.2549C24.633 29.723 20.8983 28.9356 17.123 28.9443C13.3479 28.953 9.61667 29.757 6.17383 31.3047C7.54025 13.8254 9.28906 11.7354 9.28906 11.7354C11.7528 10.6168 14.4277 10.0381 17.1338 10.0381ZM15.4189 0.34082C16.2371 0.00221193 17.1374 -0.0868305 18.0059 0.0859375C18.8744 0.25872 19.6726 0.685538 20.2988 1.31152C20.9249 1.93747 21.3514 2.7353 21.5244 3.60352C21.6974 4.47179 21.6089 5.37229 21.2705 6.19043C20.9321 7.00844 20.3588 7.7078 19.623 8.2002C18.8871 8.69268 18.0213 8.95618 17.1357 8.95703C16.5471 8.95755 15.9639 8.84213 15.4199 8.61719C14.8758 8.3922 14.3812 8.06172 13.9648 7.64551C13.5486 7.22935 13.2183 6.73525 12.9932 6.19141C12.768 5.64745 12.652 5.0643 12.6523 4.47559C12.6529 3.5902 12.9169 2.72522 13.4092 1.98926C13.9015 1.25326 14.6007 0.679465 15.4189 0.34082Z" fill="#FF4F54"/>
</svg>
