<svg width="46" height="47" viewBox="0 0 46 47" fill="none" xmlns="http://www.w3.org/2000/svg">
<path d="M32.5342 0L45.543 13.3486V32.5449L32.5342 46.0469H13.0996L0 32.5342V13.3564L13.0293 0H32.5342ZM14.5869 3.71387L3.71973 14.8594V31.0273L14.6748 42.3291H30.957L41.8213 31.0479L41.8164 14.8594L30.96 3.71387H14.5869ZM26.8975 18.2256C28.1372 18.2256 29.3265 18.7181 30.2031 19.5947C31.0796 20.4713 31.5722 21.6599 31.5723 22.8994C31.5723 24.1392 31.0798 25.3284 30.2031 26.2051C29.3265 27.0817 28.1372 27.5742 26.8975 27.5742C25.6579 27.5741 24.4693 27.0815 23.5928 26.2051C22.7161 25.3284 22.2236 24.1392 22.2236 22.8994C22.2237 21.6598 22.7162 20.4713 23.5928 19.5947C24.4693 18.7182 25.6578 18.2257 26.8975 18.2256ZM8.71777 18.2178C11.1876 18.2178 12.3077 19.474 12.5156 21.0312L9.74805 21.0381C9.73282 20.9108 9.68616 20.7891 9.61328 20.6836C9.54037 20.5781 9.44281 20.4919 9.3291 20.4326C9.09427 20.3201 8.83547 20.2655 8.5752 20.2734C7.93501 20.2735 7.65046 20.4589 7.65039 20.7783C7.65039 22.1109 12.7576 21.2822 12.7578 24.5137C12.7578 26.5746 11.044 27.5722 8.60352 27.5723C6.25651 27.5723 4.73034 26.2033 4.66895 24.5986H7.45898C7.48399 24.7428 7.53994 24.8805 7.62305 25.001C7.70614 25.1214 7.81455 25.2223 7.94043 25.2969C8.1908 25.4446 8.47688 25.5211 8.76758 25.5186C9.49446 25.5186 9.97642 25.2841 9.97656 24.8643C9.97656 23.5205 4.86914 24.4454 4.86914 21.0547C4.86916 19.1682 6.49778 18.2178 8.71777 18.2178ZM21.5322 20.7842H18.916V27.332H16.0078V20.7842H13.3906V18.4521H21.5322V20.7842ZM36.8506 18.4521C39.4036 18.4523 40.6385 19.623 40.6387 21.4492C40.6387 23.3594 39.5001 24.5682 36.9482 24.5684H35.4824V27.3311L32.5703 27.332V18.4521H36.8506ZM26.873 20.3945C25.5544 20.3945 25.1582 21.7138 25.1582 22.8496C25.1582 23.9854 25.5012 25.4014 26.8965 25.4014C28.1563 25.4013 28.6494 24.3188 28.6494 22.8496C28.6494 21.6427 28.1565 20.3585 26.873 20.3945ZM35.4824 22.4971H36.6895C37.3661 22.4971 37.8632 22.2268 37.8633 21.4609C37.8633 20.6349 36.9253 20.5244 36.3086 20.5244H35.4824V22.4971Z" fill="#FF4F54"/>
</svg>
