<svg width="63" height="63" viewBox="0 0 63 63" fill="none" xmlns="http://www.w3.org/2000/svg">
<path d="M49.4219 43.9561C50.9626 44.1508 52.5196 44.1838 54.0674 44.0566L52.0107 55.0273H46.9775L49.4219 43.9561ZM22.8887 30.7588L7.60352 55.0264H2.14551L19.8496 27.3057L22.8887 30.7588ZM29.7559 36.6621L19.1533 55.0264H13.4121L26.3242 33.9316L29.7559 36.6621ZM41.1445 42.2539C41.1606 42.2589 42.9797 42.8184 45.5146 43.4004L41.0332 55.0264H35.8174L41.1445 42.2539ZM37.0811 40.7021L30.2725 55.0195L24.9521 55.002L32.9971 38.5752L37.0811 40.7021ZM22.915 20.2305C26.5568 11.0462 37.6867 3.91728 49.3291 8.41016C59.7646 12.4431 60.9214 23.6293 58.7568 31.9834C56.9016 39.1013 53.8912 40.231 51.6953 39.9199C37.6838 37.9336 26.9945 28.4473 24.0469 25.585L23.9043 25.4473L23.7803 25.2969C23.2379 24.6268 22.8654 23.8352 22.6943 22.9902C22.5233 22.1453 22.5588 21.2717 22.7979 20.4434L22.915 20.2305ZM47.9639 11.958C43.8274 10.4128 39.248 10.5614 35.2207 12.3721C31.1935 14.1827 28.0435 17.5094 26.4541 21.6289V21.4863C26.3853 21.7176 26.3707 21.9615 26.4121 22.1992C26.4536 22.437 26.5502 22.6621 26.6934 22.8564C29.0235 25.1227 39.1672 34.3036 52.2227 36.1523V36.1543C54.5823 36.4883 60.9016 16.9554 47.9639 11.958Z" fill="#FBA600"/>
</svg>
