<svg width="57" height="42" viewBox="0 0 57 42" fill="none" xmlns="http://www.w3.org/2000/svg">
<path d="M18.1194 29.3995C18.1194 28.4718 18.8753 27.7198 19.8078 27.7198H26.9156C27.8481 27.7198 28.604 28.4718 28.604 29.3995C28.604 30.3271 27.8481 31.0791 26.9156 31.0791H19.8078C18.8753 31.0791 18.1194 30.3271 18.1194 29.3995Z" fill="white"/>
<path fill-rule="evenodd" clip-rule="evenodd" d="M20.2239 14.744C18.9806 14.744 17.9727 15.7467 17.9727 16.9836V20.3751H13.1455C11.9022 20.3751 10.8943 21.3778 10.8943 22.6147V27.5101H10.2367L5.13283 22.7814C4.7995 22.4725 4.36092 22.3008 3.90542 22.3008H2.25119C1.00789 22.3008 0 23.3035 0 24.5404V38.9426C0 40.1795 1.00789 41.1822 2.25119 41.1822H3.90542C4.36092 41.1822 4.7995 41.0105 5.13282 40.7016L10.2369 35.9728H10.8943V39.2766C10.8943 40.5135 11.9022 41.5161 13.1455 41.5161H38.9923C40.2356 41.5161 41.2435 40.5135 41.2435 39.2766V22.6147C41.2435 21.3778 40.2356 20.3751 38.9923 20.3751H34.1662V16.9836C34.1662 15.7467 33.1583 14.744 31.915 14.744H20.2239ZM30.7894 20.3751V18.1033H21.3495V20.3751H30.7894ZM14.2711 38.1568V23.7344H37.8667V38.1568H14.2711ZM3.37678 25.7449L8.90779 30.8694H10.825V32.6135H8.90796L3.37678 37.7381V25.7449Z" fill="white"/>
<path fill-rule="evenodd" clip-rule="evenodd" d="M45.4375 7.03024C43.2459 7.10781 41.5322 8.94729 41.6097 11.1388C41.6873 13.3304 43.5268 15.0441 45.7183 14.9666C47.9099 14.889 49.6236 13.0495 49.5461 10.858C49.4685 8.66641 47.629 6.95268 45.4375 7.03024ZM43.4324 11.0743C43.3905 9.88943 44.3171 8.89488 45.502 8.85294C46.6869 8.811 47.6814 9.73756 47.7234 10.9225C47.7653 12.1074 46.8387 13.1019 45.6538 13.1439C44.4689 13.1858 43.4744 12.2592 43.4324 11.0743Z" fill="white"/>
<path fill-rule="evenodd" clip-rule="evenodd" d="M43.1724 21.1246L42.7462 18.5374C42.434 18.445 42.1127 18.3116 41.7822 18.1371C41.4516 17.9626 41.1549 17.7736 40.8921 17.5701L38.5238 18.6691C38.2811 18.7856 38.0369 18.8068 37.7912 18.7327C37.5455 18.6587 37.3493 18.5105 37.2025 18.2881L35.3646 15.3342C35.2252 15.1116 35.176 14.8702 35.2171 14.6102C35.2581 14.3501 35.3799 14.1375 35.5824 13.9722L37.6077 12.3245C37.575 12.1542 37.5501 11.983 37.533 11.8107C37.5158 11.6384 37.5042 11.4667 37.4981 11.2955C37.4923 11.1316 37.4919 10.965 37.497 10.7956C37.5021 10.6262 37.5144 10.4407 37.5339 10.2391L35.3972 8.7387C35.1835 8.58816 35.0451 8.3847 34.9822 8.12832C34.9191 7.87196 34.953 7.62768 35.0837 7.39549L36.7089 4.34121C36.8396 4.10902 37.023 3.94737 37.2592 3.85625C37.4953 3.76513 37.7386 3.76909 37.9888 3.86811L40.4285 4.78588C40.6982 4.55614 40.9874 4.34457 41.296 4.15114C41.6047 3.9577 41.9091 3.80026 42.2092 3.67881L42.4625 1.0676C42.4918 0.807953 42.5978 0.588084 42.7806 0.407992C42.9633 0.227881 43.1839 0.133255 43.4421 0.124114L46.9288 0.000713088C47.1871 -0.00842748 47.4156 0.0703067 47.6143 0.236916C47.8131 0.403505 47.9362 0.615264 47.9837 0.872192L48.4104 3.47043C48.7602 3.58365 49.0779 3.71907 49.3635 3.87668C49.6491 4.0343 49.9384 4.22172 50.2312 4.43894L52.6442 3.34943C52.8869 3.23296 53.1291 3.20998 53.371 3.28049C53.6129 3.35098 53.8073 3.49741 53.954 3.71978L55.7915 6.6626C55.9383 6.88497 55.9893 7.12624 55.9446 7.38642C55.8999 7.64661 55.7762 7.85934 55.5737 8.02461L53.5054 9.70705C53.5533 9.89156 53.5819 10.0646 53.5913 10.226C53.6007 10.3875 53.6083 10.5502 53.6141 10.714C53.6197 10.8704 53.6216 11.0296 53.62 11.1915C53.6183 11.3533 53.5983 11.5391 53.5599 11.7489L55.7191 13.2595C55.9328 13.4101 56.0711 13.6135 56.1342 13.8699C56.1972 14.1263 56.1633 14.3705 56.0326 14.6027L54.4075 17.6614C54.2769 17.8936 54.0887 18.0566 53.843 18.1502C53.5973 18.2439 53.3493 18.2412 53.099 18.1422L50.6833 17.2125C50.4065 17.4499 50.1229 17.6613 49.8324 17.8466C49.542 18.032 49.243 18.1856 48.9355 18.3073L48.6936 20.9292C48.6643 21.1889 48.5565 21.4088 48.37 21.589C48.1836 21.7692 47.9612 21.8639 47.7029 21.8731L44.2162 21.9965C43.958 22.0056 43.7313 21.9268 43.5362 21.7601C43.3412 21.5934 43.2199 21.3815 43.1724 21.1246ZM42.0085 16.1279C42.1786 16.2596 42.3849 16.3929 42.6336 16.5242C42.8729 16.6506 43.0827 16.735 43.2639 16.7886L44.3599 17.1131L44.86 20.1487L46.9408 20.0751L47.2223 17.0239L48.2643 16.6115C48.4592 16.5343 48.6547 16.4347 48.8512 16.3092C49.0654 16.1725 49.2805 16.0129 49.496 15.8281L50.3224 15.1193L53.1207 16.1963L54.1002 14.3528L51.555 12.5721L51.7659 11.4204C51.791 11.2828 51.7959 11.204 51.7962 11.1727C51.7976 11.0376 51.796 10.9063 51.7914 10.7785C51.7861 10.6283 51.7792 10.4795 51.7706 10.3321C51.7692 10.3084 51.7632 10.2544 51.7401 10.1654L51.4456 9.03145L53.8827 7.04913L52.783 5.28791L50.0053 6.54208L49.1448 5.90386C48.9098 5.72958 48.6889 5.58753 48.4823 5.47353C48.3104 5.37867 48.1016 5.28747 47.8487 5.20564L46.7908 4.86323L46.2957 1.8481L44.2121 1.92184L43.9178 4.95491L42.8933 5.36946C42.7035 5.44631 42.4938 5.55287 42.2645 5.69659C42.0289 5.84426 41.8115 6.00361 41.6112 6.17427L40.7927 6.8715L37.9896 5.81701L37.0159 7.64679L39.4514 9.35696L39.3493 10.4144C39.3329 10.5834 39.3237 10.7281 39.32 10.8504C39.3161 10.9814 39.3164 11.1082 39.3208 11.231C39.3255 11.3628 39.3344 11.4957 39.3478 11.6297C39.3595 11.7475 39.3766 11.8646 39.3989 11.9812L39.604 13.0515L37.2726 14.9483L38.3785 16.7259L41.131 15.4486L42.0085 16.1279Z" fill="white"/>
</svg>
