<svg width="63" height="63" viewBox="0 0 63 63" fill="none" xmlns="http://www.w3.org/2000/svg">
<g clip-path="url(#clip0_4234_61756)">
<path d="M43.6355 29.6094C43.6355 28.7033 42.901 27.9688 41.9949 27.9688C41.0888 27.9688 40.3542 28.7033 40.3542 29.6094V31.9011H38.0625C37.1564 31.9011 36.4219 32.6357 36.4219 33.5417C36.4219 34.4478 37.1564 35.1824 38.0625 35.1824H40.3542V37.4767C40.3542 38.3828 41.0888 39.1173 41.9949 39.1173C42.901 39.1173 43.6355 38.3828 43.6355 37.4767V35.1824H45.9298C46.8359 35.1824 47.5704 34.4478 47.5704 33.5417C47.5704 32.6357 46.8359 31.9011 45.9298 31.9011H43.6355V29.6094Z" fill="white"/>
<path d="M17.0625 31.9011C16.1564 31.9011 15.4219 32.6357 15.4219 33.5417C15.4219 34.4478 16.1564 35.1824 17.0625 35.1824H24.9298C25.8359 35.1824 26.5704 34.4478 26.5704 33.5417C26.5704 32.6357 25.8359 31.9011 24.9298 31.9011H17.0625Z" fill="white"/>
<path fill-rule="evenodd" clip-rule="evenodd" d="M15.2424 16.0947C14.5176 16.0947 13.9299 16.6824 13.9299 17.4072V20.1809H10.5C9.05025 20.1809 7.875 21.3562 7.875 22.8059V44.2853C7.875 45.735 9.05025 46.9103 10.5 46.9103H52.5C53.9497 46.9103 55.125 45.735 55.125 44.2853V22.8059C55.125 21.3562 53.9497 20.1809 52.5 20.1809H48.9031V17.4072C48.9031 16.6824 48.3155 16.0947 47.5906 16.0947H42.0256C41.3008 16.0947 40.7131 16.6824 40.7131 17.4072V20.1809H22.1199V17.4072C22.1199 16.6824 21.5323 16.0947 20.8074 16.0947H15.2424ZM11.8125 42.9728V24.1184H51.1875V42.9728H11.8125Z" fill="white"/>
</g>
<defs>
<clipPath id="clip0_4234_61756">
<rect width="63" height="63" fill="white"/>
</clipPath>
</defs>
</svg>
