<svg width="63" height="63" viewBox="0 0 63 63" fill="none" xmlns="http://www.w3.org/2000/svg">
<g clip-path="url(#clip0_4234_61777)">
<path fill-rule="evenodd" clip-rule="evenodd" d="M14.5695 8.03711C15.3809 8.03711 16.0403 8.69464 16.0409 9.50598V53.4952C16.0405 54.3068 15.3811 54.9641 14.5695 54.9641C13.7584 54.9635 13.101 54.3064 13.1006 53.4952V33.313L4.20532 38.5758C3.50575 38.9895 2.62193 38.486 2.62109 37.6735V21.3082C2.62143 20.497 3.27883 19.84 4.08997 19.8394C4.90162 19.8394 5.56107 20.4967 5.5614 21.3082V25.1816L13.1006 29.6421V9.50598C13.1012 8.69502 13.7585 8.03772 14.5695 8.03711ZM5.5614 34.3589L10.4294 31.4775L5.5614 28.5988V34.3589Z" fill="white"/>
<path d="M52.5525 45.4434C53.3208 45.4424 53.9592 46.0334 54.0188 46.7994C54.1095 47.9688 54.5542 48.8929 55.2928 49.5552C56.0426 50.2267 57.2241 50.7423 58.974 50.842C59.7845 50.8881 60.4044 51.5824 60.3583 52.3929C60.3116 53.2029 59.6175 53.8233 58.8074 53.7772C56.563 53.6493 54.6902 52.9641 53.3292 51.7444C53.0199 51.4671 52.7431 51.1653 52.4987 50.8472C50.9993 52.6955 48.5874 53.7952 46.09 53.7952C43.5539 53.7948 41.1167 52.6665 39.6249 50.778C38.1304 52.6667 35.6911 53.795 33.1624 53.7952C30.6595 53.7948 28.2505 52.698 26.7537 50.8523C26.5101 51.169 26.2341 51.4681 25.9257 51.7444C24.5627 52.965 22.6847 53.6497 20.427 53.7772C19.617 53.8223 18.9219 53.2005 18.8761 52.3904C18.831 51.5808 19.451 50.8886 20.2604 50.842C22.028 50.7423 23.213 50.2253 23.962 49.5552C24.6996 48.8945 25.14 47.9715 25.231 46.7994C25.2904 46.0336 25.9318 45.4428 26.6998 45.4434C27.4685 45.4447 28.1067 46.0381 28.1636 46.8046C28.3274 49.0192 30.4306 50.8543 33.1624 50.8549C35.8846 50.8546 37.9974 49.0122 38.1611 46.8046C38.2181 46.0378 38.8563 45.4445 39.6249 45.4434C40.3945 45.4434 41.0342 46.0371 41.0912 46.8046C41.255 49.0134 43.3591 50.8542 46.09 50.8549C48.8134 50.8549 50.9249 49.0181 51.0887 46.8046C51.1456 46.0385 51.7844 45.4454 52.5525 45.4434Z" fill="white"/>
<path d="M47.123 14.4048C50.4944 14.7342 53.2297 17.2069 53.9675 20.4418C57.6091 21.1079 60.3705 24.2884 60.3711 28.1219C60.371 31.9567 57.6079 35.1367 53.965 35.8021C53.1722 39.2806 50.0697 41.8776 46.3514 41.8776C45.5404 41.8769 44.883 41.2198 44.8826 40.4087C44.8826 39.5972 45.5401 38.9379 46.3514 38.9373C48.9391 38.9373 51.0573 36.9223 51.2195 34.3768L51.3041 33.0259L52.655 33.0002C55.3012 32.9459 57.4307 30.7811 57.4308 28.1219C57.4302 25.4637 55.3027 23.3013 52.6576 23.2462L51.3066 23.218L51.222 21.8696C51.0704 19.4831 49.1987 17.5634 46.8334 17.3323L46.354 17.3066L46.0566 17.2784C45.3875 17.1408 44.8827 16.5476 44.8826 15.8378C44.8826 15.0263 45.5427 14.3695 46.354 14.3689L47.123 14.4048Z" fill="white"/>
<path d="M43.042 32.7003L43.3342 32.7567C43.9887 32.9549 44.4353 33.5925 44.3699 34.2999C44.3038 35.0061 43.7488 35.55 43.0702 35.6252L42.7703 35.6278L20.2117 33.5411L19.9194 33.4847C19.2667 33.2858 18.8188 32.6477 18.8838 31.9415C18.9588 31.1343 19.6762 30.5404 20.4834 30.6136L43.042 32.7003Z" fill="white"/>
<path d="M23.4006 22.4054C23.5052 23.4549 23.8682 24.4281 24.4158 25.2662L20.4834 25.6302C19.6765 25.7034 18.9592 25.1092 18.8838 24.3024C18.8092 23.495 19.4049 22.7791 20.2117 22.7028L23.4006 22.4054Z" fill="white"/>
<path d="M29.1403 16.9375C29.4727 16.4895 30.1382 16.4895 30.4707 16.9375L32.665 19.865C33.0303 20.4133 33.2469 21.0617 33.2469 21.7594C33.2465 23.6538 31.7167 25.184 29.8221 25.1842H29.7888C27.8946 25.1836 26.3644 23.6536 26.364 21.7594C26.364 21.0619 26.5808 20.4132 26.9459 19.865L29.1403 16.9375Z" fill="white"/>
<path d="M42.7703 20.6161C43.5785 20.5414 44.2948 21.1359 44.3699 21.944C44.4444 22.7522 43.8503 23.4688 43.042 23.5436L35.7463 24.2178C36.0604 23.4604 36.2385 22.6312 36.2385 21.7594C36.2385 21.5778 36.2279 21.3983 36.2129 21.2211L42.7703 20.6161Z" fill="white"/>
<path d="M35.9899 9.52393C36.3222 9.07655 36.9851 9.07692 37.3177 9.52393L39.5121 12.4514C39.8777 12.9999 40.094 13.6478 40.094 14.3458C40.0936 16.24 38.566 17.77 36.6718 17.7706H36.6384C34.7442 17.77 33.2141 16.24 33.2136 14.3458C33.2136 13.6482 33.4303 12.9997 33.7955 12.4514L35.9899 9.52393Z" fill="white"/>
</g>
<defs>
<clipPath id="clip0_4234_61777">
<rect width="63" height="63" fill="white"/>
</clipPath>
</defs>
</svg>
