<svg width="63" height="63" viewBox="0 0 63 63" fill="none" xmlns="http://www.w3.org/2000/svg">
<g clip-path="url(#clip0_4234_61788)">
<path fill-rule="evenodd" clip-rule="evenodd" d="M50.3826 8.68544V45.5917C48.5033 46.746 47.25 48.8205 47.25 51.1876C47.25 54.812 50.1881 57.7501 53.8125 57.7501C57.4369 57.7501 60.375 54.812 60.375 51.1876C60.375 48.8185 59.1196 46.7426 57.2378 45.5889V8.68544C57.2378 6.79241 55.7032 5.25781 53.8102 5.25781C51.9172 5.25781 50.3826 6.79241 50.3826 8.68544ZM53.8102 7.35781C53.077 7.35781 52.4826 7.95221 52.4826 8.68544V31.5001H55.1378V8.68544C55.1378 7.95221 54.5434 7.35781 53.8102 7.35781Z" fill="white"/>
<path d="M19.8001 31.1335C20.4866 31.1348 21.0561 31.6647 21.1067 32.3493C21.1898 33.4727 22.2781 34.4935 23.8114 34.4935C25.3387 34.4935 26.4332 33.4682 26.5161 32.349C26.5669 31.6637 27.1378 31.1335 27.825 31.1335C28.5123 31.1335 29.0832 31.6637 29.1339 32.349C29.217 33.4694 30.3063 34.4935 31.8387 34.4935C33.3669 34.4935 34.4604 33.4715 34.5434 32.3493C34.594 31.6647 35.1635 31.1348 35.8499 31.1335C36.5364 31.1323 37.1078 31.6602 37.1609 32.3446C37.2103 32.9817 37.4463 33.454 37.819 33.788C38.2016 34.1308 38.8409 34.4275 39.8612 34.4856C40.5849 34.5267 41.1382 35.1468 41.097 35.8705C41.0559 36.5942 40.4358 37.1475 39.7121 37.1063C38.2511 37.0232 36.9953 36.5748 36.0671 35.7428C35.9781 35.6631 35.8931 35.5807 35.8121 35.4958C34.7953 36.5262 33.3297 37.1185 31.8387 37.1185C30.3232 37.1185 28.8404 36.5088 27.8241 35.4538C26.8063 36.509 25.3225 37.1185 23.8114 37.1185C22.3171 37.1185 20.8533 36.5267 19.8379 35.4978C19.7575 35.582 19.673 35.6638 19.5846 35.743C18.6547 36.5761 17.3953 37.0235 15.9265 37.1064C15.2028 37.1472 14.583 36.5937 14.5422 35.8699C14.5013 35.1462 15.0549 34.5264 15.7786 34.4855C16.8105 34.4273 17.4516 34.1296 17.8331 33.7878C18.2045 33.4551 18.4396 32.9839 18.4892 32.3446C18.5423 31.6602 19.1137 31.1323 19.8001 31.1335Z" fill="white"/>
<path fill-rule="evenodd" clip-rule="evenodd" d="M37.7093 10.1053C39.1591 10.1053 40.3343 11.2806 40.3343 12.7303V20.4605C44.0908 23.869 46.4498 28.7901 46.4498 34.2621C46.4498 44.5518 38.1084 52.8932 27.8187 52.8932C17.529 52.8932 9.1875 44.5518 9.1875 34.2621C9.1875 28.7861 11.5499 23.862 15.3111 20.4531V12.7303C15.3111 11.2806 16.4864 10.1053 17.9361 10.1053H37.7093ZM18.5924 21.9077L17.5146 22.8844C14.4107 25.6975 12.4688 29.7507 12.4688 34.2621C12.4688 42.7396 19.3411 49.612 27.8187 49.612C36.2962 49.612 43.1686 42.7396 43.1686 34.2621C43.1686 29.7539 41.2294 25.7033 38.1294 22.8905L37.0531 21.9139V13.3866H18.5924V21.9077Z" fill="white"/>
</g>
<defs>
<clipPath id="clip0_4234_61788">
<rect width="63" height="63" fill="white"/>
</clipPath>
</defs>
</svg>
