<svg width="63" height="63" viewBox="0 0 63 63" fill="none" xmlns="http://www.w3.org/2000/svg">
<g clip-path="url(#clip0_4240_63126)">
<path fill-rule="evenodd" clip-rule="evenodd" d="M36.2308 10.5205C37.5783 10.5212 38.6708 11.616 38.6713 12.9635V25.5989C39.0439 25.5966 39.3946 25.5937 39.7095 25.5989C40.4115 25.6105 41.1042 25.6519 41.7679 25.7988C43.2434 26.1258 44.3084 26.9191 45.3671 28.2828C46.0456 29.1575 46.3861 30.237 46.5693 31.2642C46.7548 32.3057 46.8048 33.4419 46.8052 34.5403C46.8054 35.6377 46.7565 36.7862 46.7231 37.8138C46.6975 38.6047 46.6795 39.331 46.6949 39.9774L46.7231 40.5978L46.7257 40.6311L46.7667 41.1489C46.9088 42.3029 47.3346 43.0967 47.8408 43.5868C48.405 44.1322 49.2143 44.4436 50.2761 44.3481L50.5837 44.3046C52.104 44.0143 53.2724 42.627 53.0831 40.8849C52.7744 38.0586 52.2359 33.3385 52.0142 31.6154C51.9034 30.7544 51.7265 28.8777 51.5194 27.0908C51.3017 25.2121 51.0395 23.3238 50.7375 22.1151C50.2131 20.0185 48.4691 16.8451 44.7134 14.9425L43.9341 14.5785C43.1453 14.2409 42.7497 13.3525 43.0266 12.5405C43.3049 11.7286 44.1622 11.2678 44.9928 11.4844C47.4197 12.1176 50.3382 14.001 52.8293 16.2909C55.1771 18.4493 57.367 21.1721 58.4946 23.9531L58.7074 24.5094L58.7843 24.8324C58.888 25.5879 58.4522 26.3402 57.7051 26.6038C56.9577 26.8668 56.1445 26.5551 55.7517 25.9014L55.6107 25.6014L55.4492 25.1708C55.1499 24.4357 54.7395 23.6798 54.2469 22.9252C54.4546 24.1133 54.6352 25.4636 54.7802 26.714C55.007 28.6715 55.1568 30.317 55.2698 31.1949C55.4958 32.9516 56.0376 37.7014 56.3464 40.5286C56.7338 44.0858 54.2913 46.9364 51.1964 47.5294L50.5684 47.6166C48.6597 47.788 46.8799 47.2222 45.5593 45.9452C44.2539 44.6817 43.542 42.8631 43.447 40.7798C43.3866 39.8198 43.4082 38.7467 43.4419 37.7062C43.4769 36.6254 43.5242 35.5689 43.5239 34.5428C43.5236 33.5182 43.4753 32.6018 43.3394 31.8384C43.2007 31.0613 42.9919 30.5748 42.7754 30.2952C42.0425 29.351 41.5857 29.1202 41.0579 29.0032C40.7202 28.9285 40.2904 28.8907 39.6556 28.8801C39.3463 28.875 39.0263 28.8778 38.6713 28.8801V49.1982H40.0222L40.3529 49.2316C41.1007 49.3844 41.6628 50.0459 41.6628 50.8389C41.6622 51.6314 41.1004 52.2935 40.3529 52.4462L40.0222 52.4795H15.1309C14.2252 52.4795 13.4909 51.7444 13.4902 50.8389C13.4902 49.9328 14.2248 49.1982 15.1309 49.1982H16.4895V33.6046L5.03333 40.4055C4.15908 40.9234 3.05301 40.2936 3.05176 39.2776V18.1622C3.05176 17.2561 3.78629 16.5216 4.69238 16.5216C5.59847 16.5216 6.33301 17.2561 6.33301 18.1622V23.4199L16.4895 29.4467V12.9635C16.4899 11.6159 17.5823 10.521 18.9299 10.5205H36.2308ZM19.7708 49.1982H35.39V28.8853H19.7708V49.1982ZM6.33301 35.8195L13.5646 31.5282L6.33301 27.2369V35.8195ZM19.7708 25.604H35.39V13.8043H19.7708V25.604Z" fill="white"/>
</g>
<defs>
<clipPath id="clip0_4240_63126">
<rect width="63" height="63" fill="white"/>
</clipPath>
</defs>
</svg>
