<svg width="63" height="63" viewBox="0 0 63 63" fill="none" xmlns="http://www.w3.org/2000/svg">
<path fill-rule="evenodd" clip-rule="evenodd" d="M36.2299 10.5205C37.5773 10.5212 38.6698 11.616 38.6703 12.9635V25.5989C39.043 25.5966 39.3936 25.5937 39.7085 25.5989C40.4106 25.6105 41.1032 25.6519 41.767 25.7988C43.2424 26.1258 44.3075 26.9191 45.3661 28.2828C46.0446 29.1575 46.3851 30.237 46.5684 31.2642C46.7538 32.3057 46.8038 33.4419 46.8042 34.5403C46.8045 35.6377 46.7555 36.7861 46.7222 37.8138C46.6965 38.6047 46.6785 39.331 46.694 39.9774L46.7222 40.5978L46.7247 40.6311L46.7657 41.1489C46.9078 42.3029 47.3336 43.0967 47.8398 43.5868C48.404 44.1322 49.2133 44.4436 50.2751 44.3481L50.5828 44.3046C52.103 44.0143 53.2714 42.627 53.0822 40.8849C52.7734 38.0586 52.2349 33.3385 52.0132 31.6154C51.9024 30.7544 51.7255 28.8777 51.5184 27.0908C51.3007 25.2121 51.0385 23.3238 50.7366 22.1151C50.2122 20.0185 48.4681 16.8451 44.7124 14.9425L43.9331 14.5785C43.1443 14.2409 42.7487 13.3525 43.0256 12.5405C43.3039 11.7286 44.1612 11.2678 44.9918 11.4844C47.4187 12.1176 50.3372 14.001 52.8284 16.2909C55.1761 18.4493 57.3661 21.1721 58.4937 23.9531L58.7064 24.5094L58.7833 24.8324C58.8871 25.5879 58.4512 26.3402 57.7041 26.6038C56.9567 26.8668 56.1435 26.5551 55.7507 25.9014L55.6097 25.6014L55.4482 25.1708C55.149 24.4357 54.7386 23.6798 54.246 22.9252C54.4537 24.1133 54.6343 25.4636 54.7792 26.714C55.006 28.6715 55.1558 30.317 55.2688 31.1949C55.4949 32.9516 56.0366 37.7014 56.3455 40.5286C56.7329 44.0858 54.2904 46.9364 51.1954 47.5294L50.5674 47.6166C48.6588 47.788 46.8789 47.2222 45.5583 45.9452C44.2529 44.6817 43.541 42.8631 43.446 40.7798C43.3856 39.8198 43.4072 38.7467 43.4409 37.7062C43.476 36.6254 43.5232 35.5689 43.5229 34.5428C43.5226 33.5182 43.4744 32.6018 43.3384 31.8384C43.1997 31.0613 42.991 30.5748 42.7744 30.2952C42.0415 29.351 41.5847 29.1202 41.0569 29.0032C40.7193 28.9285 40.2894 28.8907 39.6547 28.8801C39.3454 28.875 39.0253 28.8778 38.6703 28.8801V49.1982H40.0212L40.3519 49.2316C41.0997 49.3844 41.6619 50.0459 41.6619 50.8389C41.6613 51.6314 41.0995 52.2935 40.3519 52.4462L40.0212 52.4795H15.1299C14.2242 52.4795 13.49 51.7444 13.4893 50.8389C13.4893 49.9328 14.2238 49.1982 15.1299 49.1982H16.4885V33.6046L5.03235 40.4055C4.15811 40.9234 3.05204 40.2936 3.05078 39.2776V18.1622C3.05078 17.2561 3.78531 16.5216 4.69141 16.5216C5.5975 16.5216 6.33203 17.2561 6.33203 18.1622V23.4199L16.4885 29.4467V12.9635C16.489 11.6159 17.5813 10.521 18.929 10.5205H36.2299ZM19.7698 49.1982H35.389V28.8853H19.7698V49.1982ZM6.33203 35.8195L13.5636 31.5282L6.33203 27.2369V35.8195ZM19.7698 25.604H35.389V13.8043H19.7698V25.604Z" fill="white"/>
</svg>
