<svg width="63" height="63" viewBox="0 0 63 63" fill="none" xmlns="http://www.w3.org/2000/svg">
<g clip-path="url(#clip0_4234_61798)">
<path fill-rule="evenodd" clip-rule="evenodd" d="M50.3826 8.68544V45.5917C48.5033 46.746 47.25 48.8205 47.25 51.1876C47.25 54.812 50.1881 57.7501 53.8125 57.7501C57.4369 57.7501 60.375 54.812 60.375 51.1876C60.375 48.8185 59.1196 46.7426 57.2378 45.5889V8.68544C57.2378 6.79241 55.7032 5.25781 53.8102 5.25781C51.9172 5.25781 50.3826 6.79241 50.3826 8.68544ZM53.8102 7.35781C53.077 7.35781 52.4826 7.95221 52.4826 8.68544V31.5001H55.1378V8.68544C55.1378 7.95221 54.5434 7.35781 53.8102 7.35781Z" fill="white"/>
<path d="M28.875 7.47009C29.7811 7.47009 30.5156 8.20463 30.5156 9.11072V12.2894L36.2979 12.2894C37.204 12.2894 37.9386 13.024 37.9386 13.9301C37.9386 14.8361 37.204 15.5707 36.2979 15.5707L21.4512 15.5707C20.5451 15.5707 19.8105 14.8361 19.8105 13.9301C19.8105 13.024 20.5451 12.2894 21.4512 12.2894L27.2344 12.2894V9.11072C27.2344 8.20463 27.9689 7.47009 28.875 7.47009Z" fill="white"/>
<path d="M15.1758 10.6283C16.0819 10.6283 16.8164 11.3628 16.8164 12.2689V49.5862H40.9324V12.2689C40.9324 11.3628 41.6669 10.6283 42.573 10.6283C43.4791 10.6283 44.2137 11.3628 44.2137 12.2689V50.7675C44.2137 51.9273 43.2735 52.8675 42.1137 52.8675H15.6352C14.4754 52.8675 13.5352 51.9273 13.5352 50.7675V12.2689C13.5352 11.3628 14.2697 10.6283 15.1758 10.6283Z" fill="white"/>
<path fill-rule="evenodd" clip-rule="evenodd" d="M32.5842 26.7727C31.9202 25.653 30.8186 23.8328 29.9884 22.4654C29.4801 21.6282 28.2696 21.6252 27.7593 22.4611C27.0269 23.6611 26.0457 25.2796 25.1653 26.7678L24.6357 27.6652C22.3948 31.436 21.1641 33.5102 21.1641 35.859C21.1641 40.1104 24.6259 43.5723 28.8772 43.5723C33.1285 43.5723 36.5904 40.1104 36.5904 35.859C36.5904 33.5172 35.3569 31.4396 33.1246 27.68L33.1187 27.6701L32.5842 26.7727ZM27.9894 28.4385L27.4565 29.3415C26.3035 31.2816 25.5413 32.5731 25.0428 33.6616C24.5756 34.6819 24.4453 35.3094 24.4453 35.859C24.4453 38.2982 26.4381 40.291 28.8772 40.291C31.3163 40.291 33.3091 38.2982 33.3091 35.859C33.3091 35.3143 33.1791 34.6878 32.7103 33.6652C32.2109 32.5759 31.4487 31.2845 30.2984 29.3471L29.762 28.4464C29.5151 28.0303 29.2058 27.5139 28.8716 26.9587C28.5749 27.453 28.2761 27.9539 27.9894 28.4385Z" fill="white"/>
</g>
<defs>
<clipPath id="clip0_4234_61798">
<rect width="63" height="63" fill="white"/>
</clipPath>
</defs>
</svg>
