<svg width="173" height="57" viewBox="0 0 173 57" fill="none" xmlns="http://www.w3.org/2000/svg">
<g clip-path="url(#clip0_40002420_5)">
<path d="M13.1307 38.4482H163.423L158.852 56.335H0L13.1307 38.4482Z" fill="#FF9200"/>
<path d="M40.9026 42.8424C39.4922 42.248 38.412 41.9883 37.3521 41.9883C34.06 41.9883 31.6758 44.3053 31.6758 47.4764C31.6758 49.6549 33.3735 52.6586 37.2601 52.6586C38.8832 52.6586 39.992 52.2777 41.0089 51.7439V50.1136C39.8397 50.8754 38.5643 51.288 37.398 51.288C34.9075 51.288 33.2098 49.6751 33.2098 47.3408C33.2098 45.0064 34.9707 43.3617 37.3377 43.3617C38.5356 43.3617 39.6272 43.6965 40.9026 44.4438V42.8424Z" fill="black"/>
<path fill-rule="evenodd" clip-rule="evenodd" d="M42.8242 47.3234C42.8242 50.1425 44.9643 52.6586 48.3482 52.6586C51.7322 52.6586 53.947 50.1281 53.947 47.3234C53.947 44.5188 51.7925 41.9883 48.377 41.9883C44.9614 41.9883 42.8242 44.4409 42.8242 47.3234ZM44.3582 47.3234C44.3582 45.0382 46.0731 43.3617 48.3798 43.3617C50.6866 43.3617 52.4159 45.0382 52.4159 47.3234C52.4159 49.6087 50.7009 51.288 48.3798 51.288C46.0588 51.288 44.3582 49.5972 44.3582 47.3234Z" fill="black"/>
<path d="M66.1044 42.127H64.7083V50.1744L57.6991 42.127H56.5156V52.5203H57.9117V44.5161L64.8318 52.5203H66.1044V42.127Z" fill="black"/>
<path d="M74.0529 42.7212C73.3203 42.2335 72.5332 41.9883 71.7461 41.9883C69.8502 41.9883 68.6035 43.0703 68.6035 44.7612C68.6035 47.6091 73.079 47.8544 73.079 50.004C73.079 50.584 72.5476 51.314 71.3928 51.314C70.3759 51.314 69.4222 50.7802 68.6638 49.8049V51.6949C69.5256 52.3499 70.4362 52.6557 71.5623 52.6557C73.2313 52.6557 74.4608 51.4669 74.4608 49.8366C74.4608 46.5271 69.9852 46.5588 69.9852 44.565C69.9852 43.8321 70.6689 43.3271 71.6226 43.3271C72.3207 43.3271 73.171 43.5724 74.0529 44.412V42.7183V42.7212Z" fill="black"/>
<path d="M84.3076 42.127H75.6582V43.4687H79.2432V52.5232H80.7284V43.4687H84.3105V42.127H84.3076Z" fill="black"/>
<path fill-rule="evenodd" clip-rule="evenodd" d="M86.1836 42.127V52.5203H87.6716V48.0075H88.2921C89.0533 48.0075 89.6738 48.2527 91.0412 50.3851L92.4057 52.5203H94.1809C93.4685 51.5306 93.21 51.1785 92.7705 50.463C91.9805 49.1674 91.4031 48.2066 90.4638 47.5833C91.5726 47.1389 92.196 46.2416 92.196 45.0384C92.196 43.2407 90.8889 42.127 88.7948 42.127H86.1836ZM87.6716 43.4052H88.6253C90.0702 43.4052 90.6448 43.9996 90.6591 44.9749C90.6735 45.8434 90.2196 46.6686 88.6253 46.6686H87.6716V43.4052Z" fill="black"/>
<path d="M104.312 42.127H102.827V48.1777C102.827 49.153 102.704 49.9147 102.175 50.4485C101.704 50.9217 100.885 51.2882 99.7448 51.2882C98.8486 51.2882 98.1074 50.9968 97.5157 50.4053C97.0446 49.9349 96.8923 49.4444 96.8923 48.27V42.1298H95.4043V48.5903C95.4043 51.4267 97.53 52.6617 99.7161 52.6617C102.796 52.6617 104.312 50.9852 104.312 48.4403V42.1298V42.127Z" fill="black"/>
<path d="M115.936 42.8424C114.525 42.248 113.445 41.9883 112.385 41.9883C109.093 41.9883 106.709 44.3053 106.709 47.4764C106.709 49.6549 108.407 52.6586 112.293 52.6586C113.916 52.6586 115.025 52.2777 116.042 51.7439V50.1136C114.873 50.8754 113.6 51.288 112.431 51.288C109.944 51.288 108.243 49.6751 108.243 47.3408C108.243 45.0064 110.001 43.3617 112.368 43.3617C113.569 43.3617 114.663 43.6965 115.936 44.4438V42.8424Z" fill="black"/>
<path d="M126.081 42.127H117.432V43.4687H121.014V52.5232H122.499V43.4687H126.081V42.127Z" fill="black"/>
<path d="M129.433 42.127H127.945V52.5203H129.433V42.127Z" fill="black"/>
<path fill-rule="evenodd" clip-rule="evenodd" d="M132.027 47.3234C132.027 50.1425 134.167 52.6586 137.551 52.6586C140.935 52.6586 143.15 50.1281 143.15 47.3234C143.15 44.5188 140.993 41.9883 137.58 41.9883C134.167 41.9883 132.027 44.4409 132.027 47.3234ZM133.558 47.3234C133.558 45.0382 135.273 43.3617 137.58 43.3617C139.887 43.3617 141.616 45.0382 141.616 47.3234C141.616 49.6087 139.901 51.288 137.58 51.288C135.259 51.288 133.558 49.5972 133.558 47.3234Z" fill="black"/>
<path d="M155.304 42.127H153.908V50.1744L146.898 42.127H145.715V52.5203H147.111V44.5161L154.031 52.5203H155.304V42.127Z" fill="black"/>
<path fill-rule="evenodd" clip-rule="evenodd" d="M140.088 1.1079H173L170.886 9.37465H150.062L148.939 13.5095H168.886L167.168 20.2152H147.227L146.138 24.3443H167.056L164.945 32.6226H132.011L140.088 1.1079ZM94.4023 21.5454H106.769C106.769 21.6291 106.64 26.1303 113.241 26.1303C117.76 26.1303 118.423 24.7078 118.581 24.0413C118.837 22.864 118.001 22.2725 116.306 21.8657C110.928 20.5759 103.557 18.1723 101.61 16.9922C100.251 16.1698 98.2315 14.3549 98.22 10.7279C98.2028 5.88905 103.916 -0.0837846 116.145 -0.000107105C122.264 0.0431743 126.018 1.26371 128.311 2.29669C133.217 4.50116 133.588 9.18133 133.47 11.1578L121.399 11.1376C121.399 11.1376 121.362 7.59723 116.326 7.40102C113.778 7.30003 110.974 7.73861 110.992 9.73245C111.009 11.4493 112.698 11.8359 116.786 12.765C117.737 12.9814 124.292 14.3203 126.389 15.0936C130.175 16.493 131.993 18.4782 131.419 22.6217C130.14 31.8637 118.199 33.3612 112.106 33.3959C104.485 33.4391 96.4275 32.0137 94.7327 24.3962C94.5259 23.47 94.4052 21.554 94.4052 21.554L94.4023 21.5454ZM79.6285 22.4399L78.6518 10.4682L70.8383 22.4399H79.6285ZM87.9821 1.09059L93.4917 32.6341H80.249L79.9388 28.8946H67.0695L64.6048 32.6197H50.6065L73.7224 1.09059H87.9821ZM54.0479 22.9477C53.4993 24.1019 52.5886 25.6427 51.1581 27.1835C48.3027 30.2565 43.3388 33.367 34.879 33.367C24.5865 33.367 20.5361 29.6852 18.5109 26.0524C17.0516 23.4382 16.7184 20.7375 16.9424 18.3253C17.3532 13.9567 21.5472 0.0720286 39.8142 0.0720286C50.0665 0.0720286 54.0996 3.43355 55.6422 7.17018C56.8688 10.1364 56.4178 14.7358 56.346 15.134H44.3443C44.7292 12.8199 44.0254 8.94184 39.9118 8.91875C35.3501 8.8899 31.024 12.2861 29.8232 16.7325C28.4903 21.6579 31.2394 24.679 35.5914 24.7684C40.2738 24.8636 42.5345 21.0433 42.6006 20.9539H54.858C54.7431 21.2828 54.3151 22.3908 54.0508 22.9477H54.0479Z" fill="white"/>
</g>
<defs>
<clipPath id="clip0_40002420_5">
<rect width="173" height="56.3322" fill="white"/>
</clipPath>
</defs>
</svg>
