<svg width="64" height="60" viewBox="0 0 64 60" fill="none" xmlns="http://www.w3.org/2000/svg">
<path d="M50.7933 51.3918C47.2104 51.3038 43.6624 52.1132 40.4721 53.7464C37.8131 55.0392 34.8951 55.711 31.9384 55.711C28.9818 55.711 26.0638 55.0392 23.4048 53.7464C20.1959 52.1982 16.6793 51.3937 13.1165 51.3924C9.55375 51.3912 6.03658 52.1934 2.82668 53.7393L1.91113 54.1594L2.78328 56.1402L3.70019 58.0636L4.61292 57.6436C7.26192 56.354 10.1695 55.6839 13.1157 55.6839C16.0619 55.6839 18.9696 56.354 21.6186 57.6436C24.8393 59.1944 28.368 59.9996 31.9426 59.9996C35.5172 59.9996 39.046 59.1944 42.2667 57.6436C44.9239 56.3505 47.8403 55.6785 50.7954 55.6785C53.7505 55.6785 56.667 56.3505 59.3241 57.6436L60.2565 58.072L62.0245 54.1607L61.102 53.7408C57.9163 52.108 54.3719 51.3003 50.7933 51.3918Z" fill="white"/>
<path d="M63.4176 45.0234H0.505859V49.2217H63.4176V45.0234Z" fill="white"/>
<path d="M19.9244 0C15.9834 0.000276878 12.1311 1.16917 8.85446 3.35888C5.57783 5.54858 3.02411 8.66071 1.51623 12.3018C0.00835274 15.9428 -0.385962 19.9493 0.383151 23.8145C1.15226 27.6797 3.05027 31.2299 5.83714 34.0164C8.62401 36.8029 12.1746 38.7004 16.0398 39.469C19.9051 40.2376 23.9115 39.8427 27.5524 38.3343C31.1932 36.8259 34.305 34.2717 36.4943 30.9947C38.6835 27.7178 39.8519 23.8653 39.8516 19.9244C39.8457 14.6414 37.7442 9.57664 34.0083 5.84129C30.2725 2.10595 25.2073 0.0051873 19.9244 0ZM19.9244 33.5718C17.2252 33.5718 14.5867 32.7713 12.3424 31.2718C10.0981 29.7722 8.34881 27.6407 7.31587 25.147C6.28294 22.6532 6.01267 19.9092 6.53925 17.2619C7.06584 14.6146 8.36567 12.1829 10.2743 10.2743C12.1829 8.36563 14.6146 7.06585 17.2619 6.53926C19.9093 6.01268 22.6533 6.2829 25.147 7.31584C27.6408 8.34878 29.7722 10.098 31.2718 12.3423C32.7714 14.5866 33.5718 17.2252 33.5718 19.9244C33.5681 23.5427 32.129 27.0119 29.5705 29.5704C27.0119 32.129 23.5428 33.568 19.9244 33.5718Z" fill="white"/>
<path d="M19.9241 16.9521C19.3363 16.9521 18.7617 17.1264 18.273 17.453C17.7842 17.7796 17.4033 18.2437 17.1784 18.7867C16.9534 19.3298 16.8946 19.9274 17.0093 20.5039C17.1239 21.0804 17.407 21.6099 17.8226 22.0256C18.2382 22.4412 18.7678 22.7242 19.3443 22.8389C19.9208 22.9536 20.5184 22.8947 21.0614 22.6698C21.6044 22.4449 22.0686 22.0639 22.3951 21.5752C22.7217 21.0865 22.896 20.5119 22.896 19.9241C22.8953 19.1361 22.5819 18.3806 22.0247 17.8234C21.4675 17.2662 20.7121 16.9529 19.9241 16.9521Z" fill="white"/>
<path d="M15.3783 13.3094C16.0765 13.3094 16.6424 12.7435 16.6424 12.0453C16.6424 11.3472 16.0765 10.7812 15.3783 10.7812C14.6802 10.7812 14.1143 11.3472 14.1143 12.0453C14.1143 12.7435 14.6802 13.3094 15.3783 13.3094Z" fill="white"/>
<path d="M10.8305 21.1893C11.5286 21.1893 12.0946 20.6234 12.0946 19.9252C12.0946 19.2271 11.5286 18.6611 10.8305 18.6611C10.1324 18.6611 9.56641 19.2271 9.56641 19.9252C9.56641 20.6234 10.1324 21.1893 10.8305 21.1893Z" fill="white"/>
<path d="M15.3783 29.0672C16.0765 29.0672 16.6424 28.5013 16.6424 27.8031C16.6424 27.105 16.0765 26.5391 15.3783 26.5391C14.6802 26.5391 14.1143 27.105 14.1143 27.8031C14.1143 28.5013 14.6802 29.0672 15.3783 29.0672Z" fill="white"/>
<path d="M24.4711 29.0672C25.1693 29.0672 25.7352 28.5013 25.7352 27.8031C25.7352 27.105 25.1693 26.5391 24.4711 26.5391C23.773 26.5391 23.207 27.105 23.207 27.8031C23.207 28.5013 23.773 29.0672 24.4711 29.0672Z" fill="white"/>
<path d="M29.0248 21.1893C29.723 21.1893 30.2889 20.6234 30.2889 19.9252C30.2889 19.2271 29.723 18.6611 29.0248 18.6611C28.3267 18.6611 27.7607 19.2271 27.7607 19.9252C27.7607 20.6234 28.3267 21.1893 29.0248 21.1893Z" fill="white"/>
<path d="M24.476 13.3094C25.1741 13.3094 25.7401 12.7435 25.7401 12.0453C25.7401 11.3472 25.1741 10.7812 24.476 10.7812C23.7779 10.7812 23.2119 11.3472 23.2119 12.0453C23.2119 12.7435 23.7779 13.3094 24.476 13.3094Z" fill="white"/>
</svg>
