<svg width="56" height="56" viewBox="0 0 56 56" fill="none" xmlns="http://www.w3.org/2000/svg">
<mask id="mask0_5512_6854" style="mask-type:luminance" maskUnits="userSpaceOnUse" x="0" y="0" width="56" height="56">
<path d="M56 0H0V56H56V0Z" fill="white"/>
</mask>
<g mask="url(#mask0_5512_6854)">
<path d="M22.4377 39.3365C19.0268 39.3373 15.7 38.2777 12.9179 36.3043C10.1357 34.3309 8.03587 31.5414 6.90897 28.322C5.78208 25.1025 5.68389 21.6123 6.628 18.3346C7.57212 15.0568 9.51183 12.1537 12.1786 10.027L12.1671 -0.00390625H32.3334V9.74453C34.3329 11.2544 35.9644 13.1976 37.1054 15.4282C38.3804 17.9366 38.9908 20.7301 38.8783 23.5418C38.7658 26.3534 37.934 29.0891 36.4626 31.4876C34.9911 33.886 32.9291 35.867 30.4737 37.2412C28.0183 38.6153 25.2515 39.3368 22.4377 39.3365ZM31.825 18.403C31.348 18.3874 30.8733 18.4755 30.4336 18.661C29.9939 18.8465 29.5996 19.1251 29.2779 19.4776C28.9561 19.8301 28.7146 20.2481 28.5699 20.7029C28.4252 21.1577 28.3807 21.6385 28.4396 22.1121C28.3955 22.5828 28.4504 23.0575 28.6006 23.5058C28.7509 23.954 28.9931 24.366 29.3119 24.7151C29.6307 25.0642 30.0189 25.3428 30.4517 25.5331C30.8845 25.7234 31.3523 25.8211 31.825 25.8199C32.3018 25.8352 32.7762 25.747 33.2157 25.5615C33.6551 25.376 34.0492 25.0975 34.3708 24.7452C34.6923 24.3928 34.9338 23.975 35.0785 23.5205C35.2233 23.066 35.2678 22.5855 35.2092 22.1121C35.2532 21.6414 35.1984 21.1667 35.0482 20.7185C34.8981 20.2702 34.6559 19.8583 34.3373 19.5091C34.0187 19.1599 33.6306 18.8811 33.198 18.6906C32.7654 18.5001 32.2977 18.4022 31.825 18.403ZM17.0122 18.5904V23.2599C16.9828 23.8762 17.1776 24.4823 17.5604 24.9661C17.8556 25.2534 18.2063 25.4773 18.5911 25.6241C18.9759 25.771 19.3867 25.8376 19.7981 25.8199C21.6918 25.8199 22.6932 24.9032 22.6932 23.1713V18.5904H21.1911V23.2342C21.1911 24.1329 20.7263 24.5758 19.7699 24.5758C18.9829 24.5758 18.5143 24.0481 18.5143 23.1636V18.593H17.0109L17.0122 18.5904ZM23.0359 18.5904V19.8345H25.162V25.6324H26.6358V19.8358H28.7618V18.5917H23.0359V18.5904ZM12.4418 24.1817H15.0403L15.4909 25.6324H17.0893L14.6063 18.5904H12.9117L10.4018 25.6324H11.9514L12.4418 24.1817ZM31.8276 24.5668C31.3782 24.5668 29.9134 24.3897 29.9134 22.1069C29.9134 19.8242 31.3782 19.6445 31.8276 19.6445C32.2769 19.6445 33.7392 19.8216 33.7392 22.1069C33.7392 24.3922 32.2731 24.572 31.825 24.572L31.8276 24.5668ZM14.6282 22.9633H12.8308L13.7295 20.1786H13.75L14.6217 22.962L14.6282 22.9633Z" fill="white"/>
<path d="M6.7384 46.1947H6.77051C6.97967 45.8322 7.29269 45.5406 7.66918 45.3576C8.05323 45.1784 8.47425 45.0926 8.8978 45.1073C9.17584 45.0788 9.45675 45.1078 9.7231 45.1925C9.98944 45.2772 10.2355 45.4158 10.446 45.5997C10.6565 45.7836 10.8269 46.0088 10.9466 46.2614C11.0663 46.5139 11.1328 46.7884 11.1419 47.0678V54.2857H8.63076V48.0833C8.63076 47.2822 8.48826 46.6569 7.68587 46.6569C6.88348 46.6569 6.74353 47.2822 6.74353 48.0833V54.2857H4.22852V45.2858H6.74353L6.7384 46.1947Z" fill="white"/>
<path d="M11.5654 55.9963L15.8239 41.418H17.6405L13.4039 55.9963H11.5654Z" fill="white"/>
<path d="M20.3956 46.1947H20.4289C20.6584 45.8551 20.9686 45.5778 21.3318 45.3878C21.6949 45.1978 22.0996 45.101 22.5095 45.1063C22.9193 45.1115 23.3214 45.2185 23.6796 45.4177C24.0378 45.6169 24.3409 45.902 24.5616 46.2474C24.8211 45.8744 25.1717 45.5739 25.5799 45.3744C25.9881 45.1749 26.4406 45.0829 26.8943 45.1073C27.1725 45.0788 27.4536 45.1078 27.7202 45.1925C27.9867 45.2771 28.2331 45.4157 28.4438 45.5995C28.6546 45.7834 28.8254 46.0085 28.9455 46.2611C29.0657 46.5137 29.1326 46.7882 29.1423 47.0678V54.2857H26.6285V48.0833C26.6285 47.2822 26.486 46.6569 25.6836 46.6569C24.8813 46.6569 24.7387 47.2822 24.7387 48.0833V54.2857H22.2828V48.0833C22.2828 47.2822 22.1403 46.6569 21.3379 46.6569C20.5355 46.6569 20.393 47.2822 20.393 48.0833V54.2857H17.8818V45.2857H20.393L20.3956 46.1947Z" fill="white"/>
<path d="M33.6703 54.2862H31.1592V45.2863H33.6703V54.2862ZM33.6703 41.418V43.3951H31.1592V41.418H33.6703Z" fill="white"/>
<path d="M38.4093 46.1945H38.4452C38.6522 45.8334 38.9618 45.542 39.3349 45.3574C39.7205 45.1789 40.1426 45.0931 40.5674 45.107C40.8452 45.0789 41.1258 45.1082 41.3919 45.1931C41.6579 45.278 41.9037 45.4166 42.1139 45.6005C42.3241 45.7843 42.4942 46.0094 42.6138 46.2618C42.7334 46.5141 42.7998 46.7884 42.8089 47.0675V54.2854H40.2978V48.083C40.2978 47.2819 40.1552 46.6567 39.3516 46.6567C38.5479 46.6567 38.4093 47.2819 38.4093 48.083V54.2854H35.8955V45.2855H38.4093V46.1945Z" fill="white"/>
<path d="M51.7505 34.4887H47.4767V26.9229H39.2602V34.4977H35.3984L43.5379 43.2935L51.7505 34.4887Z" fill="white"/>
</g>
</svg>
