<svg width="81" height="81" viewBox="0 0 81 81" fill="none" xmlns="http://www.w3.org/2000/svg">
<g clip-path="url(#clip0_1200_69401)">
<path d="M23.629 33.7126H48.2805C55.3141 33.7126 61.0159 39.4144 61.0159 46.448C61.0159 53.4816 55.3141 59.1834 48.2805 59.1834H34.5693C33.2042 59.1834 32.0975 60.2901 32.0975 61.6552C32.0975 63.0203 33.2042 64.1269 34.5693 64.1269H48.2805C58.0443 64.1269 65.9594 56.2118 65.9594 46.448C65.9594 36.6842 58.0443 28.7691 48.2805 28.7691H23.7526L31.3291 21.1927C32.3177 20.2042 32.3177 18.6015 31.3292 17.613C30.3407 16.6245 28.738 16.6244 27.7495 17.6129L15.7301 29.632C14.8074 30.5546 14.8074 32.0505 15.73 32.9731L27.749 44.9921C28.7375 45.9806 30.3402 45.9806 31.3288 44.9921C32.3173 44.0036 32.3173 42.4009 31.3288 41.4123L23.629 33.7126Z" fill="white"/>
</g>
<defs>
<clipPath id="clip0_1200_69401">
<rect width="81" height="81" fill="white"/>
</clipPath>
</defs>
</svg>
