<svg width="81" height="81" viewBox="0 0 81 81" fill="none" xmlns="http://www.w3.org/2000/svg">
<g clip-path="url(#clip0_5512_6841)">
<path d="M15.9824 19.8281C14.3515 19.8281 13.0293 21.1503 13.0293 22.7812C13.0293 24.4122 14.3515 25.7344 15.9824 25.7344H65.0163C66.6473 25.7344 67.9695 24.4122 67.9695 22.7812C67.9695 21.1503 66.6473 19.8281 65.0163 19.8281H15.9824Z" fill="white"/>
<path d="M15.9824 37.5469C14.3515 37.5469 13.0293 38.869 13.0293 40.5C13.0293 42.131 14.3515 43.4531 15.9824 43.4531H65.0163C66.6473 43.4531 67.9695 42.131 67.9695 40.5C67.9695 38.869 66.6473 37.5469 65.0163 37.5469H15.9824Z" fill="white"/>
<path d="M15.9824 55.2656C14.3515 55.2656 13.0293 56.5878 13.0293 58.2188C13.0293 59.8497 14.3515 61.1719 15.9824 61.1719H65.0163C66.6473 61.1719 67.9695 59.8497 67.9695 58.2188C67.9695 56.5878 66.6473 55.2656 65.0163 55.2656H15.9824Z" fill="white"/>
</g>
<defs>
<clipPath id="clip0_5512_6841">
<rect width="81" height="81" fill="white"/>
</clipPath>
</defs>
</svg>
