<svg width="108" height="108" viewBox="0 0 108 108" fill="none" xmlns="http://www.w3.org/2000/svg">
<path d="M12 50.0231V54.7512H46.6593V39.6133L12 50.0231Z" fill="white"/>
<path d="M49.6592 39.6095L71.9958 32.4512V54.7522H49.6592V39.6095Z" fill="white"/>
<path d="M94.1611 52.1992H76.4961V33.7266L94.1611 28.0566V52.1992Z" stroke="white" stroke-width="3"/>
<path d="M18.58 82V62.2H33.43V65.53H22.72V70.45H31.15V73.63H22.72V78.67H33.85V82H18.58ZM39.6644 80.14L38.9144 78.7H52.7744V82H36.3044V78.88L49.0844 64.06L49.8044 65.5H36.5444V62.2H52.4144V65.32L39.6644 80.14ZM56.5488 82V62.2H71.3988V65.53H60.6888V70.45H69.1187V73.63H60.6888V78.67H71.8188V82H56.5488ZM92.5431 62.2V82H88.4031V62.2H92.5431ZM79.6731 62.2V82H75.5331V62.2H79.6731ZM90.5631 70.33V73.66H77.6031V70.33H90.5631Z" fill="white"/>
</svg>
