<svg width="108" height="108" viewBox="0 0 108 108" fill="none" xmlns="http://www.w3.org/2000/svg">
<path fill-rule="evenodd" clip-rule="evenodd" d="M46.1621 33.5346C51.2469 33.5346 55.3676 29.388 55.3676 24.2712C55.3676 19.1544 51.2546 15 46.1621 15C41.0696 15 36.9567 19.1466 36.9567 24.2634C36.9567 29.3802 41.0773 33.5268 46.1621 33.5268V33.5346ZM46.1621 18.9589C49.0777 18.9589 51.4335 21.3373 51.4335 24.2634C51.4335 27.1895 49.0699 29.568 46.1621 29.568C43.2543 29.568 40.8907 27.1895 40.8907 24.2634C40.8907 21.3373 43.2543 18.9589 46.1621 18.9589Z" fill="white"/>
<path fill-rule="evenodd" clip-rule="evenodd" d="M45.7034 58.563H39.5612V50.0664C39.5612 48.971 38.6827 48.0869 37.5942 48.0869C36.5057 48.0869 35.6272 48.971 35.6272 50.0664V58.563H31.9419V46.5769C31.9419 42.931 34.873 39.9815 38.4961 39.9815H53.8437C54.5279 39.9815 55.1965 40.091 55.8185 40.2866C56.0673 39.7389 56.4249 39.246 56.8837 38.8314C57.5989 38.1663 58.5475 37.7751 59.5427 37.7125C57.9022 36.6407 55.9429 36.0148 53.8437 36.0148H38.4961C32.7038 36.0148 28 40.7482 28 46.5769V59.8853C28 61.3405 29.1818 62.5219 30.6279 62.5219H47.1262L46.2865 61.0745C45.8433 60.2999 45.6412 59.4315 45.7034 58.563Z" fill="white"/>
<path fill-rule="evenodd" clip-rule="evenodd" d="M61.9995 49.5578C59.2472 49.5578 57.0081 51.7876 57.0081 54.5259C57.0081 57.2643 59.2472 59.4941 61.9995 59.4941C64.7518 59.4941 66.9988 57.2721 66.9988 54.5259C66.9988 51.7798 64.7596 49.5578 61.9995 49.5578ZM61.9995 56.4428C60.9421 56.4428 60.0791 55.5821 60.0791 54.5338C60.0791 53.4854 60.9421 52.6326 61.9995 52.6326C63.0569 52.6326 63.9277 53.4854 63.9277 54.5338C63.9277 55.5821 63.0647 56.4428 61.9995 56.4428Z" fill="white"/>
<path fill-rule="evenodd" clip-rule="evenodd" d="M75.9554 50.6297C76.0643 50.1133 75.971 49.6048 75.7066 49.1666L73.5141 45.3877C73.2498 44.9496 72.8532 44.6366 72.379 44.4802C72.1768 44.4097 71.9669 44.3784 71.757 44.3784C71.4771 44.3784 71.1894 44.441 70.9328 44.5506L68.2583 45.6381C67.9939 45.4503 67.7296 45.2704 67.473 45.1139C67.2087 44.9574 66.921 44.8088 66.61 44.6836L66.2446 41.8592C66.1746 41.3506 65.9414 40.9203 65.5604 40.5761C65.1794 40.2318 64.7052 40.0519 64.192 40.0519H59.7992C59.2861 40.0519 58.8118 40.2396 58.4386 40.5839C58.0654 40.9203 57.8322 41.3506 57.7622 41.867L57.389 44.6679C57.1091 44.7931 56.8215 44.9339 56.5416 45.0982C56.2539 45.2625 55.9662 45.4425 55.6941 45.6381L53.0895 44.5584C52.8174 44.441 52.5375 44.3784 52.2576 44.3784C52.0399 44.3784 51.83 44.4176 51.6123 44.488C51.138 44.6523 50.7648 44.9574 50.4849 45.419L48.3157 49.151C48.0358 49.5969 47.9425 50.1133 48.0514 50.6297C48.1602 51.1382 48.4324 51.5685 48.8444 51.8815L51.1069 53.5793C51.0914 53.681 51.0836 53.7748 51.0836 53.8687C51.0681 54.0956 51.0603 54.3225 51.0603 54.5416C51.0603 54.7763 51.0681 55.0032 51.0836 55.2379C51.0836 55.3161 51.0914 55.4022 51.0991 55.4804L48.8444 57.1782C48.4324 57.4912 48.1602 57.9215 48.0592 58.4378C47.9581 58.9386 48.0436 59.4471 48.3002 59.8931L50.4927 63.6798C50.7648 64.1258 51.1458 64.4309 51.6278 64.5952C51.8378 64.6656 52.0555 64.7047 52.2732 64.7047C52.553 64.7047 52.8329 64.6421 53.0973 64.5248L55.7019 63.4373C55.9584 63.6172 56.2383 63.7972 56.5338 63.9693C56.8215 64.1336 57.1091 64.2744 57.3968 64.3996L57.7622 67.2005C57.8322 67.7012 58.0654 68.1316 58.4386 68.4758C58.8118 68.8201 59.2861 69 59.7992 69H64.192C64.7052 69 65.1794 68.8201 65.5604 68.4758C65.9336 68.1394 66.1746 67.7012 66.2446 67.1849L66.61 64.3761C66.8899 64.2509 67.1698 64.1101 67.4342 63.9536C67.7141 63.7972 67.9862 63.6172 68.2505 63.4216L70.8318 64.5091C71.0961 64.6265 71.376 64.6891 71.6559 64.6891C71.8814 64.6891 72.0991 64.65 72.3168 64.5795C72.8066 64.4074 73.1953 64.1023 73.4752 63.6485L75.6444 59.9087C75.9243 59.4549 76.0098 58.9386 75.901 58.4222C75.7999 57.9137 75.52 57.4833 75.1157 57.1782L72.8532 55.4804C72.861 55.3709 72.8766 55.2614 72.8766 55.1597C72.8843 54.9484 72.8921 54.7372 72.8921 54.5259C72.8921 54.3147 72.8921 54.1035 72.8843 53.9C72.8843 53.8061 72.8766 53.7044 72.8688 53.6027L75.1624 51.8815C75.5744 51.5685 75.8466 51.1382 75.9554 50.6297ZM69.7822 53.7592C69.8133 53.8687 69.8133 53.9392 69.8133 53.9704C69.821 54.1504 69.821 54.3382 69.821 54.5259C69.821 54.6902 69.821 54.8545 69.8133 55.0188C69.8055 55.058 69.7977 55.1597 69.7588 55.3318L69.4478 56.7635L72.5656 59.1029L71.2516 61.364L67.784 59.8931L66.7111 60.738C66.4312 60.9649 66.1591 61.1527 65.8792 61.317C65.6304 61.4578 65.3816 61.5752 65.1328 61.6613L63.8033 62.1385L63.3135 65.9409H60.6933L60.2035 62.1229L58.8351 61.6691C58.6097 61.5908 58.3531 61.4735 58.0577 61.3092C57.7467 61.1292 57.4979 60.9571 57.2879 60.785L56.215 59.8931L52.7008 61.3718L51.3868 59.1029L54.4035 56.834L54.1935 55.4804C54.1702 55.3396 54.1547 55.191 54.1469 55.0423C54.1313 54.8702 54.1313 54.7059 54.1313 54.5416C54.1313 54.3773 54.1313 54.2286 54.1469 54.0643C54.1547 53.9157 54.1702 53.7357 54.2013 53.5245L54.3801 52.2023L51.3946 49.9568L52.7008 47.7114L56.1761 49.1588L57.2335 48.3216C57.4901 48.1182 57.77 47.9226 58.0732 47.7505C58.3687 47.5784 58.6408 47.461 58.8818 47.3671L60.188 46.8977L60.6933 43.1188H63.3135L63.8033 46.9134L65.1172 47.3828C65.4282 47.5001 65.6848 47.6253 65.9025 47.7505C66.1513 47.8992 66.4234 48.0869 66.7111 48.3138L67.7685 49.151L71.3138 47.7036L72.6122 49.9568L69.4634 52.3274L69.7822 53.7592Z" fill="white"/>
<path d="M18.58 92.98V73.18H33.43V76.51H22.72V81.43H31.15V84.61H22.72V89.65H33.85V92.98H18.58ZM39.6644 91.12L38.9144 89.68H52.7744V92.98H36.3044V89.86L49.0844 75.04L49.8044 76.48H36.5444V73.18H52.4144V76.3L39.6644 91.12ZM56.5488 92.98V73.18H71.3988V76.51H60.6888V81.43H69.1187V84.61H60.6888V89.65H71.8188V92.98H56.5488ZM92.5431 73.18V92.98H88.4031V73.18H92.5431ZM79.6731 73.18V92.98H75.5331V73.18H79.6731ZM90.5631 81.31V84.64H77.6031V81.31H90.5631Z" fill="white"/>
</svg>
