<svg width="77" height="63" viewBox="0 0 77 63" fill="none" xmlns="http://www.w3.org/2000/svg">
<path fill-rule="evenodd" clip-rule="evenodd" d="M62.7965 20.0011L75.6231 30.56C76.9601 31.6607 77.399 34.0522 76.6033 35.9016C75.8077 37.7511 74.0789 38.3581 72.7419 37.2575L71.3818 36.1378V62.3C71.3818 62.6866 71.0684 63 70.6818 63H42.0542C41.6676 63 41.3542 62.6866 41.3542 62.3V44.5627H35.645V62.3C35.645 62.6866 35.3316 63 34.945 63H6.31941C5.93281 63 5.61941 62.6866 5.61941 62.3V36.1369L4.2581 37.2575C2.92112 38.3581 1.1923 37.7511 0.396665 35.9016C-0.398969 34.0522 0.0398766 31.6607 1.37685 30.56L38.0551 0.366238C38.3135 0.153487 38.6864 0.153486 38.9449 0.366237L54.1107 12.8508V3.64039C54.1107 3.25379 54.4241 2.94039 54.8107 2.94039H62.0965C62.4831 2.94039 62.7965 3.25379 62.7965 3.64039V20.0011ZM38.5 9.06933L65.7477 31.4998V55.2063H46.9882V36.769H30.0109V55.2063H11.2535V31.4989L38.5 9.06933Z" fill="white"/>
</svg>
