<svg width="63" height="63" viewBox="0 0 63 63" fill="none" xmlns="http://www.w3.org/2000/svg">
<path d="M61.9964 33.8112V33.8136H62L61.9964 33.8112Z" fill="white"/>
<path d="M36.454 22.1083C36.454 23.2719 35.5231 24.213 34.3721 24.213C33.2211 24.213 32.2902 23.2719 32.2902 22.1083C32.2902 20.9447 33.2211 20.0037 34.3721 20.0037C35.5231 20.0037 36.454 20.9447 36.454 22.1083Z" fill="white"/>
<path fill-rule="evenodd" clip-rule="evenodd" d="M61.9964 31.0122V33.8112L44.0096 21.8129C44.0096 21.8129 43.573 24.6143 43.573 24.7602C43.573 24.9061 61.8521 36.7573 61.8521 36.7573L61.9964 40L42.4039 26.6752C42.4039 26.6752 35.9886 34.3352 28.4078 28.2947L1 0H7.85195L8.87307 1.32774H44.006L44.2261 19.0115L61.9964 31.0122ZM30.7387 25.5006C39.1963 29.3307 40.1164 21.3715 40.1164 21.3715V5.65749H11.7885L30.7387 25.5006Z" fill="white"/>
<rect x="15.625" y="32" width="3.24994" height="25.9995" fill="white"/>
<path d="M15.625 50.6874L4.65644 57.0201L4.65644 44.3547L15.625 50.6874Z" fill="white"/>
<line x1="4.75" y1="33.625" x2="4.75" y2="57.9996" stroke="white"/>
</svg>
