<svg width="76" height="51" viewBox="0 0 76 51" fill="none" xmlns="http://www.w3.org/2000/svg">
<path d="M63.2546 51H20.6565C20.6565 51 14.725 43.8275 13.3018 38.9285C13.3018 38.9285 9.50496 38.0934 0.156051 32.7185C-0.260355 32.4814 0.206976 31.4393 0.962479 30.2079C3.06995 27.3491 5.83814 25.0511 9.02703 23.5132C7.37019 22.4516 6.18249 17.7773 6.18249 17.7773C4.40443 17.4234 3.45388 15.15 3.45388 15.15C3.36832 14.3206 3.53889 13.4848 3.9423 12.7566C4.3457 12.0284 4.96235 11.4432 5.70813 11.0807C6.47374 10.849 7.29353 10.8754 8.04291 11.1557C8.79229 11.4361 9.43029 11.9552 9.85989 12.6341C10.1241 13.0133 10.3011 13.447 10.3781 13.9037C10.455 14.3604 10.4301 14.8286 10.3049 15.2744C10.1797 15.7201 9.95745 16.1322 9.65437 16.4807C9.35129 16.8291 8.97496 17.1053 8.55266 17.289C9.383 19.0922 10.3776 20.8139 11.5237 22.4322C12.6746 22.0429 14.9586 21.5935 14.9586 21.5935C14.9586 21.2397 14.8427 16.8166 14.8427 16.8166C14.8427 16.8166 12.9469 16.4627 12.2371 13.2304C12.2417 12.4083 12.568 11.6212 13.1453 11.0399C13.7226 10.4586 14.5042 10.13 15.3206 10.1253C15.8063 10.0139 16.3111 10.018 16.795 10.1372C17.2789 10.2564 17.7286 10.4876 18.1083 10.8123C18.488 11.137 18.7874 11.5463 18.9827 12.0078C19.178 12.4693 19.2639 12.9703 19.2334 13.471C19.3045 14.1431 19.1427 14.8194 18.7754 15.3852C18.4082 15.9511 17.858 16.3717 17.2181 16.576C17.2181 16.576 16.0339 29.6029 26.003 44.5299C26.4475 45.1969 43.4411 42.0194 44.7483 41.064C45.3434 40.702 45.8395 40.1961 46.1913 39.5922C46.5431 38.9883 46.7396 38.3055 46.7629 37.6057C46.7863 36.906 46.6358 36.2114 46.3251 35.5851C46.0144 34.9587 45.5534 34.4204 44.9838 34.0189C43.1301 32.9282 41.6436 31.3031 40.716 29.3534C40.3005 28.281 40.1031 27.1355 40.1354 25.9848C40.1678 24.8341 40.4293 23.7017 40.9045 22.6547C41.3798 21.6078 42.059 20.6676 42.9019 19.8899C43.7447 19.1122 44.7341 18.5129 45.8113 18.1276C47.302 17.6187 48.9026 17.531 50.4393 17.8741C51.9759 18.2171 53.3897 18.9779 54.5271 20.0735C55.6644 21.1692 56.4818 22.5578 56.8902 24.0885C57.2985 25.6192 57.2824 27.2333 56.8434 28.7554C55.4238 31.825 57.4373 32.1046 57.4373 32.1046C57.4373 32.1046 59.6914 33.06 60.4012 29.9532C61.1111 26.8464 62.4675 22.9983 57.5568 17.6517C53.1643 12.8747 45.8112 13.4674 42.3693 15.4985C40.1077 16.9734 38.3711 19.135 37.4111 21.6702C36.4511 24.2054 36.3175 26.9826 37.0298 29.5993C38.952 35.7598 41.895 36.6444 41.895 36.6444C41.895 36.6444 44.5076 36.9983 42.1304 38.1978C39.7532 39.3974 28.0148 41.0657 26.8271 40.5916C25.6394 40.1174 21.6071 30.9068 22.9143 22.1915C23.7629 16.7 26.3234 11.6223 30.2257 7.69207C34.128 3.76189 39.1701 1.18275 44.6236 0.327316C57.9134 -1.587 66.9372 5.22633 69.4234 12.1511C71.9095 19.0759 74.0495 29.4772 65.0309 37.1257C64.3104 37.6855 63.8086 38.4828 63.6133 39.3779C63.418 40.273 63.5417 41.2087 63.9627 42.0211C65.0275 43.9938 68.3674 44.0151 70.6076 42.6191C74.6487 40.1086 74.169 37.3627 74.169 37.3627C74.169 37.3627 78.4437 40.2749 73.93 45.7277C72.7441 47.1731 63.2546 51 63.2546 51Z" fill="white"/>
</svg>
