<svg width="56" height="24" viewBox="0 0 56 24" fill="none" xmlns="http://www.w3.org/2000/svg">
<path d="M6.01982 0.350194V23.4502H-0.000175558V0.350194H6.01982ZM20.1724 0.000194728C22.3191 0.000194728 24.2091 0.338528 25.8424 1.01519C27.4991 1.66853 28.9341 2.63686 30.1474 3.92019L27.2424 7.80519C26.2391 6.75519 25.1541 5.97353 23.9874 5.4602C22.8441 4.92353 21.5374 4.6552 20.0674 4.6552C19.2041 4.6552 18.5041 4.74853 17.9674 4.93519C17.4307 5.12186 17.0457 5.37853 16.8124 5.70519C16.5791 6.03186 16.4624 6.40519 16.4624 6.82519C16.4624 7.31519 16.6841 7.73519 17.1274 8.08519C17.5941 8.41186 18.3407 8.69186 19.3674 8.92519L23.2524 9.80019C25.5624 10.3369 27.2541 11.1185 28.3274 12.1452C29.4007 13.1719 29.9374 14.5369 29.9374 16.2402C29.9374 17.8735 29.5174 19.2619 28.6774 20.4052C27.8374 21.5252 26.6824 22.3769 25.2124 22.9602C23.7424 23.5202 22.0624 23.8002 20.1724 23.8002C18.6324 23.8002 17.1624 23.6369 15.7624 23.3102C14.3624 22.9602 13.1024 22.4702 11.9824 21.8402C10.8624 21.2102 9.9174 20.4869 9.1474 19.6702L12.0524 15.6452C12.6357 16.3219 13.3474 16.9285 14.1874 17.4652C15.0507 17.9785 15.9841 18.3869 16.9874 18.6902C18.0141 18.9935 19.0524 19.1452 20.1024 19.1452C20.9191 19.1452 21.5957 19.0635 22.1324 18.9002C22.6924 18.7369 23.1007 18.4919 23.3574 18.1652C23.6141 17.8385 23.7424 17.4535 23.7424 17.0102C23.7424 16.5202 23.5674 16.1119 23.2174 15.7852C22.8674 15.4352 22.2024 15.1435 21.2224 14.9102L16.9524 13.9652C15.6457 13.6619 14.4791 13.2652 13.4524 12.7752C12.4491 12.2619 11.6557 11.5852 11.0724 10.7452C10.4891 9.88186 10.1974 8.80853 10.1974 7.52519C10.1974 6.07853 10.5941 4.79519 11.3874 3.6752C12.1807 2.53186 13.3241 1.63353 14.8174 0.980195C16.3107 0.326861 18.0957 0.000194728 20.1724 0.000194728ZM44.061 0.000194728C46.3943 0.000194728 48.401 0.478528 50.081 1.4352C51.7843 2.36853 53.091 3.72186 54.001 5.49519C54.911 7.26853 55.366 9.40353 55.366 11.9002C55.366 14.3969 54.911 16.5319 54.001 18.3052C53.091 20.0785 51.7843 21.4435 50.081 22.4002C48.401 23.3335 46.3943 23.8002 44.061 23.8002C41.7277 23.8002 39.7093 23.3335 38.006 22.4002C36.3027 21.4435 34.996 20.0785 34.086 18.3052C33.176 16.5319 32.721 14.3969 32.721 11.9002C32.721 9.40353 33.176 7.26853 34.086 5.49519C34.996 3.72186 36.3027 2.36853 38.006 1.4352C39.7093 0.478528 41.7277 0.000194728 44.061 0.000194728ZM44.061 4.72519C42.941 4.72519 41.996 4.99353 41.226 5.53019C40.456 6.06686 39.8727 6.87186 39.476 7.94519C39.0793 8.99519 38.881 10.3135 38.881 11.9002C38.881 13.4635 39.0793 14.7819 39.476 15.8552C39.8727 16.9285 40.456 17.7335 41.226 18.2702C41.996 18.8069 42.941 19.0752 44.061 19.0752C45.181 19.0752 46.1143 18.8069 46.861 18.2702C47.631 17.7335 48.2143 16.9285 48.611 15.8552C49.0077 14.7819 49.206 13.4635 49.206 11.9002C49.206 10.3135 49.0077 8.99519 48.611 7.94519C48.2143 6.87186 47.631 6.06686 46.861 5.53019C46.1143 4.99353 45.181 4.72519 44.061 4.72519Z" fill="white"/>
</svg>
