<svg width="54" height="54" viewBox="0 0 54 54" fill="none" xmlns="http://www.w3.org/2000/svg">
<path d="M32.2446 17.1038C32.2446 18.6111 31.0227 19.833 29.5154 19.833C28.0081 19.833 26.7862 18.6111 26.7862 17.1038C26.7862 15.5966 28.0081 14.3747 29.5154 14.3747C31.0227 14.3747 32.2446 15.5966 32.2446 17.1038Z" fill="white"/>
<path d="M18.3071 21.1788C18.3071 20.8843 18.0683 20.6455 17.7737 20.6455H13.4237C13.1292 20.6455 12.8904 20.8843 12.8904 21.1788V27.0288C12.8904 27.3234 13.1292 27.5622 13.4237 27.5622H17.7737C18.0683 27.5622 18.3071 27.3234 18.3071 27.0288V21.1788Z" fill="white"/>
<path d="M32.4737 23.4903V40.0321C32.4737 40.3267 32.2349 40.5654 31.9404 40.5654H31.5884C31.3257 40.5654 31.1021 40.3741 31.0615 40.1146L29.6321 30.9821H29.3987L27.9693 40.1146C27.9287 40.3741 27.7051 40.5654 27.4424 40.5654H27.0904C26.7958 40.5654 26.5571 40.3267 26.5571 40.0321V23.4872L19.6091 22.074C19.3606 22.0235 19.1821 21.805 19.1821 21.5514V21.1788C19.1821 20.8843 19.4208 20.6455 19.7154 20.6455L26.5571 20.6471L32.42 20.6488C32.4557 20.6488 32.4913 20.6524 32.5263 20.6595L36.8355 21.5358L37.4899 19.7868C37.5788 19.5493 37.8226 19.4072 38.073 19.447L38.441 19.5054C38.7319 19.5515 38.9303 19.8248 38.8841 20.1157L38.3927 23.2118C38.3506 23.4772 38.1176 23.6699 37.849 23.6613L32.4737 23.4903Z" fill="white"/>
<path fill-rule="evenodd" clip-rule="evenodd" d="M0.781049 24.8224C-0.26035 25.8638 -0.26035 27.5522 0.781049 28.5936L24.8224 52.635C25.8638 53.6764 27.5522 53.6764 28.5936 52.635L52.635 28.5936C53.6764 27.5522 53.6764 25.8638 52.635 24.8224L28.5936 0.781049C27.5522 -0.260349 25.8638 -0.26035 24.8224 0.781049L0.781049 24.8224ZM3.60948 26.708L26.708 49.8065L49.8065 26.708L26.708 3.60948L3.60948 26.708Z" fill="white"/>
</svg>
